  0
SECTION
  2
HEADER
  9
$ACADVER
  1
AC1009
  9
$FILLMODE
 70
0
  9
$EXTMIN
 10
-1.0160
 20
-1.0160
 30
0.0000
  9
$EXTMAX
 10
140.9500
 20
50.9304
 30
0.0000
  0
ENDSEC
  0
SECTION
  2
TABLES
  0
TABLE
  2
LTYPE
 70
1
  0
LTYPE
  2
CONTINUOUS
 70
64
  3
Solid line
 72
65
 73
0
 40
0
  0
ENDTAB
  0
TABLE
  2
LAYER
 70
255
  0
LAYER
  2
1
 70
64
 62
22
  6
CONTINUOUS
  0
LAYER
  2
16
 70
64
 62
175
  6
CONTINUOUS
  0
LAYER
  2
17
 70
64
 62
82
  6
CONTINUOUS
  0
LAYER
  2
18
 70
64
 62
82
  6
CONTINUOUS
  0
LAYER
  2
19
 70
64
 62
53
  6
CONTINUOUS
  0
LAYER
  2
21
 70
64
 62
253
  6
CONTINUOUS
  0
LAYER
  2
22
 70
64
 62
253
  6
CONTINUOUS
  0
LAYER
  2
23
 70
64
 62
7
  6
CONTINUOUS
  0
LAYER
  2
24
 70
64
 62
7
  6
CONTINUOUS
  0
LAYER
  2
25
 70
64
 62
253
  6
CONTINUOUS
  0
LAYER
  2
26
 70
64
 62
253
  6
CONTINUOUS
  0
LAYER
  2
27
 70
64
 62
253
  6
CONTINUOUS
  0
LAYER
  2
28
 70
64
 62
253
  6
CONTINUOUS
  0
LAYER
  2
39
 70
64
 62
22
  6
CONTINUOUS
  0
LAYER
  2
40
 70
64
 62
175
  6
CONTINUOUS
  0
LAYER
  2
41
 70
64
 62
22
  6
CONTINUOUS
  0
LAYER
  2
42
 70
64
 62
175
  6
CONTINUOUS
  0
LAYER
  2
43
 70
64
 62
82
  6
CONTINUOUS
  0
LAYER
  2
48
 70
64
 62
253
  6
CONTINUOUS
  0
LAYER
  2
49
 70
64
 62
253
  6
CONTINUOUS
  0
LAYER
  2
51
 70
64
 62
253
  6
CONTINUOUS
  0
LAYER
  2
52
 70
64
 62
253
  6
CONTINUOUS
  0
LAYER
  2
101
 70
64
 62
1
  6
CONTINUOUS
  0
LAYER
  2
102
 70
64
 62
253
  6
CONTINUOUS
  0
LAYER
  2
103
 70
64
 62
253
  6
CONTINUOUS
  0
LAYER
  2
104
 70
64
 62
251
  6
CONTINUOUS
  0
LAYER
  2
105
 70
64
 62
253
  6
CONTINUOUS
  0
LAYER
  2
106
 70
64
 62
253
  6
CONTINUOUS
  0
LAYER
  2
107
 70
64
 62
253
  6
CONTINUOUS
  0
LAYER
  2
108
 70
64
 62
3
  6
CONTINUOUS
  0
LAYER
  2
109
 70
64
 62
4
  6
CONTINUOUS
  0
LAYER
  2
110
 70
64
 62
253
  6
CONTINUOUS
  0
LAYER
  2
111
 70
64
 62
253
  6
CONTINUOUS
  0
LAYER
  2
112
 70
64
 62
253
  6
CONTINUOUS
  0
LAYER
  2
113
 70
64
 62
22
  6
CONTINUOUS
  0
LAYER
  2
114
 70
64
 62
253
  6
CONTINUOUS
  0
LAYER
  2
115
 70
64
 62
253
  6
CONTINUOUS
  0
LAYER
  2
116
 70
64
 62
5
  6
CONTINUOUS
  0
LAYER
  2
118
 70
64
 62
253
  6
CONTINUOUS
  0
LAYER
  2
121
 70
64
 62
253
  6
CONTINUOUS
  0
LAYER
  2
122
 70
64
 62
253
  6
CONTINUOUS
  0
LAYER
  2
123
 70
64
 62
253
  6
CONTINUOUS
  0
LAYER
  2
124
 70
64
 62
253
  6
CONTINUOUS
  0
LAYER
  2
125
 70
64
 62
253
  6
CONTINUOUS
  0
LAYER
  2
126
 70
64
 62
253
  6
CONTINUOUS
  0
LAYER
  2
127
 70
64
 62
253
  6
CONTINUOUS
  0
LAYER
  2
128
 70
64
 62
253
  6
CONTINUOUS
  0
LAYER
  2
129
 70
64
 62
253
  6
CONTINUOUS
  0
LAYER
  2
131
 70
64
 62
253
  6
CONTINUOUS
  0
LAYER
  2
132
 70
64
 62
253
  6
CONTINUOUS
  0
LAYER
  2
144
 70
64
 62
253
  6
CONTINUOUS
  0
LAYER
  2
150
 70
64
 62
253
  6
CONTINUOUS
  0
LAYER
  2
151
 70
64
 62
253
  6
CONTINUOUS
  0
LAYER
  2
152
 70
64
 62
253
  6
CONTINUOUS
  0
LAYER
  2
153
 70
64
 62
253
  6
CONTINUOUS
  0
LAYER
  2
154
 70
64
 62
253
  6
CONTINUOUS
  0
LAYER
  2
155
 70
64
 62
253
  6
CONTINUOUS
  0
LAYER
  2
199
 70
64
 62
253
  6
CONTINUOUS
  0
LAYER
  2
200
 70
64
 62
175
  6
CONTINUOUS
  0
LAYER
  2
201
 70
64
 62
82
  6
CONTINUOUS
  0
LAYER
  2
202
 70
64
 62
140
  6
CONTINUOUS
  0
LAYER
  2
203
 70
64
 62
22
  6
CONTINUOUS
  0
LAYER
  2
204
 70
64
 62
213
  6
CONTINUOUS
  0
LAYER
  2
205
 70
64
 62
53
  6
CONTINUOUS
  0
LAYER
  2
206
 70
64
 62
253
  6
CONTINUOUS
  0
LAYER
  2
207
 70
64
 62
250
  6
CONTINUOUS
  0
LAYER
  2
208
 70
64
 62
5
  6
CONTINUOUS
  0
LAYER
  2
209
 70
64
 62
253
  6
CONTINUOUS
  0
LAYER
  2
210
 70
64
 62
253
  6
CONTINUOUS
  0
LAYER
  2
211
 70
64
 62
253
  6
CONTINUOUS
  0
LAYER
  2
212
 70
64
 62
253
  6
CONTINUOUS
  0
LAYER
  2
213
 70
64
 62
253
  6
CONTINUOUS
  0
LAYER
  2
214
 70
64
 62
253
  6
CONTINUOUS
  0
LAYER
  2
215
 70
64
 62
253
  6
CONTINUOUS
  0
LAYER
  2
216
 70
64
 62
253
  6
CONTINUOUS
  0
LAYER
  2
225
 70
64
 62
253
  6
CONTINUOUS
  0
LAYER
  2
226
 70
64
 62
253
  6
CONTINUOUS
  0
LAYER
  2
227
 70
64
 62
253
  6
CONTINUOUS
  0
LAYER
  2
228
 70
64
 62
253
  6
CONTINUOUS
  0
LAYER
  2
229
 70
64
 62
253
  6
CONTINUOUS
  0
LAYER
  2
230
 70
64
 62
253
  6
CONTINUOUS
  0
LAYER
  2
231
 70
64
 62
253
  6
CONTINUOUS
  0
LAYER
  2
248
 70
64
 62
253
  6
CONTINUOUS
  0
LAYER
  2
249
 70
64
 62
253
  6
CONTINUOUS
  0
LAYER
  2
254
 70
64
 62
253
  6
CONTINUOUS
  0
LAYER
  2
255
 70
64
 62
253
  6
CONTINUOUS
  0
ENDTAB
  0
ENDSEC
  0
SECTION
  2
BLOCKS
  0
BLOCK
  8
0
  2
RECT
 70
64
 10
0.0000
 20
0.0000
 30
0.0000
  3
RECT
  0
SOLID
  8
0
 10
-0.5000
 20
-0.5000
 30
0.0000
 11
0.5000
 21
-0.5000
 31
0.0000
 12
-0.5000
 22
0.5000
 32
0.0000
 13
0.5000
 23
0.5000
 33
0.0000
  0
ENDBLK
  8
0
  0
BLOCK
  8
0
  2
PIE
 70
64
 10
0.0000
 20
0.0000
 30
0.0000
  3
PIE
  0
CIRCLE
  8
0
 10
0.0000
 20
0.0000
 30
0.0000
 40
0.5000
  0
ENDBLK
  8
0
  0
BLOCK
  8
0
  2
OCTAGONP
 70
64
 10
0.0000
 20
0.0000
 30
0.0000
  3
OCTAGONP
  0
POLYLINE
  8
0
 66
1
 10
0.0000
 20
0.0000
 30
0.0000
 40
0.0000
 41
0.0000
 70
1
  0
VERTEX
  8
0
 10
-0.5000
 20
-0.2071
 30
0.0000
  0
VERTEX
  8
0
 10
-0.5000
 20
0.2071
 30
0.0000
  0
VERTEX
  8
0
 10
-0.2071
 20
0.5000
 30
0.0000
  0
VERTEX
  8
0
 10
0.2071
 20
0.5000
 30
0.0000
  0
VERTEX
  8
0
 10
0.5000
 20
0.2071
 30
0.0000
  0
VERTEX
  8
0
 10
0.5000
 20
-0.2071
 30
0.0000
  0
VERTEX
  8
0
 10
0.2071
 20
-0.5000
 30
0.0000
  0
VERTEX
  8
0
 10
-0.2071
 20
-0.5000
 30
0.0000
  0
SEQEND
  8
0
  0
ENDBLK
  8
0
  0
BLOCK
  8
0
  2
SQUAREP
 70
64
 10
0.0000
 20
0.0000
 30
0.0000
  3
SQUAREP
  0
SOLID
  8
0
 10
-0.5000
 20
-0.5000
 30
0.0000
 11
0.5000
 21
-0.5000
 31
0.0000
 12
-0.5000
 22
0.5000
 32
0.0000
 13
0.5000
 23
0.5000
 33
0.0000
  0
ENDBLK
  8
0
  0
BLOCK
  8
0
  2
ROUNDP
 70
64
 10
0.0000
 20
0.0000
 30
0.0000
  3
ROUNDP
  0
CIRCLE
  8
0
 10
0.0000
 20
0.0000
 30
0.0000
 40
0.5000
  0
ENDBLK
  8
0
  0
BLOCK
  8
0
  2
ANNULUSP
 70
64
 10
0.0000
 20
0.0000
 30
0.0000
  3
ANNULUSP
  0
CIRCLE
  8
0
 10
0.0000
 20
0.0000
 30
0.0000
 40
0.5000
  0
ENDBLK
  8
0
  0
BLOCK
  8
0
  2
THERMALP
 70
64
 10
0.0000
 20
0.0000
 30
0.0000
  3
THERMALP
  0
LINE
  8
0
 10
-0.2379
 20
0.4500
 30
0.0000
 11
0.2379
 21
0.4500
 31
0.0000
  0
LINE
  8
0
 10
0.4500
 20
0.2379
 30
0.0000
 11
0.4500
 21
-0.2379
 31
0.0000
  0
LINE
  8
0
 10
0.2379
 20
-0.4500
 30
0.0000
 11
-0.2379
 21
-0.4500
 31
0.0000
  0
LINE
  8
0
 10
-0.4500
 20
-0.2379
 30
0.0000
 11
-0.4500
 21
0.2379
 31
0.0000
  0
ENDBLK
  8
0
  0
BLOCK
  8
0
  2
OCTAGONV
 70
64
 10
0.0000
 20
0.0000
 30
0.0000
  3
OCTAGONV
  0
POLYLINE
  8
0
 66
1
 10
0.0000
 20
0.0000
 30
0.0000
 40
0.0000
 41
0.0000
 70
1
  0
VERTEX
  8
0
 10
-0.5000
 20
-0.2071
 30
0.0000
  0
VERTEX
  8
0
 10
-0.5000
 20
0.2071
 30
0.0000
  0
VERTEX
  8
0
 10
-0.2071
 20
0.5000
 30
0.0000
  0
VERTEX
  8
0
 10
0.2071
 20
0.5000
 30
0.0000
  0
VERTEX
  8
0
 10
0.5000
 20
0.2071
 30
0.0000
  0
VERTEX
  8
0
 10
0.5000
 20
-0.2071
 30
0.0000
  0
VERTEX
  8
0
 10
0.2071
 20
-0.5000
 30
0.0000
  0
VERTEX
  8
0
 10
-0.2071
 20
-0.5000
 30
0.0000
  0
SEQEND
  8
0
  0
ENDBLK
  8
0
  0
BLOCK
  8
0
  2
SQUAREV
 70
64
 10
0.0000
 20
0.0000
 30
0.0000
  3
SQUAREV
  0
SOLID
  8
0
 10
-0.5000
 20
-0.5000
 30
0.0000
 11
0.5000
 21
-0.5000
 31
0.0000
 12
-0.5000
 22
0.5000
 32
0.0000
 13
0.5000
 23
0.5000
 33
0.0000
  0
ENDBLK
  8
0
  0
BLOCK
  8
0
  2
ROUNDV
 70
64
 10
0.0000
 20
0.0000
 30
0.0000
  3
ROUNDV
  0
CIRCLE
  8
0
 10
0.0000
 20
0.0000
 30
0.0000
 40
0.5000
  0
ENDBLK
  8
0
  0
BLOCK
  8
0
  2
ANNULUSV
 70
64
 10
0.0000
 20
0.0000
 30
0.0000
  3
ANNULUSV
  0
CIRCLE
  8
0
 10
0.0000
 20
0.0000
 30
0.0000
 40
0.5000
  0
ENDBLK
  8
0
  0
BLOCK
  8
0
  2
THERMALV
 70
64
 10
0.0000
 20
0.0000
 30
0.0000
  3
THERMALV
  0
LINE
  8
0
 10
-0.2379
 20
0.4500
 30
0.0000
 11
0.2379
 21
0.4500
 31
0.0000
  0
LINE
  8
0
 10
0.4500
 20
0.2379
 30
0.0000
 11
0.4500
 21
-0.2379
 31
0.0000
  0
LINE
  8
0
 10
0.2379
 20
-0.4500
 30
0.0000
 11
-0.2379
 21
-0.4500
 31
0.0000
  0
LINE
  8
0
 10
-0.4500
 20
-0.2379
 30
0.0000
 11
-0.4500
 21
0.2379
 31
0.0000
  0
ENDBLK
  8
0
  0
ENDSEC
  0
SECTION
  2
ENTITIES
  0
POINT
  8
23
 10
0.0000
 20
0.0000
 30
0.0000
  0
LINE
  8
21
 10
14.6050
 20
0.6350
 30
0.0000
 11
15.2400
 21
1.2700
 31
0.0000
  0
LINE
  8
21
 10
15.2400
 20
2.5400
 30
0.0000
 11
14.6050
 21
3.1750
 31
0.0000
  0
LINE
  8
21
 10
14.6050
 20
3.1750
 30
0.0000
 11
15.2400
 21
3.8100
 31
0.0000
  0
LINE
  8
21
 10
15.2400
 20
5.0800
 30
0.0000
 11
14.6050
 21
5.7150
 31
0.0000
  0
LINE
  8
21
 10
14.6050
 20
5.7150
 30
0.0000
 11
15.2400
 21
6.3500
 31
0.0000
  0
LINE
  8
21
 10
15.2400
 20
7.6200
 30
0.0000
 11
14.6050
 21
8.2550
 31
0.0000
  0
LINE
  8
21
 10
14.6050
 20
8.2550
 30
0.0000
 11
15.2400
 21
8.8900
 31
0.0000
  0
LINE
  8
21
 10
15.2400
 20
10.1600
 30
0.0000
 11
14.6050
 21
10.7950
 31
0.0000
  0
LINE
  8
21
 10
14.6050
 20
0.6350
 30
0.0000
 11
10.7950
 21
0.6350
 31
0.0000
  0
LINE
  8
21
 10
10.7950
 20
0.6350
 30
0.0000
 11
10.1600
 21
1.2700
 31
0.0000
  0
LINE
  8
21
 10
10.1600
 20
1.2700
 30
0.0000
 11
10.1600
 21
2.5400
 31
0.0000
  0
LINE
  8
21
 10
10.1600
 20
2.5400
 30
0.0000
 11
10.7950
 21
3.1750
 31
0.0000
  0
LINE
  8
21
 10
10.7950
 20
3.1750
 30
0.0000
 11
10.1600
 21
3.8100
 31
0.0000
  0
LINE
  8
21
 10
10.1600
 20
3.8100
 30
0.0000
 11
10.1600
 21
5.0800
 31
0.0000
  0
LINE
  8
21
 10
10.1600
 20
5.0800
 30
0.0000
 11
10.7950
 21
5.7150
 31
0.0000
  0
LINE
  8
21
 10
10.7950
 20
5.7150
 30
0.0000
 11
10.1600
 21
6.3500
 31
0.0000
  0
LINE
  8
21
 10
10.1600
 20
6.3500
 30
0.0000
 11
10.1600
 21
7.6200
 31
0.0000
  0
LINE
  8
21
 10
10.1600
 20
7.6200
 30
0.0000
 11
10.7950
 21
8.2550
 31
0.0000
  0
LINE
  8
21
 10
10.7950
 20
8.2550
 30
0.0000
 11
10.1600
 21
8.8900
 31
0.0000
  0
LINE
  8
21
 10
10.1600
 20
8.8900
 30
0.0000
 11
10.1600
 21
10.1600
 31
0.0000
  0
LINE
  8
21
 10
10.1600
 20
10.1600
 30
0.0000
 11
10.7950
 21
10.7950
 31
0.0000
  0
LINE
  8
21
 10
10.7950
 20
3.1750
 30
0.0000
 11
14.6050
 21
3.1750
 31
0.0000
  0
LINE
  8
21
 10
10.7950
 20
5.7150
 30
0.0000
 11
14.6050
 21
5.7150
 31
0.0000
  0
LINE
  8
21
 10
10.7950
 20
8.2550
 30
0.0000
 11
14.6050
 21
8.2550
 31
0.0000
  0
LINE
  8
21
 10
10.7950
 20
10.7950
 30
0.0000
 11
14.6050
 21
10.7950
 31
0.0000
  0
LINE
  8
21
 10
15.2400
 20
8.8900
 30
0.0000
 11
15.2400
 21
10.1600
 31
0.0000
  0
LINE
  8
21
 10
15.2400
 20
6.3500
 30
0.0000
 11
15.2400
 21
7.6200
 31
0.0000
  0
LINE
  8
21
 10
15.2400
 20
3.8100
 30
0.0000
 11
15.2400
 21
5.0800
 31
0.0000
  0
LINE
  8
21
 10
15.2400
 20
1.2700
 30
0.0000
 11
15.2400
 21
2.5400
 31
0.0000
  0
LINE
  8
21
 10
14.6050
 20
10.7950
 30
0.0000
 11
15.2400
 21
11.4300
 31
0.0000
  0
LINE
  8
21
 10
15.2400
 20
12.7000
 30
0.0000
 11
14.6050
 21
13.3350
 31
0.0000
  0
LINE
  8
21
 10
10.7950
 20
10.7950
 30
0.0000
 11
10.1600
 21
11.4300
 31
0.0000
  0
LINE
  8
21
 10
10.1600
 20
11.4300
 30
0.0000
 11
10.1600
 21
12.7000
 31
0.0000
  0
LINE
  8
21
 10
10.1600
 20
12.7000
 30
0.0000
 11
10.7950
 21
13.3350
 31
0.0000
  0
LINE
  8
21
 10
10.7950
 20
13.3350
 30
0.0000
 11
14.6050
 21
13.3350
 31
0.0000
  0
LINE
  8
21
 10
15.2400
 20
11.4300
 30
0.0000
 11
15.2400
 21
12.7000
 31
0.0000
  0
LINE
  8
21
 10
14.6050
 20
31.7500
 30
0.0000
 11
15.2400
 21
32.3850
 31
0.0000
  0
LINE
  8
21
 10
15.2400
 20
33.6550
 30
0.0000
 11
14.6050
 21
34.2900
 31
0.0000
  0
LINE
  8
21
 10
14.6050
 20
34.2900
 30
0.0000
 11
15.2400
 21
34.9250
 31
0.0000
  0
LINE
  8
21
 10
15.2400
 20
36.1950
 30
0.0000
 11
14.6050
 21
36.8300
 31
0.0000
  0
LINE
  8
21
 10
14.6050
 20
36.8300
 30
0.0000
 11
15.2400
 21
37.4650
 31
0.0000
  0
LINE
  8
21
 10
15.2400
 20
38.7350
 30
0.0000
 11
14.6050
 21
39.3700
 31
0.0000
  0
LINE
  8
21
 10
14.6050
 20
39.3700
 30
0.0000
 11
15.2400
 21
40.0050
 31
0.0000
  0
LINE
  8
21
 10
15.2400
 20
41.2750
 30
0.0000
 11
14.6050
 21
41.9100
 31
0.0000
  0
LINE
  8
21
 10
14.6050
 20
31.7500
 30
0.0000
 11
10.7950
 21
31.7500
 31
0.0000
  0
LINE
  8
21
 10
10.7950
 20
31.7500
 30
0.0000
 11
10.1600
 21
32.3850
 31
0.0000
  0
LINE
  8
21
 10
10.1600
 20
32.3850
 30
0.0000
 11
10.1600
 21
33.6550
 31
0.0000
  0
LINE
  8
21
 10
10.1600
 20
33.6550
 30
0.0000
 11
10.7950
 21
34.2900
 31
0.0000
  0
LINE
  8
21
 10
10.7950
 20
34.2900
 30
0.0000
 11
10.1600
 21
34.9250
 31
0.0000
  0
LINE
  8
21
 10
10.1600
 20
34.9250
 30
0.0000
 11
10.1600
 21
36.1950
 31
0.0000
  0
LINE
  8
21
 10
10.1600
 20
36.1950
 30
0.0000
 11
10.7950
 21
36.8300
 31
0.0000
  0
LINE
  8
21
 10
10.7950
 20
36.8300
 30
0.0000
 11
10.1600
 21
37.4650
 31
0.0000
  0
LINE
  8
21
 10
10.1600
 20
37.4650
 30
0.0000
 11
10.1600
 21
38.7350
 31
0.0000
  0
LINE
  8
21
 10
10.1600
 20
38.7350
 30
0.0000
 11
10.7950
 21
39.3700
 31
0.0000
  0
LINE
  8
21
 10
10.7950
 20
39.3700
 30
0.0000
 11
10.1600
 21
40.0050
 31
0.0000
  0
LINE
  8
21
 10
10.1600
 20
40.0050
 30
0.0000
 11
10.1600
 21
41.2750
 31
0.0000
  0
LINE
  8
21
 10
10.1600
 20
41.2750
 30
0.0000
 11
10.7950
 21
41.9100
 31
0.0000
  0
LINE
  8
21
 10
10.7950
 20
34.2900
 30
0.0000
 11
14.6050
 21
34.2900
 31
0.0000
  0
LINE
  8
21
 10
10.7950
 20
36.8300
 30
0.0000
 11
14.6050
 21
36.8300
 31
0.0000
  0
LINE
  8
21
 10
10.7950
 20
39.3700
 30
0.0000
 11
14.6050
 21
39.3700
 31
0.0000
  0
LINE
  8
21
 10
10.7950
 20
41.9100
 30
0.0000
 11
14.6050
 21
41.9100
 31
0.0000
  0
LINE
  8
21
 10
15.2400
 20
40.0050
 30
0.0000
 11
15.2400
 21
41.2750
 31
0.0000
  0
LINE
  8
21
 10
15.2400
 20
37.4650
 30
0.0000
 11
15.2400
 21
38.7350
 31
0.0000
  0
LINE
  8
21
 10
15.2400
 20
34.9250
 30
0.0000
 11
15.2400
 21
36.1950
 31
0.0000
  0
LINE
  8
21
 10
15.2400
 20
32.3850
 30
0.0000
 11
15.2400
 21
33.6550
 31
0.0000
  0
LINE
  8
21
 10
14.6050
 20
41.9100
 30
0.0000
 11
15.2400
 21
42.5450
 31
0.0000
  0
LINE
  8
21
 10
15.2400
 20
43.8150
 30
0.0000
 11
14.6050
 21
44.4500
 31
0.0000
  0
LINE
  8
21
 10
10.7950
 20
41.9100
 30
0.0000
 11
10.1600
 21
42.5450
 31
0.0000
  0
LINE
  8
21
 10
10.1600
 20
42.5450
 30
0.0000
 11
10.1600
 21
43.8150
 31
0.0000
  0
LINE
  8
21
 10
10.1600
 20
43.8150
 30
0.0000
 11
10.7950
 21
44.4500
 31
0.0000
  0
LINE
  8
21
 10
10.7950
 20
44.4500
 30
0.0000
 11
14.6050
 21
44.4500
 31
0.0000
  0
LINE
  8
21
 10
15.2400
 20
42.5450
 30
0.0000
 11
15.2400
 21
43.8150
 31
0.0000
  0
LINE
  8
21
 10
28.5750
 20
31.7500
 30
0.0000
 11
29.2100
 21
32.3850
 31
0.0000
  0
LINE
  8
21
 10
29.2100
 20
33.6550
 30
0.0000
 11
28.5750
 21
34.2900
 31
0.0000
  0
LINE
  8
21
 10
28.5750
 20
34.2900
 30
0.0000
 11
29.2100
 21
34.9250
 31
0.0000
  0
LINE
  8
21
 10
29.2100
 20
36.1950
 30
0.0000
 11
28.5750
 21
36.8300
 31
0.0000
  0
LINE
  8
21
 10
28.5750
 20
36.8300
 30
0.0000
 11
29.2100
 21
37.4650
 31
0.0000
  0
LINE
  8
21
 10
29.2100
 20
38.7350
 30
0.0000
 11
28.5750
 21
39.3700
 31
0.0000
  0
LINE
  8
21
 10
28.5750
 20
39.3700
 30
0.0000
 11
29.2100
 21
40.0050
 31
0.0000
  0
LINE
  8
21
 10
29.2100
 20
41.2750
 30
0.0000
 11
28.5750
 21
41.9100
 31
0.0000
  0
LINE
  8
21
 10
28.5750
 20
31.7500
 30
0.0000
 11
24.7650
 21
31.7500
 31
0.0000
  0
LINE
  8
21
 10
24.7650
 20
31.7500
 30
0.0000
 11
24.1300
 21
32.3850
 31
0.0000
  0
LINE
  8
21
 10
24.1300
 20
32.3850
 30
0.0000
 11
24.1300
 21
33.6550
 31
0.0000
  0
LINE
  8
21
 10
24.1300
 20
33.6550
 30
0.0000
 11
24.7650
 21
34.2900
 31
0.0000
  0
LINE
  8
21
 10
24.7650
 20
34.2900
 30
0.0000
 11
24.1300
 21
34.9250
 31
0.0000
  0
LINE
  8
21
 10
24.1300
 20
34.9250
 30
0.0000
 11
24.1300
 21
36.1950
 31
0.0000
  0
LINE
  8
21
 10
24.1300
 20
36.1950
 30
0.0000
 11
24.7650
 21
36.8300
 31
0.0000
  0
LINE
  8
21
 10
24.7650
 20
36.8300
 30
0.0000
 11
24.1300
 21
37.4650
 31
0.0000
  0
LINE
  8
21
 10
24.1300
 20
37.4650
 30
0.0000
 11
24.1300
 21
38.7350
 31
0.0000
  0
LINE
  8
21
 10
24.1300
 20
38.7350
 30
0.0000
 11
24.7650
 21
39.3700
 31
0.0000
  0
LINE
  8
21
 10
24.7650
 20
39.3700
 30
0.0000
 11
24.1300
 21
40.0050
 31
0.0000
  0
LINE
  8
21
 10
24.1300
 20
40.0050
 30
0.0000
 11
24.1300
 21
41.2750
 31
0.0000
  0
LINE
  8
21
 10
24.1300
 20
41.2750
 30
0.0000
 11
24.7650
 21
41.9100
 31
0.0000
  0
LINE
  8
21
 10
24.7650
 20
34.2900
 30
0.0000
 11
28.5750
 21
34.2900
 31
0.0000
  0
LINE
  8
21
 10
24.7650
 20
36.8300
 30
0.0000
 11
28.5750
 21
36.8300
 31
0.0000
  0
LINE
  8
21
 10
24.7650
 20
39.3700
 30
0.0000
 11
28.5750
 21
39.3700
 31
0.0000
  0
LINE
  8
21
 10
24.7650
 20
41.9100
 30
0.0000
 11
28.5750
 21
41.9100
 31
0.0000
  0
LINE
  8
21
 10
29.2100
 20
40.0050
 30
0.0000
 11
29.2100
 21
41.2750
 31
0.0000
  0
LINE
  8
21
 10
29.2100
 20
37.4650
 30
0.0000
 11
29.2100
 21
38.7350
 31
0.0000
  0
LINE
  8
21
 10
29.2100
 20
34.9250
 30
0.0000
 11
29.2100
 21
36.1950
 31
0.0000
  0
LINE
  8
21
 10
29.2100
 20
32.3850
 30
0.0000
 11
29.2100
 21
33.6550
 31
0.0000
  0
LINE
  8
21
 10
28.5750
 20
41.9100
 30
0.0000
 11
29.2100
 21
42.5450
 31
0.0000
  0
LINE
  8
21
 10
29.2100
 20
43.8150
 30
0.0000
 11
28.5750
 21
44.4500
 31
0.0000
  0
LINE
  8
21
 10
24.7650
 20
41.9100
 30
0.0000
 11
24.1300
 21
42.5450
 31
0.0000
  0
LINE
  8
21
 10
24.1300
 20
42.5450
 30
0.0000
 11
24.1300
 21
43.8150
 31
0.0000
  0
LINE
  8
21
 10
24.1300
 20
43.8150
 30
0.0000
 11
24.7650
 21
44.4500
 31
0.0000
  0
LINE
  8
21
 10
24.7650
 20
44.4500
 30
0.0000
 11
28.5750
 21
44.4500
 31
0.0000
  0
LINE
  8
21
 10
29.2100
 20
42.5450
 30
0.0000
 11
29.2100
 21
43.8150
 31
0.0000
  0
LINE
  8
21
 10
42.5450
 20
31.7500
 30
0.0000
 11
43.1800
 21
32.3850
 31
0.0000
  0
LINE
  8
21
 10
43.1800
 20
33.6550
 30
0.0000
 11
42.5450
 21
34.2900
 31
0.0000
  0
LINE
  8
21
 10
42.5450
 20
34.2900
 30
0.0000
 11
43.1800
 21
34.9250
 31
0.0000
  0
LINE
  8
21
 10
43.1800
 20
36.1950
 30
0.0000
 11
42.5450
 21
36.8300
 31
0.0000
  0
LINE
  8
21
 10
42.5450
 20
36.8300
 30
0.0000
 11
43.1800
 21
37.4650
 31
0.0000
  0
LINE
  8
21
 10
43.1800
 20
38.7350
 30
0.0000
 11
42.5450
 21
39.3700
 31
0.0000
  0
LINE
  8
21
 10
42.5450
 20
39.3700
 30
0.0000
 11
43.1800
 21
40.0050
 31
0.0000
  0
LINE
  8
21
 10
43.1800
 20
41.2750
 30
0.0000
 11
42.5450
 21
41.9100
 31
0.0000
  0
LINE
  8
21
 10
42.5450
 20
31.7500
 30
0.0000
 11
40.6400
 21
31.7500
 31
0.0000
  0
LINE
  8
21
 10
40.6400
 20
31.7500
 30
0.0000
 11
38.7350
 21
31.7500
 31
0.0000
  0
LINE
  8
21
 10
38.7350
 20
31.7500
 30
0.0000
 11
38.1000
 21
32.3850
 31
0.0000
  0
LINE
  8
21
 10
38.1000
 20
32.3850
 30
0.0000
 11
38.1000
 21
33.6550
 31
0.0000
  0
LINE
  8
21
 10
38.1000
 20
33.6550
 30
0.0000
 11
38.7350
 21
34.2900
 31
0.0000
  0
LINE
  8
21
 10
38.7350
 20
34.2900
 30
0.0000
 11
38.1000
 21
34.9250
 31
0.0000
  0
LINE
  8
21
 10
38.1000
 20
34.9250
 30
0.0000
 11
38.1000
 21
36.1950
 31
0.0000
  0
LINE
  8
21
 10
38.1000
 20
36.1950
 30
0.0000
 11
38.7350
 21
36.8300
 31
0.0000
  0
LINE
  8
21
 10
38.7350
 20
36.8300
 30
0.0000
 11
38.1000
 21
37.4650
 31
0.0000
  0
LINE
  8
21
 10
38.1000
 20
37.4650
 30
0.0000
 11
38.1000
 21
38.7350
 31
0.0000
  0
LINE
  8
21
 10
38.1000
 20
38.7350
 30
0.0000
 11
38.7350
 21
39.3700
 31
0.0000
  0
LINE
  8
21
 10
38.7350
 20
39.3700
 30
0.0000
 11
38.1000
 21
40.0050
 31
0.0000
  0
LINE
  8
21
 10
38.1000
 20
40.0050
 30
0.0000
 11
38.1000
 21
41.2750
 31
0.0000
  0
LINE
  8
21
 10
38.1000
 20
41.2750
 30
0.0000
 11
38.7350
 21
41.9100
 31
0.0000
  0
LINE
  8
21
 10
38.7350
 20
34.2900
 30
0.0000
 11
42.5450
 21
34.2900
 31
0.0000
  0
LINE
  8
21
 10
38.7350
 20
36.8300
 30
0.0000
 11
42.5450
 21
36.8300
 31
0.0000
  0
LINE
  8
21
 10
38.7350
 20
39.3700
 30
0.0000
 11
42.5450
 21
39.3700
 31
0.0000
  0
LINE
  8
21
 10
38.7350
 20
41.9100
 30
0.0000
 11
42.5450
 21
41.9100
 31
0.0000
  0
LINE
  8
21
 10
43.1800
 20
40.0050
 30
0.0000
 11
43.1800
 21
41.2750
 31
0.0000
  0
LINE
  8
21
 10
43.1800
 20
37.4650
 30
0.0000
 11
43.1800
 21
38.7350
 31
0.0000
  0
LINE
  8
21
 10
43.1800
 20
34.9250
 30
0.0000
 11
43.1800
 21
36.1950
 31
0.0000
  0
LINE
  8
21
 10
43.1800
 20
32.3850
 30
0.0000
 11
43.1800
 21
33.6550
 31
0.0000
  0
LINE
  8
21
 10
42.5450
 20
41.9100
 30
0.0000
 11
43.1800
 21
42.5450
 31
0.0000
  0
LINE
  8
21
 10
43.1800
 20
43.8150
 30
0.0000
 11
42.5450
 21
44.4500
 31
0.0000
  0
LINE
  8
21
 10
38.7350
 20
41.9100
 30
0.0000
 11
38.1000
 21
42.5450
 31
0.0000
  0
LINE
  8
21
 10
38.1000
 20
42.5450
 30
0.0000
 11
38.1000
 21
43.8150
 31
0.0000
  0
LINE
  8
21
 10
38.1000
 20
43.8150
 30
0.0000
 11
38.7350
 21
44.4500
 31
0.0000
  0
LINE
  8
21
 10
38.7350
 20
44.4500
 30
0.0000
 11
42.5450
 21
44.4500
 31
0.0000
  0
LINE
  8
21
 10
43.1800
 20
42.5450
 30
0.0000
 11
43.1800
 21
43.8150
 31
0.0000
  0
LINE
  8
21
 10
56.5150
 20
31.7500
 30
0.0000
 11
57.1500
 21
32.3850
 31
0.0000
  0
LINE
  8
21
 10
57.1500
 20
33.6550
 30
0.0000
 11
56.5150
 21
34.2900
 31
0.0000
  0
LINE
  8
21
 10
56.5150
 20
34.2900
 30
0.0000
 11
57.1500
 21
34.9250
 31
0.0000
  0
LINE
  8
21
 10
57.1500
 20
36.1950
 30
0.0000
 11
56.5150
 21
36.8300
 31
0.0000
  0
LINE
  8
21
 10
56.5150
 20
36.8300
 30
0.0000
 11
57.1500
 21
37.4650
 31
0.0000
  0
LINE
  8
21
 10
57.1500
 20
38.7350
 30
0.0000
 11
56.5150
 21
39.3700
 31
0.0000
  0
LINE
  8
21
 10
56.5150
 20
39.3700
 30
0.0000
 11
57.1500
 21
40.0050
 31
0.0000
  0
LINE
  8
21
 10
57.1500
 20
41.2750
 30
0.0000
 11
56.5150
 21
41.9100
 31
0.0000
  0
LINE
  8
21
 10
56.5150
 20
31.7500
 30
0.0000
 11
54.6100
 21
31.7500
 31
0.0000
  0
LINE
  8
21
 10
54.6100
 20
31.7500
 30
0.0000
 11
52.7050
 21
31.7500
 31
0.0000
  0
LINE
  8
21
 10
52.7050
 20
31.7500
 30
0.0000
 11
52.0700
 21
32.3850
 31
0.0000
  0
LINE
  8
21
 10
52.0700
 20
32.3850
 30
0.0000
 11
52.0700
 21
33.6550
 31
0.0000
  0
LINE
  8
21
 10
52.0700
 20
33.6550
 30
0.0000
 11
52.7050
 21
34.2900
 31
0.0000
  0
LINE
  8
21
 10
52.7050
 20
34.2900
 30
0.0000
 11
52.0700
 21
34.9250
 31
0.0000
  0
LINE
  8
21
 10
52.0700
 20
34.9250
 30
0.0000
 11
52.0700
 21
36.1950
 31
0.0000
  0
LINE
  8
21
 10
52.0700
 20
36.1950
 30
0.0000
 11
52.7050
 21
36.8300
 31
0.0000
  0
LINE
  8
21
 10
52.7050
 20
36.8300
 30
0.0000
 11
52.0700
 21
37.4650
 31
0.0000
  0
LINE
  8
21
 10
52.0700
 20
37.4650
 30
0.0000
 11
52.0700
 21
38.7350
 31
0.0000
  0
LINE
  8
21
 10
52.0700
 20
38.7350
 30
0.0000
 11
52.7050
 21
39.3700
 31
0.0000
  0
LINE
  8
21
 10
52.7050
 20
39.3700
 30
0.0000
 11
52.0700
 21
40.0050
 31
0.0000
  0
LINE
  8
21
 10
52.0700
 20
40.0050
 30
0.0000
 11
52.0700
 21
41.2750
 31
0.0000
  0
LINE
  8
21
 10
52.0700
 20
41.2750
 30
0.0000
 11
52.7050
 21
41.9100
 31
0.0000
  0
LINE
  8
21
 10
52.7050
 20
34.2900
 30
0.0000
 11
56.5150
 21
34.2900
 31
0.0000
  0
LINE
  8
21
 10
52.7050
 20
36.8300
 30
0.0000
 11
56.5150
 21
36.8300
 31
0.0000
  0
LINE
  8
21
 10
52.7050
 20
39.3700
 30
0.0000
 11
56.5150
 21
39.3700
 31
0.0000
  0
LINE
  8
21
 10
52.7050
 20
41.9100
 30
0.0000
 11
56.5150
 21
41.9100
 31
0.0000
  0
LINE
  8
21
 10
57.1500
 20
40.0050
 30
0.0000
 11
57.1500
 21
41.2750
 31
0.0000
  0
LINE
  8
21
 10
57.1500
 20
37.4650
 30
0.0000
 11
57.1500
 21
38.7350
 31
0.0000
  0
LINE
  8
21
 10
57.1500
 20
34.9250
 30
0.0000
 11
57.1500
 21
36.1950
 31
0.0000
  0
LINE
  8
21
 10
57.1500
 20
32.3850
 30
0.0000
 11
57.1500
 21
33.6550
 31
0.0000
  0
LINE
  8
21
 10
56.5150
 20
41.9100
 30
0.0000
 11
57.1500
 21
42.5450
 31
0.0000
  0
LINE
  8
21
 10
57.1500
 20
43.8150
 30
0.0000
 11
56.5150
 21
44.4500
 31
0.0000
  0
LINE
  8
21
 10
52.7050
 20
41.9100
 30
0.0000
 11
52.0700
 21
42.5450
 31
0.0000
  0
LINE
  8
21
 10
52.0700
 20
42.5450
 30
0.0000
 11
52.0700
 21
43.8150
 31
0.0000
  0
LINE
  8
21
 10
52.0700
 20
43.8150
 30
0.0000
 11
52.7050
 21
44.4500
 31
0.0000
  0
LINE
  8
21
 10
52.7050
 20
44.4500
 30
0.0000
 11
56.5150
 21
44.4500
 31
0.0000
  0
LINE
  8
21
 10
57.1500
 20
42.5450
 30
0.0000
 11
57.1500
 21
43.8150
 31
0.0000
  0
LINE
  8
21
 10
70.4850
 20
31.7500
 30
0.0000
 11
71.1200
 21
32.3850
 31
0.0000
  0
LINE
  8
21
 10
71.1200
 20
33.6550
 30
0.0000
 11
70.4850
 21
34.2900
 31
0.0000
  0
LINE
  8
21
 10
70.4850
 20
34.2900
 30
0.0000
 11
71.1200
 21
34.9250
 31
0.0000
  0
LINE
  8
21
 10
71.1200
 20
36.1950
 30
0.0000
 11
70.4850
 21
36.8300
 31
0.0000
  0
LINE
  8
21
 10
70.4850
 20
36.8300
 30
0.0000
 11
71.1200
 21
37.4650
 31
0.0000
  0
LINE
  8
21
 10
71.1200
 20
38.7350
 30
0.0000
 11
70.4850
 21
39.3700
 31
0.0000
  0
LINE
  8
21
 10
70.4850
 20
39.3700
 30
0.0000
 11
71.1200
 21
40.0050
 31
0.0000
  0
LINE
  8
21
 10
71.1200
 20
41.2750
 30
0.0000
 11
70.4850
 21
41.9100
 31
0.0000
  0
LINE
  8
21
 10
70.4850
 20
31.7500
 30
0.0000
 11
68.5800
 21
31.7500
 31
0.0000
  0
LINE
  8
21
 10
68.5800
 20
31.7500
 30
0.0000
 11
66.6750
 21
31.7500
 31
0.0000
  0
LINE
  8
21
 10
66.6750
 20
31.7500
 30
0.0000
 11
66.0400
 21
32.3850
 31
0.0000
  0
LINE
  8
21
 10
66.0400
 20
32.3850
 30
0.0000
 11
66.0400
 21
33.6550
 31
0.0000
  0
LINE
  8
21
 10
66.0400
 20
33.6550
 30
0.0000
 11
66.6750
 21
34.2900
 31
0.0000
  0
LINE
  8
21
 10
66.6750
 20
34.2900
 30
0.0000
 11
66.0400
 21
34.9250
 31
0.0000
  0
LINE
  8
21
 10
66.0400
 20
34.9250
 30
0.0000
 11
66.0400
 21
36.1950
 31
0.0000
  0
LINE
  8
21
 10
66.0400
 20
36.1950
 30
0.0000
 11
66.6750
 21
36.8300
 31
0.0000
  0
LINE
  8
21
 10
66.6750
 20
36.8300
 30
0.0000
 11
66.0400
 21
37.4650
 31
0.0000
  0
LINE
  8
21
 10
66.0400
 20
37.4650
 30
0.0000
 11
66.0400
 21
38.7350
 31
0.0000
  0
LINE
  8
21
 10
66.0400
 20
38.7350
 30
0.0000
 11
66.6750
 21
39.3700
 31
0.0000
  0
LINE
  8
21
 10
66.6750
 20
39.3700
 30
0.0000
 11
66.0400
 21
40.0050
 31
0.0000
  0
LINE
  8
21
 10
66.0400
 20
40.0050
 30
0.0000
 11
66.0400
 21
41.2750
 31
0.0000
  0
LINE
  8
21
 10
66.0400
 20
41.2750
 30
0.0000
 11
66.6750
 21
41.9100
 31
0.0000
  0
LINE
  8
21
 10
66.6750
 20
34.2900
 30
0.0000
 11
70.4850
 21
34.2900
 31
0.0000
  0
LINE
  8
21
 10
66.6750
 20
36.8300
 30
0.0000
 11
70.4850
 21
36.8300
 31
0.0000
  0
LINE
  8
21
 10
66.6750
 20
39.3700
 30
0.0000
 11
70.4850
 21
39.3700
 31
0.0000
  0
LINE
  8
21
 10
66.6750
 20
41.9100
 30
0.0000
 11
70.4850
 21
41.9100
 31
0.0000
  0
LINE
  8
21
 10
71.1200
 20
40.0050
 30
0.0000
 11
71.1200
 21
41.2750
 31
0.0000
  0
LINE
  8
21
 10
71.1200
 20
37.4650
 30
0.0000
 11
71.1200
 21
38.7350
 31
0.0000
  0
LINE
  8
21
 10
71.1200
 20
34.9250
 30
0.0000
 11
71.1200
 21
36.1950
 31
0.0000
  0
LINE
  8
21
 10
71.1200
 20
32.3850
 30
0.0000
 11
71.1200
 21
33.6550
 31
0.0000
  0
LINE
  8
21
 10
70.4850
 20
41.9100
 30
0.0000
 11
71.1200
 21
42.5450
 31
0.0000
  0
LINE
  8
21
 10
71.1200
 20
43.8150
 30
0.0000
 11
70.4850
 21
44.4500
 31
0.0000
  0
LINE
  8
21
 10
66.6750
 20
41.9100
 30
0.0000
 11
66.0400
 21
42.5450
 31
0.0000
  0
LINE
  8
21
 10
66.0400
 20
42.5450
 30
0.0000
 11
66.0400
 21
43.8150
 31
0.0000
  0
LINE
  8
21
 10
66.0400
 20
43.8150
 30
0.0000
 11
66.6750
 21
44.4500
 31
0.0000
  0
LINE
  8
21
 10
66.6750
 20
44.4500
 30
0.0000
 11
70.4850
 21
44.4500
 31
0.0000
  0
LINE
  8
21
 10
71.1200
 20
42.5450
 30
0.0000
 11
71.1200
 21
43.8150
 31
0.0000
  0
LINE
  8
21
 10
84.4550
 20
31.7500
 30
0.0000
 11
85.0900
 21
32.3850
 31
0.0000
  0
LINE
  8
21
 10
85.0900
 20
33.6550
 30
0.0000
 11
84.4550
 21
34.2900
 31
0.0000
  0
LINE
  8
21
 10
84.4550
 20
34.2900
 30
0.0000
 11
85.0900
 21
34.9250
 31
0.0000
  0
LINE
  8
21
 10
85.0900
 20
36.1950
 30
0.0000
 11
84.4550
 21
36.8300
 31
0.0000
  0
LINE
  8
21
 10
84.4550
 20
36.8300
 30
0.0000
 11
85.0900
 21
37.4650
 31
0.0000
  0
LINE
  8
21
 10
85.0900
 20
38.7350
 30
0.0000
 11
84.4550
 21
39.3700
 31
0.0000
  0
LINE
  8
21
 10
84.4550
 20
39.3700
 30
0.0000
 11
85.0900
 21
40.0050
 31
0.0000
  0
LINE
  8
21
 10
85.0900
 20
41.2750
 30
0.0000
 11
84.4550
 21
41.9100
 31
0.0000
  0
LINE
  8
21
 10
84.4550
 20
31.7500
 30
0.0000
 11
82.5500
 21
31.7500
 31
0.0000
  0
LINE
  8
21
 10
82.5500
 20
31.7500
 30
0.0000
 11
80.6450
 21
31.7500
 31
0.0000
  0
LINE
  8
21
 10
80.6450
 20
31.7500
 30
0.0000
 11
80.0100
 21
32.3850
 31
0.0000
  0
LINE
  8
21
 10
80.0100
 20
32.3850
 30
0.0000
 11
80.0100
 21
33.6550
 31
0.0000
  0
LINE
  8
21
 10
80.0100
 20
33.6550
 30
0.0000
 11
80.6450
 21
34.2900
 31
0.0000
  0
LINE
  8
21
 10
80.6450
 20
34.2900
 30
0.0000
 11
80.0100
 21
34.9250
 31
0.0000
  0
LINE
  8
21
 10
80.0100
 20
34.9250
 30
0.0000
 11
80.0100
 21
36.1950
 31
0.0000
  0
LINE
  8
21
 10
80.0100
 20
36.1950
 30
0.0000
 11
80.6450
 21
36.8300
 31
0.0000
  0
LINE
  8
21
 10
80.6450
 20
36.8300
 30
0.0000
 11
80.0100
 21
37.4650
 31
0.0000
  0
LINE
  8
21
 10
80.0100
 20
37.4650
 30
0.0000
 11
80.0100
 21
38.7350
 31
0.0000
  0
LINE
  8
21
 10
80.0100
 20
38.7350
 30
0.0000
 11
80.6450
 21
39.3700
 31
0.0000
  0
LINE
  8
21
 10
80.6450
 20
39.3700
 30
0.0000
 11
80.0100
 21
40.0050
 31
0.0000
  0
LINE
  8
21
 10
80.0100
 20
40.0050
 30
0.0000
 11
80.0100
 21
41.2750
 31
0.0000
  0
LINE
  8
21
 10
80.0100
 20
41.2750
 30
0.0000
 11
80.6450
 21
41.9100
 31
0.0000
  0
LINE
  8
21
 10
80.6450
 20
34.2900
 30
0.0000
 11
84.4550
 21
34.2900
 31
0.0000
  0
LINE
  8
21
 10
80.6450
 20
36.8300
 30
0.0000
 11
84.4550
 21
36.8300
 31
0.0000
  0
LINE
  8
21
 10
80.6450
 20
39.3700
 30
0.0000
 11
84.4550
 21
39.3700
 31
0.0000
  0
LINE
  8
21
 10
80.6450
 20
41.9100
 30
0.0000
 11
84.4550
 21
41.9100
 31
0.0000
  0
LINE
  8
21
 10
85.0900
 20
40.0050
 30
0.0000
 11
85.0900
 21
41.2750
 31
0.0000
  0
LINE
  8
21
 10
85.0900
 20
37.4650
 30
0.0000
 11
85.0900
 21
38.7350
 31
0.0000
  0
LINE
  8
21
 10
85.0900
 20
34.9250
 30
0.0000
 11
85.0900
 21
36.1950
 31
0.0000
  0
LINE
  8
21
 10
85.0900
 20
32.3850
 30
0.0000
 11
85.0900
 21
33.6550
 31
0.0000
  0
LINE
  8
21
 10
84.4550
 20
41.9100
 30
0.0000
 11
85.0900
 21
42.5450
 31
0.0000
  0
LINE
  8
21
 10
85.0900
 20
43.8150
 30
0.0000
 11
84.4550
 21
44.4500
 31
0.0000
  0
LINE
  8
21
 10
80.6450
 20
41.9100
 30
0.0000
 11
80.0100
 21
42.5450
 31
0.0000
  0
LINE
  8
21
 10
80.0100
 20
42.5450
 30
0.0000
 11
80.0100
 21
43.8150
 31
0.0000
  0
LINE
  8
21
 10
80.0100
 20
43.8150
 30
0.0000
 11
80.6450
 21
44.4500
 31
0.0000
  0
LINE
  8
21
 10
80.6450
 20
44.4500
 30
0.0000
 11
84.4550
 21
44.4500
 31
0.0000
  0
LINE
  8
21
 10
85.0900
 20
42.5450
 30
0.0000
 11
85.0900
 21
43.8150
 31
0.0000
  0
LINE
  8
21
 10
98.4250
 20
31.7500
 30
0.0000
 11
99.0600
 21
32.3850
 31
0.0000
  0
LINE
  8
21
 10
99.0600
 20
33.6550
 30
0.0000
 11
98.4250
 21
34.2900
 31
0.0000
  0
LINE
  8
21
 10
98.4250
 20
34.2900
 30
0.0000
 11
99.0600
 21
34.9250
 31
0.0000
  0
LINE
  8
21
 10
99.0600
 20
36.1950
 30
0.0000
 11
98.4250
 21
36.8300
 31
0.0000
  0
LINE
  8
21
 10
98.4250
 20
36.8300
 30
0.0000
 11
99.0600
 21
37.4650
 31
0.0000
  0
LINE
  8
21
 10
99.0600
 20
38.7350
 30
0.0000
 11
98.4250
 21
39.3700
 31
0.0000
  0
LINE
  8
21
 10
98.4250
 20
39.3700
 30
0.0000
 11
99.0600
 21
40.0050
 31
0.0000
  0
LINE
  8
21
 10
99.0600
 20
41.2750
 30
0.0000
 11
98.4250
 21
41.9100
 31
0.0000
  0
LINE
  8
21
 10
98.4250
 20
31.7500
 30
0.0000
 11
96.5200
 21
31.7500
 31
0.0000
  0
LINE
  8
21
 10
96.5200
 20
31.7500
 30
0.0000
 11
94.6150
 21
31.7500
 31
0.0000
  0
LINE
  8
21
 10
94.6150
 20
31.7500
 30
0.0000
 11
93.9800
 21
32.3850
 31
0.0000
  0
LINE
  8
21
 10
93.9800
 20
32.3850
 30
0.0000
 11
93.9800
 21
33.6550
 31
0.0000
  0
LINE
  8
21
 10
93.9800
 20
33.6550
 30
0.0000
 11
94.6150
 21
34.2900
 31
0.0000
  0
LINE
  8
21
 10
94.6150
 20
34.2900
 30
0.0000
 11
93.9800
 21
34.9250
 31
0.0000
  0
LINE
  8
21
 10
93.9800
 20
34.9250
 30
0.0000
 11
93.9800
 21
36.1950
 31
0.0000
  0
LINE
  8
21
 10
93.9800
 20
36.1950
 30
0.0000
 11
94.6150
 21
36.8300
 31
0.0000
  0
LINE
  8
21
 10
94.6150
 20
36.8300
 30
0.0000
 11
93.9800
 21
37.4650
 31
0.0000
  0
LINE
  8
21
 10
93.9800
 20
37.4650
 30
0.0000
 11
93.9800
 21
38.7350
 31
0.0000
  0
LINE
  8
21
 10
93.9800
 20
38.7350
 30
0.0000
 11
94.6150
 21
39.3700
 31
0.0000
  0
LINE
  8
21
 10
94.6150
 20
39.3700
 30
0.0000
 11
93.9800
 21
40.0050
 31
0.0000
  0
LINE
  8
21
 10
93.9800
 20
40.0050
 30
0.0000
 11
93.9800
 21
41.2750
 31
0.0000
  0
LINE
  8
21
 10
93.9800
 20
41.2750
 30
0.0000
 11
94.6150
 21
41.9100
 31
0.0000
  0
LINE
  8
21
 10
94.6150
 20
34.2900
 30
0.0000
 11
98.4250
 21
34.2900
 31
0.0000
  0
LINE
  8
21
 10
94.6150
 20
36.8300
 30
0.0000
 11
98.4250
 21
36.8300
 31
0.0000
  0
LINE
  8
21
 10
94.6150
 20
39.3700
 30
0.0000
 11
98.4250
 21
39.3700
 31
0.0000
  0
LINE
  8
21
 10
94.6150
 20
41.9100
 30
0.0000
 11
98.4250
 21
41.9100
 31
0.0000
  0
LINE
  8
21
 10
99.0600
 20
40.0050
 30
0.0000
 11
99.0600
 21
41.2750
 31
0.0000
  0
LINE
  8
21
 10
99.0600
 20
37.4650
 30
0.0000
 11
99.0600
 21
38.7350
 31
0.0000
  0
LINE
  8
21
 10
99.0600
 20
34.9250
 30
0.0000
 11
99.0600
 21
36.1950
 31
0.0000
  0
LINE
  8
21
 10
99.0600
 20
32.3850
 30
0.0000
 11
99.0600
 21
33.6550
 31
0.0000
  0
LINE
  8
21
 10
98.4250
 20
41.9100
 30
0.0000
 11
99.0600
 21
42.5450
 31
0.0000
  0
LINE
  8
21
 10
99.0600
 20
43.8150
 30
0.0000
 11
98.4250
 21
44.4500
 31
0.0000
  0
LINE
  8
21
 10
94.6150
 20
41.9100
 30
0.0000
 11
93.9800
 21
42.5450
 31
0.0000
  0
LINE
  8
21
 10
93.9800
 20
42.5450
 30
0.0000
 11
93.9800
 21
43.8150
 31
0.0000
  0
LINE
  8
21
 10
93.9800
 20
43.8150
 30
0.0000
 11
94.6150
 21
44.4500
 31
0.0000
  0
LINE
  8
21
 10
94.6150
 20
44.4500
 30
0.0000
 11
98.4250
 21
44.4500
 31
0.0000
  0
LINE
  8
21
 10
99.0600
 20
42.5450
 30
0.0000
 11
99.0600
 21
43.8150
 31
0.0000
  0
LINE
  8
21
 10
112.3950
 20
31.7500
 30
0.0000
 11
113.0300
 21
32.3850
 31
0.0000
  0
LINE
  8
21
 10
113.0300
 20
33.6550
 30
0.0000
 11
112.3950
 21
34.2900
 31
0.0000
  0
LINE
  8
21
 10
112.3950
 20
34.2900
 30
0.0000
 11
113.0300
 21
34.9250
 31
0.0000
  0
LINE
  8
21
 10
113.0300
 20
36.1950
 30
0.0000
 11
112.3950
 21
36.8300
 31
0.0000
  0
LINE
  8
21
 10
112.3950
 20
36.8300
 30
0.0000
 11
113.0300
 21
37.4650
 31
0.0000
  0
LINE
  8
21
 10
113.0300
 20
38.7350
 30
0.0000
 11
112.3950
 21
39.3700
 31
0.0000
  0
LINE
  8
21
 10
112.3950
 20
39.3700
 30
0.0000
 11
113.0300
 21
40.0050
 31
0.0000
  0
LINE
  8
21
 10
113.0300
 20
41.2750
 30
0.0000
 11
112.3950
 21
41.9100
 31
0.0000
  0
LINE
  8
21
 10
112.3950
 20
31.7500
 30
0.0000
 11
110.4900
 21
31.7500
 31
0.0000
  0
LINE
  8
21
 10
110.4900
 20
31.7500
 30
0.0000
 11
108.5850
 21
31.7500
 31
0.0000
  0
LINE
  8
21
 10
108.5850
 20
31.7500
 30
0.0000
 11
107.9500
 21
32.3850
 31
0.0000
  0
LINE
  8
21
 10
107.9500
 20
32.3850
 30
0.0000
 11
107.9500
 21
33.6550
 31
0.0000
  0
LINE
  8
21
 10
107.9500
 20
33.6550
 30
0.0000
 11
108.5850
 21
34.2900
 31
0.0000
  0
LINE
  8
21
 10
108.5850
 20
34.2900
 30
0.0000
 11
107.9500
 21
34.9250
 31
0.0000
  0
LINE
  8
21
 10
107.9500
 20
34.9250
 30
0.0000
 11
107.9500
 21
36.1950
 31
0.0000
  0
LINE
  8
21
 10
107.9500
 20
36.1950
 30
0.0000
 11
108.5850
 21
36.8300
 31
0.0000
  0
LINE
  8
21
 10
108.5850
 20
36.8300
 30
0.0000
 11
107.9500
 21
37.4650
 31
0.0000
  0
LINE
  8
21
 10
107.9500
 20
37.4650
 30
0.0000
 11
107.9500
 21
38.7350
 31
0.0000
  0
LINE
  8
21
 10
107.9500
 20
38.7350
 30
0.0000
 11
108.5850
 21
39.3700
 31
0.0000
  0
LINE
  8
21
 10
108.5850
 20
39.3700
 30
0.0000
 11
107.9500
 21
40.0050
 31
0.0000
  0
LINE
  8
21
 10
107.9500
 20
40.0050
 30
0.0000
 11
107.9500
 21
41.2750
 31
0.0000
  0
LINE
  8
21
 10
107.9500
 20
41.2750
 30
0.0000
 11
108.5850
 21
41.9100
 31
0.0000
  0
LINE
  8
21
 10
108.5850
 20
34.2900
 30
0.0000
 11
112.3950
 21
34.2900
 31
0.0000
  0
LINE
  8
21
 10
108.5850
 20
36.8300
 30
0.0000
 11
112.3950
 21
36.8300
 31
0.0000
  0
LINE
  8
21
 10
108.5850
 20
39.3700
 30
0.0000
 11
112.3950
 21
39.3700
 31
0.0000
  0
LINE
  8
21
 10
108.5850
 20
41.9100
 30
0.0000
 11
112.3950
 21
41.9100
 31
0.0000
  0
LINE
  8
21
 10
113.0300
 20
40.0050
 30
0.0000
 11
113.0300
 21
41.2750
 31
0.0000
  0
LINE
  8
21
 10
113.0300
 20
37.4650
 30
0.0000
 11
113.0300
 21
38.7350
 31
0.0000
  0
LINE
  8
21
 10
113.0300
 20
34.9250
 30
0.0000
 11
113.0300
 21
36.1950
 31
0.0000
  0
LINE
  8
21
 10
113.0300
 20
32.3850
 30
0.0000
 11
113.0300
 21
33.6550
 31
0.0000
  0
LINE
  8
21
 10
112.3950
 20
41.9100
 30
0.0000
 11
113.0300
 21
42.5450
 31
0.0000
  0
LINE
  8
21
 10
113.0300
 20
43.8150
 30
0.0000
 11
112.3950
 21
44.4500
 31
0.0000
  0
LINE
  8
21
 10
108.5850
 20
41.9100
 30
0.0000
 11
107.9500
 21
42.5450
 31
0.0000
  0
LINE
  8
21
 10
107.9500
 20
42.5450
 30
0.0000
 11
107.9500
 21
43.8150
 31
0.0000
  0
LINE
  8
21
 10
107.9500
 20
43.8150
 30
0.0000
 11
108.5850
 21
44.4500
 31
0.0000
  0
LINE
  8
21
 10
108.5850
 20
44.4500
 30
0.0000
 11
112.3950
 21
44.4500
 31
0.0000
  0
LINE
  8
21
 10
113.0300
 20
42.5450
 30
0.0000
 11
113.0300
 21
43.8150
 31
0.0000
  0
LINE
  8
21
 10
12.7000
 20
27.9400
 30
0.0000
 11
12.7000
 21
31.7500
 31
0.0000
  0
LINE
  8
21
 10
26.6700
 20
27.9400
 30
0.0000
 11
26.6700
 21
31.7500
 31
0.0000
  0
LINE
  8
22
 10
12.7000
 20
13.3350
 30
0.0000
 11
12.7000
 21
17.1450
 31
0.0000
  0
LINE
  8
21
 10
2.5400
 20
20.3200
 30
0.0000
 11
2.5400
 21
21.5900
 31
0.0000
  0
LINE
  8
21
 10
2.5400
 20
21.5900
 30
0.0000
 11
3.1750
 21
22.2250
 31
0.0000
  0
LINE
  8
21
 10
4.4450
 20
22.2250
 30
0.0000
 11
5.0800
 21
21.5900
 31
0.0000
  0
LINE
  8
21
 10
3.1750
 20
22.2250
 30
0.0000
 11
2.5400
 21
22.8600
 31
0.0000
  0
LINE
  8
21
 10
2.5400
 20
22.8600
 30
0.0000
 11
2.5400
 21
24.1300
 31
0.0000
  0
LINE
  8
21
 10
2.5400
 20
24.1300
 30
0.0000
 11
3.1750
 21
24.7650
 31
0.0000
  0
LINE
  8
21
 10
4.4450
 20
24.7650
 30
0.0000
 11
5.0800
 21
24.1300
 31
0.0000
  0
LINE
  8
21
 10
5.0800
 20
24.1300
 30
0.0000
 11
5.0800
 21
22.8600
 31
0.0000
  0
LINE
  8
21
 10
5.0800
 20
22.8600
 30
0.0000
 11
4.4450
 21
22.2250
 31
0.0000
  0
LINE
  8
21
 10
3.1750
 20
19.6850
 30
0.0000
 11
4.4450
 21
19.6850
 31
0.0000
  0
LINE
  8
21
 10
2.5400
 20
20.3200
 30
0.0000
 11
3.1750
 21
19.6850
 31
0.0000
  0
LINE
  8
21
 10
4.4450
 20
19.6850
 30
0.0000
 11
5.0800
 21
20.3200
 31
0.0000
  0
LINE
  8
21
 10
5.0800
 20
21.5900
 30
0.0000
 11
5.0800
 21
20.3200
 31
0.0000
  0
LINE
  8
21
 10
3.1750
 20
24.7650
 30
0.0000
 11
4.4450
 21
24.7650
 31
0.0000
  0
LINE
  8
21
 10
3.1750
 20
10.7950
 30
0.0000
 11
2.5400
 21
11.4300
 31
0.0000
  0
LINE
  8
21
 10
2.5400
 20
11.4300
 30
0.0000
 11
2.5400
 21
12.7000
 31
0.0000
  0
LINE
  8
21
 10
2.5400
 20
12.7000
 30
0.0000
 11
3.1750
 21
13.3350
 31
0.0000
  0
LINE
  8
21
 10
4.4450
 20
13.3350
 30
0.0000
 11
5.0800
 21
12.7000
 31
0.0000
  0
LINE
  8
21
 10
5.0800
 20
12.7000
 30
0.0000
 11
5.0800
 21
11.4300
 31
0.0000
  0
LINE
  8
21
 10
5.0800
 20
11.4300
 30
0.0000
 11
4.4450
 21
10.7950
 31
0.0000
  0
LINE
  8
21
 10
2.5400
 20
6.3500
 30
0.0000
 11
2.5400
 21
7.6200
 31
0.0000
  0
LINE
  8
21
 10
2.5400
 20
7.6200
 30
0.0000
 11
3.1750
 21
8.2550
 31
0.0000
  0
LINE
  8
21
 10
4.4450
 20
8.2550
 30
0.0000
 11
5.0800
 21
7.6200
 31
0.0000
  0
LINE
  8
21
 10
3.1750
 20
8.2550
 30
0.0000
 11
2.5400
 21
8.8900
 31
0.0000
  0
LINE
  8
21
 10
2.5400
 20
8.8900
 30
0.0000
 11
2.5400
 21
10.1600
 31
0.0000
  0
LINE
  8
21
 10
2.5400
 20
10.1600
 30
0.0000
 11
3.1750
 21
10.7950
 31
0.0000
  0
LINE
  8
21
 10
4.4450
 20
10.7950
 30
0.0000
 11
5.0800
 21
10.1600
 31
0.0000
  0
LINE
  8
21
 10
5.0800
 20
10.1600
 30
0.0000
 11
5.0800
 21
8.8900
 31
0.0000
  0
LINE
  8
21
 10
5.0800
 20
8.8900
 30
0.0000
 11
4.4450
 21
8.2550
 31
0.0000
  0
LINE
  8
21
 10
3.1750
 20
5.7150
 30
0.0000
 11
4.4450
 21
5.7150
 31
0.0000
  0
LINE
  8
21
 10
2.5400
 20
6.3500
 30
0.0000
 11
3.1750
 21
5.7150
 31
0.0000
  0
LINE
  8
21
 10
4.4450
 20
5.7150
 30
0.0000
 11
5.0800
 21
6.3500
 31
0.0000
  0
LINE
  8
21
 10
5.0800
 20
7.6200
 30
0.0000
 11
5.0800
 21
6.3500
 31
0.0000
  0
LINE
  8
21
 10
3.1750
 20
13.3350
 30
0.0000
 11
4.4450
 21
13.3350
 31
0.0000
  0
LINE
  8
21
 10
40.6400
 20
27.9400
 30
0.0000
 11
40.6400
 21
31.7500
 31
0.0000
  0
LINE
  8
21
 10
54.6100
 20
27.9400
 30
0.0000
 11
54.6100
 21
31.7500
 31
0.0000
  0
LINE
  8
21
 10
68.5800
 20
27.9400
 30
0.0000
 11
68.5800
 21
31.7500
 31
0.0000
  0
LINE
  8
21
 10
82.5500
 20
27.9400
 30
0.0000
 11
82.5500
 21
31.7500
 31
0.0000
  0
LINE
  8
21
 10
96.5200
 20
27.9400
 30
0.0000
 11
96.5200
 21
31.7500
 31
0.0000
  0
LINE
  8
21
 10
110.4900
 20
27.9400
 30
0.0000
 11
110.4900
 21
31.7500
 31
0.0000
  0
LINE
  8
21
 10
40.0050
 20
3.1750
 30
0.0000
 11
39.3700
 21
2.5400
 31
0.0000
  0
LINE
  8
21
 10
39.3700
 20
2.5400
 30
0.0000
 11
38.1000
 21
2.5400
 31
0.0000
  0
LINE
  8
21
 10
38.1000
 20
2.5400
 30
0.0000
 11
37.4650
 21
3.1750
 31
0.0000
  0
LINE
  8
21
 10
37.4650
 20
4.4450
 30
0.0000
 11
38.1000
 21
5.0800
 31
0.0000
  0
LINE
  8
21
 10
38.1000
 20
5.0800
 30
0.0000
 11
39.3700
 21
5.0800
 31
0.0000
  0
LINE
  8
21
 10
39.3700
 20
5.0800
 30
0.0000
 11
40.0050
 21
4.4450
 31
0.0000
  0
LINE
  8
21
 10
44.4500
 20
2.5400
 30
0.0000
 11
43.1800
 21
2.5400
 31
0.0000
  0
LINE
  8
21
 10
43.1800
 20
2.5400
 30
0.0000
 11
42.5450
 21
3.1750
 31
0.0000
  0
LINE
  8
21
 10
42.5450
 20
4.4450
 30
0.0000
 11
43.1800
 21
5.0800
 31
0.0000
  0
LINE
  8
21
 10
42.5450
 20
3.1750
 30
0.0000
 11
41.9100
 21
2.5400
 31
0.0000
  0
LINE
  8
21
 10
41.9100
 20
2.5400
 30
0.0000
 11
40.6400
 21
2.5400
 31
0.0000
  0
LINE
  8
21
 10
40.6400
 20
2.5400
 30
0.0000
 11
40.0050
 21
3.1750
 31
0.0000
  0
LINE
  8
21
 10
40.0050
 20
4.4450
 30
0.0000
 11
40.6400
 21
5.0800
 31
0.0000
  0
LINE
  8
21
 10
40.6400
 20
5.0800
 30
0.0000
 11
41.9100
 21
5.0800
 31
0.0000
  0
LINE
  8
21
 10
41.9100
 20
5.0800
 30
0.0000
 11
42.5450
 21
4.4450
 31
0.0000
  0
LINE
  8
21
 10
45.0850
 20
3.1750
 30
0.0000
 11
45.0850
 21
4.4450
 31
0.0000
  0
LINE
  8
21
 10
44.4500
 20
2.5400
 30
0.0000
 11
45.0850
 21
3.1750
 31
0.0000
  0
LINE
  8
21
 10
45.0850
 20
4.4450
 30
0.0000
 11
44.4500
 21
5.0800
 31
0.0000
  0
LINE
  8
21
 10
43.1800
 20
5.0800
 30
0.0000
 11
44.4500
 21
5.0800
 31
0.0000
  0
LINE
  8
21
 10
37.4650
 20
3.1750
 30
0.0000
 11
37.4650
 21
4.4450
 31
0.0000
  0
LINE
  8
21
 10
0.0000
 20
0.0000
 30
0.0000
 11
0.0000
 21
50.8669
 31
0.0000
  0
LINE
  8
21
 10
0.0000
 20
50.8669
 30
0.0000
 11
124.4400
 21
50.8669
 31
0.0000
  0
LINE
  8
21
 10
124.4400
 20
50.8669
 30
0.0000
 11
124.4400
 21
0.0000
 31
0.0000
  0
LINE
  8
21
 10
124.4400
 20
0.0000
 30
0.0000
 11
0.0000
 21
0.0000
 31
0.0000
  0
LINE
  8
21
 10
8.9202
 20
2.2487
 30
0.0000
 11
8.2931
 21
2.2487
 31
0.0000
  0
LINE
  8
21
 10
8.2931
 20
2.2487
 30
0.0000
 11
8.2931
 21
1.3081
 31
0.0000
  0
LINE
  8
21
 10
8.2931
 20
1.3081
 30
0.0000
 11
8.9202
 21
1.3081
 31
0.0000
  0
LINE
  8
21
 10
8.2931
 20
1.7784
 30
0.0000
 11
8.6066
 21
1.7784
 31
0.0000
  0
LINE
  8
21
 10
16.7128
 20
1.3081
 30
0.0000
 11
16.7128
 21
1.9352
 31
0.0000
  0
LINE
  8
21
 10
16.7128
 20
1.9352
 30
0.0000
 11
17.0263
 21
2.2487
 31
0.0000
  0
LINE
  8
21
 10
17.0263
 20
2.2487
 30
0.0000
 11
17.3398
 21
1.9352
 31
0.0000
  0
LINE
  8
21
 10
17.3398
 20
1.9352
 30
0.0000
 11
17.3398
 21
1.3081
 31
0.0000
  0
LINE
  8
21
 10
16.7128
 20
1.7784
 30
0.0000
 11
17.3398
 21
1.7784
 31
0.0000
  0
LINE
  8
21
 10
8.2931
 20
3.8481
 30
0.0000
 11
8.2931
 21
4.7887
 31
0.0000
  0
LINE
  8
21
 10
8.2931
 20
4.7887
 30
0.0000
 11
8.9202
 21
4.7887
 31
0.0000
  0
LINE
  8
21
 10
8.2931
 20
4.3184
 30
0.0000
 11
8.6066
 21
4.3184
 31
0.0000
  0
LINE
  8
21
 10
16.7128
 20
3.8481
 30
0.0000
 11
16.7128
 21
4.7887
 31
0.0000
  0
LINE
  8
21
 10
16.7128
 20
4.7887
 30
0.0000
 11
17.1831
 21
4.7887
 31
0.0000
  0
LINE
  8
21
 10
17.1831
 20
4.7887
 30
0.0000
 11
17.3398
 21
4.6319
 31
0.0000
  0
LINE
  8
21
 10
17.3398
 20
4.6319
 30
0.0000
 11
17.3398
 21
4.4752
 31
0.0000
  0
LINE
  8
21
 10
17.3398
 20
4.4752
 30
0.0000
 11
17.1831
 21
4.3184
 31
0.0000
  0
LINE
  8
21
 10
17.1831
 20
4.3184
 30
0.0000
 11
17.3398
 21
4.1616
 31
0.0000
  0
LINE
  8
21
 10
17.3398
 20
4.1616
 30
0.0000
 11
17.3398
 21
4.0049
 31
0.0000
  0
LINE
  8
21
 10
17.3398
 20
4.0049
 30
0.0000
 11
17.1831
 21
3.8481
 31
0.0000
  0
LINE
  8
21
 10
17.1831
 20
3.8481
 30
0.0000
 11
16.7128
 21
3.8481
 31
0.0000
  0
LINE
  8
21
 10
16.7128
 20
4.3184
 30
0.0000
 11
17.1831
 21
4.3184
 31
0.0000
  0
LINE
  8
21
 10
8.9202
 20
7.1719
 30
0.0000
 11
8.7634
 21
7.3287
 31
0.0000
  0
LINE
  8
21
 10
8.7634
 20
7.3287
 30
0.0000
 11
8.4499
 21
7.3287
 31
0.0000
  0
LINE
  8
21
 10
8.4499
 20
7.3287
 30
0.0000
 11
8.2931
 21
7.1719
 31
0.0000
  0
LINE
  8
21
 10
8.2931
 20
7.1719
 30
0.0000
 11
8.2931
 21
6.5449
 31
0.0000
  0
LINE
  8
21
 10
8.2931
 20
6.5449
 30
0.0000
 11
8.4499
 21
6.3881
 31
0.0000
  0
LINE
  8
21
 10
8.4499
 20
6.3881
 30
0.0000
 11
8.7634
 21
6.3881
 31
0.0000
  0
LINE
  8
21
 10
8.7634
 20
6.3881
 30
0.0000
 11
8.9202
 21
6.5449
 31
0.0000
  0
LINE
  8
21
 10
8.9202
 20
6.5449
 30
0.0000
 11
8.9202
 21
6.8584
 31
0.0000
  0
LINE
  8
21
 10
8.9202
 20
6.8584
 30
0.0000
 11
8.6066
 21
6.8584
 31
0.0000
  0
LINE
  8
21
 10
17.3398
 20
7.1719
 30
0.0000
 11
17.1831
 21
7.3287
 31
0.0000
  0
LINE
  8
21
 10
17.1831
 20
7.3287
 30
0.0000
 11
16.8695
 21
7.3287
 31
0.0000
  0
LINE
  8
21
 10
16.8695
 20
7.3287
 30
0.0000
 11
16.7128
 21
7.1719
 31
0.0000
  0
LINE
  8
21
 10
16.7128
 20
7.1719
 30
0.0000
 11
16.7128
 21
6.5449
 31
0.0000
  0
LINE
  8
21
 10
16.7128
 20
6.5449
 30
0.0000
 11
16.8695
 21
6.3881
 31
0.0000
  0
LINE
  8
21
 10
16.8695
 20
6.3881
 30
0.0000
 11
17.1831
 21
6.3881
 31
0.0000
  0
LINE
  8
21
 10
17.1831
 20
6.3881
 30
0.0000
 11
17.3398
 21
6.5449
 31
0.0000
  0
LINE
  8
21
 10
8.2931
 20
8.9281
 30
0.0000
 11
8.2931
 21
9.8687
 31
0.0000
  0
LINE
  8
21
 10
8.2931
 20
9.3984
 30
0.0000
 11
8.9202
 21
9.3984
 31
0.0000
  0
LINE
  8
21
 10
8.9202
 20
9.8687
 30
0.0000
 11
8.9202
 21
8.9281
 31
0.0000
  0
LINE
  8
21
 10
16.7128
 20
9.8687
 30
0.0000
 11
16.7128
 21
8.9281
 31
0.0000
  0
LINE
  8
21
 10
16.7128
 20
8.9281
 30
0.0000
 11
17.1831
 21
8.9281
 31
0.0000
  0
LINE
  8
21
 10
17.1831
 20
8.9281
 30
0.0000
 11
17.3398
 21
9.0849
 31
0.0000
  0
LINE
  8
21
 10
17.3398
 20
9.0849
 30
0.0000
 11
17.3398
 21
9.7119
 31
0.0000
  0
LINE
  8
21
 10
17.3398
 20
9.7119
 30
0.0000
 11
17.1831
 21
9.8687
 31
0.0000
  0
LINE
  8
21
 10
17.1831
 20
9.8687
 30
0.0000
 11
16.7128
 21
9.8687
 31
0.0000
  0
LINE
  8
21
 10
7.0152
 20
12.2519
 30
0.0000
 11
6.8584
 21
12.4087
 31
0.0000
  0
LINE
  8
21
 10
6.8584
 20
12.4087
 30
0.0000
 11
6.5449
 21
12.4087
 31
0.0000
  0
LINE
  8
21
 10
6.5449
 20
12.4087
 30
0.0000
 11
6.3881
 21
12.2519
 31
0.0000
  0
LINE
  8
21
 10
6.3881
 20
12.2519
 30
0.0000
 11
6.3881
 21
11.6249
 31
0.0000
  0
LINE
  8
21
 10
6.3881
 20
11.6249
 30
0.0000
 11
6.5449
 21
11.4681
 31
0.0000
  0
LINE
  8
21
 10
6.5449
 20
11.4681
 30
0.0000
 11
6.8584
 21
11.4681
 31
0.0000
  0
LINE
  8
21
 10
6.8584
 20
11.4681
 30
0.0000
 11
7.0152
 21
11.6249
 31
0.0000
  0
LINE
  8
21
 10
7.0152
 20
11.6249
 30
0.0000
 11
7.0152
 21
11.9384
 31
0.0000
  0
LINE
  8
21
 10
7.0152
 20
11.9384
 30
0.0000
 11
6.7016
 21
11.9384
 31
0.0000
  0
LINE
  8
21
 10
7.3236
 20
11.4681
 30
0.0000
 11
7.3236
 21
12.4087
 31
0.0000
  0
LINE
  8
21
 10
7.3236
 20
12.4087
 30
0.0000
 11
7.9507
 21
11.4681
 31
0.0000
  0
LINE
  8
21
 10
7.9507
 20
11.4681
 30
0.0000
 11
7.9507
 21
12.4087
 31
0.0000
  0
LINE
  8
21
 10
8.2591
 20
12.4087
 30
0.0000
 11
8.2591
 21
11.4681
 31
0.0000
  0
LINE
  8
21
 10
8.2591
 20
11.4681
 30
0.0000
 11
8.7294
 21
11.4681
 31
0.0000
  0
LINE
  8
21
 10
8.7294
 20
11.4681
 30
0.0000
 11
8.8862
 21
11.6249
 31
0.0000
  0
LINE
  8
21
 10
8.8862
 20
11.6249
 30
0.0000
 11
8.8862
 21
12.2519
 31
0.0000
  0
LINE
  8
21
 10
8.8862
 20
12.2519
 30
0.0000
 11
8.7294
 21
12.4087
 31
0.0000
  0
LINE
  8
21
 10
8.7294
 20
12.4087
 30
0.0000
 11
8.2591
 21
12.4087
 31
0.0000
  0
LINE
  8
21
 10
16.6788
 20
12.4087
 30
0.0000
 11
16.6788
 21
11.7816
 31
0.0000
  0
LINE
  8
21
 10
16.6788
 20
11.7816
 30
0.0000
 11
16.9923
 21
11.4681
 31
0.0000
  0
LINE
  8
21
 10
16.9923
 20
11.4681
 30
0.0000
 11
17.3059
 21
11.7816
 31
0.0000
  0
LINE
  8
21
 10
17.3059
 20
11.7816
 30
0.0000
 11
17.3059
 21
12.4087
 31
0.0000
  0
LINE
  8
21
 10
18.2414
 20
12.2519
 30
0.0000
 11
18.0846
 21
12.4087
 31
0.0000
  0
LINE
  8
21
 10
18.0846
 20
12.4087
 30
0.0000
 11
17.7711
 21
12.4087
 31
0.0000
  0
LINE
  8
21
 10
17.7711
 20
12.4087
 30
0.0000
 11
17.6143
 21
12.2519
 31
0.0000
  0
LINE
  8
21
 10
17.6143
 20
12.2519
 30
0.0000
 11
17.6143
 21
11.6249
 31
0.0000
  0
LINE
  8
21
 10
17.6143
 20
11.6249
 30
0.0000
 11
17.7711
 21
11.4681
 31
0.0000
  0
LINE
  8
21
 10
17.7711
 20
11.4681
 30
0.0000
 11
18.0846
 21
11.4681
 31
0.0000
  0
LINE
  8
21
 10
18.0846
 20
11.4681
 30
0.0000
 11
18.2414
 21
11.6249
 31
0.0000
  0
LINE
  8
21
 10
19.1769
 20
12.2519
 30
0.0000
 11
19.0201
 21
12.4087
 31
0.0000
  0
LINE
  8
21
 10
19.0201
 20
12.4087
 30
0.0000
 11
18.7066
 21
12.4087
 31
0.0000
  0
LINE
  8
21
 10
18.7066
 20
12.4087
 30
0.0000
 11
18.5498
 21
12.2519
 31
0.0000
  0
LINE
  8
21
 10
18.5498
 20
12.2519
 30
0.0000
 11
18.5498
 21
11.6249
 31
0.0000
  0
LINE
  8
21
 10
18.5498
 20
11.6249
 30
0.0000
 11
18.7066
 21
11.4681
 31
0.0000
  0
LINE
  8
21
 10
18.7066
 20
11.4681
 30
0.0000
 11
19.0201
 21
11.4681
 31
0.0000
  0
LINE
  8
21
 10
19.0201
 20
11.4681
 30
0.0000
 11
19.1769
 21
11.6249
 31
0.0000
  0
LINE
  8
21
 10
8.9202
 20
33.3637
 30
0.0000
 11
8.2931
 21
33.3637
 31
0.0000
  0
LINE
  8
21
 10
8.2931
 20
33.3637
 30
0.0000
 11
8.2931
 21
32.4231
 31
0.0000
  0
LINE
  8
21
 10
8.2931
 20
32.4231
 30
0.0000
 11
8.9202
 21
32.4231
 31
0.0000
  0
LINE
  8
21
 10
8.2931
 20
32.8934
 30
0.0000
 11
8.6066
 21
32.8934
 31
0.0000
  0
LINE
  8
21
 10
16.7128
 20
32.4231
 30
0.0000
 11
16.7128
 21
33.0502
 31
0.0000
  0
LINE
  8
21
 10
16.7128
 20
33.0502
 30
0.0000
 11
17.0263
 21
33.3637
 31
0.0000
  0
LINE
  8
21
 10
17.0263
 20
33.3637
 30
0.0000
 11
17.3398
 21
33.0502
 31
0.0000
  0
LINE
  8
21
 10
17.3398
 20
33.0502
 30
0.0000
 11
17.3398
 21
32.4231
 31
0.0000
  0
LINE
  8
21
 10
16.7128
 20
32.8934
 30
0.0000
 11
17.3398
 21
32.8934
 31
0.0000
  0
LINE
  8
21
 10
8.2931
 20
34.9631
 30
0.0000
 11
8.2931
 21
35.9037
 31
0.0000
  0
LINE
  8
21
 10
8.2931
 20
35.9037
 30
0.0000
 11
8.9202
 21
35.9037
 31
0.0000
  0
LINE
  8
21
 10
8.2931
 20
35.4334
 30
0.0000
 11
8.6066
 21
35.4334
 31
0.0000
  0
LINE
  8
21
 10
16.7128
 20
34.9631
 30
0.0000
 11
16.7128
 21
35.9037
 31
0.0000
  0
LINE
  8
21
 10
16.7128
 20
35.9037
 30
0.0000
 11
17.1831
 21
35.9037
 31
0.0000
  0
LINE
  8
21
 10
17.1831
 20
35.9037
 30
0.0000
 11
17.3398
 21
35.7469
 31
0.0000
  0
LINE
  8
21
 10
17.3398
 20
35.7469
 30
0.0000
 11
17.3398
 21
35.5902
 31
0.0000
  0
LINE
  8
21
 10
17.3398
 20
35.5902
 30
0.0000
 11
17.1831
 21
35.4334
 31
0.0000
  0
LINE
  8
21
 10
17.1831
 20
35.4334
 30
0.0000
 11
17.3398
 21
35.2766
 31
0.0000
  0
LINE
  8
21
 10
17.3398
 20
35.2766
 30
0.0000
 11
17.3398
 21
35.1199
 31
0.0000
  0
LINE
  8
21
 10
17.3398
 20
35.1199
 30
0.0000
 11
17.1831
 21
34.9631
 31
0.0000
  0
LINE
  8
21
 10
17.1831
 20
34.9631
 30
0.0000
 11
16.7128
 21
34.9631
 31
0.0000
  0
LINE
  8
21
 10
16.7128
 20
35.4334
 30
0.0000
 11
17.1831
 21
35.4334
 31
0.0000
  0
LINE
  8
21
 10
8.9202
 20
38.2869
 30
0.0000
 11
8.7634
 21
38.4437
 31
0.0000
  0
LINE
  8
21
 10
8.7634
 20
38.4437
 30
0.0000
 11
8.4499
 21
38.4437
 31
0.0000
  0
LINE
  8
21
 10
8.4499
 20
38.4437
 30
0.0000
 11
8.2931
 21
38.2869
 31
0.0000
  0
LINE
  8
21
 10
8.2931
 20
38.2869
 30
0.0000
 11
8.2931
 21
37.6599
 31
0.0000
  0
LINE
  8
21
 10
8.2931
 20
37.6599
 30
0.0000
 11
8.4499
 21
37.5031
 31
0.0000
  0
LINE
  8
21
 10
8.4499
 20
37.5031
 30
0.0000
 11
8.7634
 21
37.5031
 31
0.0000
  0
LINE
  8
21
 10
8.7634
 20
37.5031
 30
0.0000
 11
8.9202
 21
37.6599
 31
0.0000
  0
LINE
  8
21
 10
8.9202
 20
37.6599
 30
0.0000
 11
8.9202
 21
37.9734
 31
0.0000
  0
LINE
  8
21
 10
8.9202
 20
37.9734
 30
0.0000
 11
8.6066
 21
37.9734
 31
0.0000
  0
LINE
  8
21
 10
17.3398
 20
38.2869
 30
0.0000
 11
17.1831
 21
38.4437
 31
0.0000
  0
LINE
  8
21
 10
17.1831
 20
38.4437
 30
0.0000
 11
16.8695
 21
38.4437
 31
0.0000
  0
LINE
  8
21
 10
16.8695
 20
38.4437
 30
0.0000
 11
16.7128
 21
38.2869
 31
0.0000
  0
LINE
  8
21
 10
16.7128
 20
38.2869
 30
0.0000
 11
16.7128
 21
37.6599
 31
0.0000
  0
LINE
  8
21
 10
16.7128
 20
37.6599
 30
0.0000
 11
16.8695
 21
37.5031
 31
0.0000
  0
LINE
  8
21
 10
16.8695
 20
37.5031
 30
0.0000
 11
17.1831
 21
37.5031
 31
0.0000
  0
LINE
  8
21
 10
17.1831
 20
37.5031
 30
0.0000
 11
17.3398
 21
37.6599
 31
0.0000
  0
LINE
  8
21
 10
8.2931
 20
40.0431
 30
0.0000
 11
8.2931
 21
40.9837
 31
0.0000
  0
LINE
  8
21
 10
8.2931
 20
40.5134
 30
0.0000
 11
8.9202
 21
40.5134
 31
0.0000
  0
LINE
  8
21
 10
8.9202
 20
40.9837
 30
0.0000
 11
8.9202
 21
40.0431
 31
0.0000
  0
LINE
  8
21
 10
16.7128
 20
40.9837
 30
0.0000
 11
16.7128
 21
40.0431
 31
0.0000
  0
LINE
  8
21
 10
16.7128
 20
40.0431
 30
0.0000
 11
17.1831
 21
40.0431
 31
0.0000
  0
LINE
  8
21
 10
17.1831
 20
40.0431
 30
0.0000
 11
17.3398
 21
40.1999
 31
0.0000
  0
LINE
  8
21
 10
17.3398
 20
40.1999
 30
0.0000
 11
17.3398
 21
40.8269
 31
0.0000
  0
LINE
  8
21
 10
17.3398
 20
40.8269
 30
0.0000
 11
17.1831
 21
40.9837
 31
0.0000
  0
LINE
  8
21
 10
17.1831
 20
40.9837
 30
0.0000
 11
16.7128
 21
40.9837
 31
0.0000
  0
LINE
  8
21
 10
7.0152
 20
43.3669
 30
0.0000
 11
6.8584
 21
43.5237
 31
0.0000
  0
LINE
  8
21
 10
6.8584
 20
43.5237
 30
0.0000
 11
6.5449
 21
43.5237
 31
0.0000
  0
LINE
  8
21
 10
6.5449
 20
43.5237
 30
0.0000
 11
6.3881
 21
43.3669
 31
0.0000
  0
LINE
  8
21
 10
6.3881
 20
43.3669
 30
0.0000
 11
6.3881
 21
42.7399
 31
0.0000
  0
LINE
  8
21
 10
6.3881
 20
42.7399
 30
0.0000
 11
6.5449
 21
42.5831
 31
0.0000
  0
LINE
  8
21
 10
6.5449
 20
42.5831
 30
0.0000
 11
6.8584
 21
42.5831
 31
0.0000
  0
LINE
  8
21
 10
6.8584
 20
42.5831
 30
0.0000
 11
7.0152
 21
42.7399
 31
0.0000
  0
LINE
  8
21
 10
7.0152
 20
42.7399
 30
0.0000
 11
7.0152
 21
43.0534
 31
0.0000
  0
LINE
  8
21
 10
7.0152
 20
43.0534
 30
0.0000
 11
6.7016
 21
43.0534
 31
0.0000
  0
LINE
  8
21
 10
7.3236
 20
42.5831
 30
0.0000
 11
7.3236
 21
43.5237
 31
0.0000
  0
LINE
  8
21
 10
7.3236
 20
43.5237
 30
0.0000
 11
7.9507
 21
42.5831
 31
0.0000
  0
LINE
  8
21
 10
7.9507
 20
42.5831
 30
0.0000
 11
7.9507
 21
43.5237
 31
0.0000
  0
LINE
  8
21
 10
8.2591
 20
43.5237
 30
0.0000
 11
8.2591
 21
42.5831
 31
0.0000
  0
LINE
  8
21
 10
8.2591
 20
42.5831
 30
0.0000
 11
8.7294
 21
42.5831
 31
0.0000
  0
LINE
  8
21
 10
8.7294
 20
42.5831
 30
0.0000
 11
8.8862
 21
42.7399
 31
0.0000
  0
LINE
  8
21
 10
8.8862
 20
42.7399
 30
0.0000
 11
8.8862
 21
43.3669
 31
0.0000
  0
LINE
  8
21
 10
8.8862
 20
43.3669
 30
0.0000
 11
8.7294
 21
43.5237
 31
0.0000
  0
LINE
  8
21
 10
8.7294
 20
43.5237
 30
0.0000
 11
8.2591
 21
43.5237
 31
0.0000
  0
LINE
  8
21
 10
16.6788
 20
43.5237
 30
0.0000
 11
16.6788
 21
42.8966
 31
0.0000
  0
LINE
  8
21
 10
16.6788
 20
42.8966
 30
0.0000
 11
16.9923
 21
42.5831
 31
0.0000
  0
LINE
  8
21
 10
16.9923
 20
42.5831
 30
0.0000
 11
17.3059
 21
42.8966
 31
0.0000
  0
LINE
  8
21
 10
17.3059
 20
42.8966
 30
0.0000
 11
17.3059
 21
43.5237
 31
0.0000
  0
LINE
  8
21
 10
18.2414
 20
43.3669
 30
0.0000
 11
18.0846
 21
43.5237
 31
0.0000
  0
LINE
  8
21
 10
18.0846
 20
43.5237
 30
0.0000
 11
17.7711
 21
43.5237
 31
0.0000
  0
LINE
  8
21
 10
17.7711
 20
43.5237
 30
0.0000
 11
17.6143
 21
43.3669
 31
0.0000
  0
LINE
  8
21
 10
17.6143
 20
43.3669
 30
0.0000
 11
17.6143
 21
42.7399
 31
0.0000
  0
LINE
  8
21
 10
17.6143
 20
42.7399
 30
0.0000
 11
17.7711
 21
42.5831
 31
0.0000
  0
LINE
  8
21
 10
17.7711
 20
42.5831
 30
0.0000
 11
18.0846
 21
42.5831
 31
0.0000
  0
LINE
  8
21
 10
18.0846
 20
42.5831
 30
0.0000
 11
18.2414
 21
42.7399
 31
0.0000
  0
LINE
  8
21
 10
19.1769
 20
43.3669
 30
0.0000
 11
19.0201
 21
43.5237
 31
0.0000
  0
LINE
  8
21
 10
19.0201
 20
43.5237
 30
0.0000
 11
18.7066
 21
43.5237
 31
0.0000
  0
LINE
  8
21
 10
18.7066
 20
43.5237
 30
0.0000
 11
18.5498
 21
43.3669
 31
0.0000
  0
LINE
  8
21
 10
18.5498
 20
43.3669
 30
0.0000
 11
18.5498
 21
42.7399
 31
0.0000
  0
LINE
  8
21
 10
18.5498
 20
42.7399
 30
0.0000
 11
18.7066
 21
42.5831
 31
0.0000
  0
LINE
  8
21
 10
18.7066
 20
42.5831
 30
0.0000
 11
19.0201
 21
42.5831
 31
0.0000
  0
LINE
  8
21
 10
19.0201
 20
42.5831
 30
0.0000
 11
19.1769
 21
42.7399
 31
0.0000
  0
LINE
  8
21
 10
22.8902
 20
33.3637
 30
0.0000
 11
22.2631
 21
33.3637
 31
0.0000
  0
LINE
  8
21
 10
22.2631
 20
33.3637
 30
0.0000
 11
22.2631
 21
32.4231
 31
0.0000
  0
LINE
  8
21
 10
22.2631
 20
32.4231
 30
0.0000
 11
22.8902
 21
32.4231
 31
0.0000
  0
LINE
  8
21
 10
22.2631
 20
32.8934
 30
0.0000
 11
22.5766
 21
32.8934
 31
0.0000
  0
LINE
  8
21
 10
30.6828
 20
32.4231
 30
0.0000
 11
30.6828
 21
33.0502
 31
0.0000
  0
LINE
  8
21
 10
30.6828
 20
33.0502
 30
0.0000
 11
30.9963
 21
33.3637
 31
0.0000
  0
LINE
  8
21
 10
30.9963
 20
33.3637
 30
0.0000
 11
31.3098
 21
33.0502
 31
0.0000
  0
LINE
  8
21
 10
31.3098
 20
33.0502
 30
0.0000
 11
31.3098
 21
32.4231
 31
0.0000
  0
LINE
  8
21
 10
30.6828
 20
32.8934
 30
0.0000
 11
31.3098
 21
32.8934
 31
0.0000
  0
LINE
  8
21
 10
22.2631
 20
34.9631
 30
0.0000
 11
22.2631
 21
35.9037
 31
0.0000
  0
LINE
  8
21
 10
22.2631
 20
35.9037
 30
0.0000
 11
22.8902
 21
35.9037
 31
0.0000
  0
LINE
  8
21
 10
22.2631
 20
35.4334
 30
0.0000
 11
22.5766
 21
35.4334
 31
0.0000
  0
LINE
  8
21
 10
30.6828
 20
34.9631
 30
0.0000
 11
30.6828
 21
35.9037
 31
0.0000
  0
LINE
  8
21
 10
30.6828
 20
35.9037
 30
0.0000
 11
31.1531
 21
35.9037
 31
0.0000
  0
LINE
  8
21
 10
31.1531
 20
35.9037
 30
0.0000
 11
31.3098
 21
35.7469
 31
0.0000
  0
LINE
  8
21
 10
31.3098
 20
35.7469
 30
0.0000
 11
31.3098
 21
35.5902
 31
0.0000
  0
LINE
  8
21
 10
31.3098
 20
35.5902
 30
0.0000
 11
31.1531
 21
35.4334
 31
0.0000
  0
LINE
  8
21
 10
31.1531
 20
35.4334
 30
0.0000
 11
31.3098
 21
35.2766
 31
0.0000
  0
LINE
  8
21
 10
31.3098
 20
35.2766
 30
0.0000
 11
31.3098
 21
35.1199
 31
0.0000
  0
LINE
  8
21
 10
31.3098
 20
35.1199
 30
0.0000
 11
31.1531
 21
34.9631
 31
0.0000
  0
LINE
  8
21
 10
31.1531
 20
34.9631
 30
0.0000
 11
30.6828
 21
34.9631
 31
0.0000
  0
LINE
  8
21
 10
30.6828
 20
35.4334
 30
0.0000
 11
31.1531
 21
35.4334
 31
0.0000
  0
LINE
  8
21
 10
22.8902
 20
38.2869
 30
0.0000
 11
22.7334
 21
38.4437
 31
0.0000
  0
LINE
  8
21
 10
22.7334
 20
38.4437
 30
0.0000
 11
22.4199
 21
38.4437
 31
0.0000
  0
LINE
  8
21
 10
22.4199
 20
38.4437
 30
0.0000
 11
22.2631
 21
38.2869
 31
0.0000
  0
LINE
  8
21
 10
22.2631
 20
38.2869
 30
0.0000
 11
22.2631
 21
37.6599
 31
0.0000
  0
LINE
  8
21
 10
22.2631
 20
37.6599
 30
0.0000
 11
22.4199
 21
37.5031
 31
0.0000
  0
LINE
  8
21
 10
22.4199
 20
37.5031
 30
0.0000
 11
22.7334
 21
37.5031
 31
0.0000
  0
LINE
  8
21
 10
22.7334
 20
37.5031
 30
0.0000
 11
22.8902
 21
37.6599
 31
0.0000
  0
LINE
  8
21
 10
22.8902
 20
37.6599
 30
0.0000
 11
22.8902
 21
37.9734
 31
0.0000
  0
LINE
  8
21
 10
22.8902
 20
37.9734
 30
0.0000
 11
22.5766
 21
37.9734
 31
0.0000
  0
LINE
  8
21
 10
31.3098
 20
38.2869
 30
0.0000
 11
31.1531
 21
38.4437
 31
0.0000
  0
LINE
  8
21
 10
31.1531
 20
38.4437
 30
0.0000
 11
30.8395
 21
38.4437
 31
0.0000
  0
LINE
  8
21
 10
30.8395
 20
38.4437
 30
0.0000
 11
30.6828
 21
38.2869
 31
0.0000
  0
LINE
  8
21
 10
30.6828
 20
38.2869
 30
0.0000
 11
30.6828
 21
37.6599
 31
0.0000
  0
LINE
  8
21
 10
30.6828
 20
37.6599
 30
0.0000
 11
30.8395
 21
37.5031
 31
0.0000
  0
LINE
  8
21
 10
30.8395
 20
37.5031
 30
0.0000
 11
31.1531
 21
37.5031
 31
0.0000
  0
LINE
  8
21
 10
31.1531
 20
37.5031
 30
0.0000
 11
31.3098
 21
37.6599
 31
0.0000
  0
LINE
  8
21
 10
22.2631
 20
40.0431
 30
0.0000
 11
22.2631
 21
40.9837
 31
0.0000
  0
LINE
  8
21
 10
22.2631
 20
40.5134
 30
0.0000
 11
22.8902
 21
40.5134
 31
0.0000
  0
LINE
  8
21
 10
22.8902
 20
40.9837
 30
0.0000
 11
22.8902
 21
40.0431
 31
0.0000
  0
LINE
  8
21
 10
30.6828
 20
40.9837
 30
0.0000
 11
30.6828
 21
40.0431
 31
0.0000
  0
LINE
  8
21
 10
30.6828
 20
40.0431
 30
0.0000
 11
31.1531
 21
40.0431
 31
0.0000
  0
LINE
  8
21
 10
31.1531
 20
40.0431
 30
0.0000
 11
31.3098
 21
40.1999
 31
0.0000
  0
LINE
  8
21
 10
31.3098
 20
40.1999
 30
0.0000
 11
31.3098
 21
40.8269
 31
0.0000
  0
LINE
  8
21
 10
31.3098
 20
40.8269
 30
0.0000
 11
31.1531
 21
40.9837
 31
0.0000
  0
LINE
  8
21
 10
31.1531
 20
40.9837
 30
0.0000
 11
30.6828
 21
40.9837
 31
0.0000
  0
LINE
  8
21
 10
20.9852
 20
43.3669
 30
0.0000
 11
20.8284
 21
43.5237
 31
0.0000
  0
LINE
  8
21
 10
20.8284
 20
43.5237
 30
0.0000
 11
20.5149
 21
43.5237
 31
0.0000
  0
LINE
  8
21
 10
20.5149
 20
43.5237
 30
0.0000
 11
20.3581
 21
43.3669
 31
0.0000
  0
LINE
  8
21
 10
20.3581
 20
43.3669
 30
0.0000
 11
20.3581
 21
42.7399
 31
0.0000
  0
LINE
  8
21
 10
20.3581
 20
42.7399
 30
0.0000
 11
20.5149
 21
42.5831
 31
0.0000
  0
LINE
  8
21
 10
20.5149
 20
42.5831
 30
0.0000
 11
20.8284
 21
42.5831
 31
0.0000
  0
LINE
  8
21
 10
20.8284
 20
42.5831
 30
0.0000
 11
20.9852
 21
42.7399
 31
0.0000
  0
LINE
  8
21
 10
20.9852
 20
42.7399
 30
0.0000
 11
20.9852
 21
43.0534
 31
0.0000
  0
LINE
  8
21
 10
20.9852
 20
43.0534
 30
0.0000
 11
20.6716
 21
43.0534
 31
0.0000
  0
LINE
  8
21
 10
21.2936
 20
42.5831
 30
0.0000
 11
21.2936
 21
43.5237
 31
0.0000
  0
LINE
  8
21
 10
21.2936
 20
43.5237
 30
0.0000
 11
21.9207
 21
42.5831
 31
0.0000
  0
LINE
  8
21
 10
21.9207
 20
42.5831
 30
0.0000
 11
21.9207
 21
43.5237
 31
0.0000
  0
LINE
  8
21
 10
22.2291
 20
43.5237
 30
0.0000
 11
22.2291
 21
42.5831
 31
0.0000
  0
LINE
  8
21
 10
22.2291
 20
42.5831
 30
0.0000
 11
22.6994
 21
42.5831
 31
0.0000
  0
LINE
  8
21
 10
22.6994
 20
42.5831
 30
0.0000
 11
22.8562
 21
42.7399
 31
0.0000
  0
LINE
  8
21
 10
22.8562
 20
42.7399
 30
0.0000
 11
22.8562
 21
43.3669
 31
0.0000
  0
LINE
  8
21
 10
22.8562
 20
43.3669
 30
0.0000
 11
22.6994
 21
43.5237
 31
0.0000
  0
LINE
  8
21
 10
22.6994
 20
43.5237
 30
0.0000
 11
22.2291
 21
43.5237
 31
0.0000
  0
LINE
  8
21
 10
30.6488
 20
43.5237
 30
0.0000
 11
30.6488
 21
42.8966
 31
0.0000
  0
LINE
  8
21
 10
30.6488
 20
42.8966
 30
0.0000
 11
30.9623
 21
42.5831
 31
0.0000
  0
LINE
  8
21
 10
30.9623
 20
42.5831
 30
0.0000
 11
31.2759
 21
42.8966
 31
0.0000
  0
LINE
  8
21
 10
31.2759
 20
42.8966
 30
0.0000
 11
31.2759
 21
43.5237
 31
0.0000
  0
LINE
  8
21
 10
32.2114
 20
43.3669
 30
0.0000
 11
32.0546
 21
43.5237
 31
0.0000
  0
LINE
  8
21
 10
32.0546
 20
43.5237
 30
0.0000
 11
31.7411
 21
43.5237
 31
0.0000
  0
LINE
  8
21
 10
31.7411
 20
43.5237
 30
0.0000
 11
31.5843
 21
43.3669
 31
0.0000
  0
LINE
  8
21
 10
31.5843
 20
43.3669
 30
0.0000
 11
31.5843
 21
42.7399
 31
0.0000
  0
LINE
  8
21
 10
31.5843
 20
42.7399
 30
0.0000
 11
31.7411
 21
42.5831
 31
0.0000
  0
LINE
  8
21
 10
31.7411
 20
42.5831
 30
0.0000
 11
32.0546
 21
42.5831
 31
0.0000
  0
LINE
  8
21
 10
32.0546
 20
42.5831
 30
0.0000
 11
32.2114
 21
42.7399
 31
0.0000
  0
LINE
  8
21
 10
33.1469
 20
43.3669
 30
0.0000
 11
32.9901
 21
43.5237
 31
0.0000
  0
LINE
  8
21
 10
32.9901
 20
43.5237
 30
0.0000
 11
32.6766
 21
43.5237
 31
0.0000
  0
LINE
  8
21
 10
32.6766
 20
43.5237
 30
0.0000
 11
32.5198
 21
43.3669
 31
0.0000
  0
LINE
  8
21
 10
32.5198
 20
43.3669
 30
0.0000
 11
32.5198
 21
42.7399
 31
0.0000
  0
LINE
  8
21
 10
32.5198
 20
42.7399
 30
0.0000
 11
32.6766
 21
42.5831
 31
0.0000
  0
LINE
  8
21
 10
32.6766
 20
42.5831
 30
0.0000
 11
32.9901
 21
42.5831
 31
0.0000
  0
LINE
  8
21
 10
32.9901
 20
42.5831
 30
0.0000
 11
33.1469
 21
42.7399
 31
0.0000
  0
LINE
  8
21
 10
36.8602
 20
33.3637
 30
0.0000
 11
36.2331
 21
33.3637
 31
0.0000
  0
LINE
  8
21
 10
36.2331
 20
33.3637
 30
0.0000
 11
36.2331
 21
32.4231
 31
0.0000
  0
LINE
  8
21
 10
36.2331
 20
32.4231
 30
0.0000
 11
36.8602
 21
32.4231
 31
0.0000
  0
LINE
  8
21
 10
36.2331
 20
32.8934
 30
0.0000
 11
36.5466
 21
32.8934
 31
0.0000
  0
LINE
  8
21
 10
44.6528
 20
32.4231
 30
0.0000
 11
44.6528
 21
33.0502
 31
0.0000
  0
LINE
  8
21
 10
44.6528
 20
33.0502
 30
0.0000
 11
44.9663
 21
33.3637
 31
0.0000
  0
LINE
  8
21
 10
44.9663
 20
33.3637
 30
0.0000
 11
45.2798
 21
33.0502
 31
0.0000
  0
LINE
  8
21
 10
45.2798
 20
33.0502
 30
0.0000
 11
45.2798
 21
32.4231
 31
0.0000
  0
LINE
  8
21
 10
44.6528
 20
32.8934
 30
0.0000
 11
45.2798
 21
32.8934
 31
0.0000
  0
LINE
  8
21
 10
36.2331
 20
34.9631
 30
0.0000
 11
36.2331
 21
35.9037
 31
0.0000
  0
LINE
  8
21
 10
36.2331
 20
35.9037
 30
0.0000
 11
36.8602
 21
35.9037
 31
0.0000
  0
LINE
  8
21
 10
36.2331
 20
35.4334
 30
0.0000
 11
36.5466
 21
35.4334
 31
0.0000
  0
LINE
  8
21
 10
44.6528
 20
34.9631
 30
0.0000
 11
44.6528
 21
35.9037
 31
0.0000
  0
LINE
  8
21
 10
44.6528
 20
35.9037
 30
0.0000
 11
45.1231
 21
35.9037
 31
0.0000
  0
LINE
  8
21
 10
45.1231
 20
35.9037
 30
0.0000
 11
45.2798
 21
35.7469
 31
0.0000
  0
LINE
  8
21
 10
45.2798
 20
35.7469
 30
0.0000
 11
45.2798
 21
35.5902
 31
0.0000
  0
LINE
  8
21
 10
45.2798
 20
35.5902
 30
0.0000
 11
45.1231
 21
35.4334
 31
0.0000
  0
LINE
  8
21
 10
45.1231
 20
35.4334
 30
0.0000
 11
45.2798
 21
35.2766
 31
0.0000
  0
LINE
  8
21
 10
45.2798
 20
35.2766
 30
0.0000
 11
45.2798
 21
35.1199
 31
0.0000
  0
LINE
  8
21
 10
45.2798
 20
35.1199
 30
0.0000
 11
45.1231
 21
34.9631
 31
0.0000
  0
LINE
  8
21
 10
45.1231
 20
34.9631
 30
0.0000
 11
44.6528
 21
34.9631
 31
0.0000
  0
LINE
  8
21
 10
44.6528
 20
35.4334
 30
0.0000
 11
45.1231
 21
35.4334
 31
0.0000
  0
LINE
  8
21
 10
36.8602
 20
38.2869
 30
0.0000
 11
36.7034
 21
38.4437
 31
0.0000
  0
LINE
  8
21
 10
36.7034
 20
38.4437
 30
0.0000
 11
36.3899
 21
38.4437
 31
0.0000
  0
LINE
  8
21
 10
36.3899
 20
38.4437
 30
0.0000
 11
36.2331
 21
38.2869
 31
0.0000
  0
LINE
  8
21
 10
36.2331
 20
38.2869
 30
0.0000
 11
36.2331
 21
37.6599
 31
0.0000
  0
LINE
  8
21
 10
36.2331
 20
37.6599
 30
0.0000
 11
36.3899
 21
37.5031
 31
0.0000
  0
LINE
  8
21
 10
36.3899
 20
37.5031
 30
0.0000
 11
36.7034
 21
37.5031
 31
0.0000
  0
LINE
  8
21
 10
36.7034
 20
37.5031
 30
0.0000
 11
36.8602
 21
37.6599
 31
0.0000
  0
LINE
  8
21
 10
36.8602
 20
37.6599
 30
0.0000
 11
36.8602
 21
37.9734
 31
0.0000
  0
LINE
  8
21
 10
36.8602
 20
37.9734
 30
0.0000
 11
36.5466
 21
37.9734
 31
0.0000
  0
LINE
  8
21
 10
45.2798
 20
38.2869
 30
0.0000
 11
45.1231
 21
38.4437
 31
0.0000
  0
LINE
  8
21
 10
45.1231
 20
38.4437
 30
0.0000
 11
44.8095
 21
38.4437
 31
0.0000
  0
LINE
  8
21
 10
44.8095
 20
38.4437
 30
0.0000
 11
44.6528
 21
38.2869
 31
0.0000
  0
LINE
  8
21
 10
44.6528
 20
38.2869
 30
0.0000
 11
44.6528
 21
37.6599
 31
0.0000
  0
LINE
  8
21
 10
44.6528
 20
37.6599
 30
0.0000
 11
44.8095
 21
37.5031
 31
0.0000
  0
LINE
  8
21
 10
44.8095
 20
37.5031
 30
0.0000
 11
45.1231
 21
37.5031
 31
0.0000
  0
LINE
  8
21
 10
45.1231
 20
37.5031
 30
0.0000
 11
45.2798
 21
37.6599
 31
0.0000
  0
LINE
  8
21
 10
36.2331
 20
40.0431
 30
0.0000
 11
36.2331
 21
40.9837
 31
0.0000
  0
LINE
  8
21
 10
36.2331
 20
40.5134
 30
0.0000
 11
36.8602
 21
40.5134
 31
0.0000
  0
LINE
  8
21
 10
36.8602
 20
40.9837
 30
0.0000
 11
36.8602
 21
40.0431
 31
0.0000
  0
LINE
  8
21
 10
44.6528
 20
40.9837
 30
0.0000
 11
44.6528
 21
40.0431
 31
0.0000
  0
LINE
  8
21
 10
44.6528
 20
40.0431
 30
0.0000
 11
45.1231
 21
40.0431
 31
0.0000
  0
LINE
  8
21
 10
45.1231
 20
40.0431
 30
0.0000
 11
45.2798
 21
40.1999
 31
0.0000
  0
LINE
  8
21
 10
45.2798
 20
40.1999
 30
0.0000
 11
45.2798
 21
40.8269
 31
0.0000
  0
LINE
  8
21
 10
45.2798
 20
40.8269
 30
0.0000
 11
45.1231
 21
40.9837
 31
0.0000
  0
LINE
  8
21
 10
45.1231
 20
40.9837
 30
0.0000
 11
44.6528
 21
40.9837
 31
0.0000
  0
LINE
  8
21
 10
34.9552
 20
43.3669
 30
0.0000
 11
34.7984
 21
43.5237
 31
0.0000
  0
LINE
  8
21
 10
34.7984
 20
43.5237
 30
0.0000
 11
34.4849
 21
43.5237
 31
0.0000
  0
LINE
  8
21
 10
34.4849
 20
43.5237
 30
0.0000
 11
34.3281
 21
43.3669
 31
0.0000
  0
LINE
  8
21
 10
34.3281
 20
43.3669
 30
0.0000
 11
34.3281
 21
42.7399
 31
0.0000
  0
LINE
  8
21
 10
34.3281
 20
42.7399
 30
0.0000
 11
34.4849
 21
42.5831
 31
0.0000
  0
LINE
  8
21
 10
34.4849
 20
42.5831
 30
0.0000
 11
34.7984
 21
42.5831
 31
0.0000
  0
LINE
  8
21
 10
34.7984
 20
42.5831
 30
0.0000
 11
34.9552
 21
42.7399
 31
0.0000
  0
LINE
  8
21
 10
34.9552
 20
42.7399
 30
0.0000
 11
34.9552
 21
43.0534
 31
0.0000
  0
LINE
  8
21
 10
34.9552
 20
43.0534
 30
0.0000
 11
34.6416
 21
43.0534
 31
0.0000
  0
LINE
  8
21
 10
35.2636
 20
42.5831
 30
0.0000
 11
35.2636
 21
43.5237
 31
0.0000
  0
LINE
  8
21
 10
35.2636
 20
43.5237
 30
0.0000
 11
35.8907
 21
42.5831
 31
0.0000
  0
LINE
  8
21
 10
35.8907
 20
42.5831
 30
0.0000
 11
35.8907
 21
43.5237
 31
0.0000
  0
LINE
  8
21
 10
36.1991
 20
43.5237
 30
0.0000
 11
36.1991
 21
42.5831
 31
0.0000
  0
LINE
  8
21
 10
36.1991
 20
42.5831
 30
0.0000
 11
36.6694
 21
42.5831
 31
0.0000
  0
LINE
  8
21
 10
36.6694
 20
42.5831
 30
0.0000
 11
36.8262
 21
42.7399
 31
0.0000
  0
LINE
  8
21
 10
36.8262
 20
42.7399
 30
0.0000
 11
36.8262
 21
43.3669
 31
0.0000
  0
LINE
  8
21
 10
36.8262
 20
43.3669
 30
0.0000
 11
36.6694
 21
43.5237
 31
0.0000
  0
LINE
  8
21
 10
36.6694
 20
43.5237
 30
0.0000
 11
36.1991
 21
43.5237
 31
0.0000
  0
LINE
  8
21
 10
44.6188
 20
43.5237
 30
0.0000
 11
44.6188
 21
42.8966
 31
0.0000
  0
LINE
  8
21
 10
44.6188
 20
42.8966
 30
0.0000
 11
44.9323
 21
42.5831
 31
0.0000
  0
LINE
  8
21
 10
44.9323
 20
42.5831
 30
0.0000
 11
45.2459
 21
42.8966
 31
0.0000
  0
LINE
  8
21
 10
45.2459
 20
42.8966
 30
0.0000
 11
45.2459
 21
43.5237
 31
0.0000
  0
LINE
  8
21
 10
46.1814
 20
43.3669
 30
0.0000
 11
46.0246
 21
43.5237
 31
0.0000
  0
LINE
  8
21
 10
46.0246
 20
43.5237
 30
0.0000
 11
45.7111
 21
43.5237
 31
0.0000
  0
LINE
  8
21
 10
45.7111
 20
43.5237
 30
0.0000
 11
45.5543
 21
43.3669
 31
0.0000
  0
LINE
  8
21
 10
45.5543
 20
43.3669
 30
0.0000
 11
45.5543
 21
42.7399
 31
0.0000
  0
LINE
  8
21
 10
45.5543
 20
42.7399
 30
0.0000
 11
45.7111
 21
42.5831
 31
0.0000
  0
LINE
  8
21
 10
45.7111
 20
42.5831
 30
0.0000
 11
46.0246
 21
42.5831
 31
0.0000
  0
LINE
  8
21
 10
46.0246
 20
42.5831
 30
0.0000
 11
46.1814
 21
42.7399
 31
0.0000
  0
LINE
  8
21
 10
47.1169
 20
43.3669
 30
0.0000
 11
46.9601
 21
43.5237
 31
0.0000
  0
LINE
  8
21
 10
46.9601
 20
43.5237
 30
0.0000
 11
46.6466
 21
43.5237
 31
0.0000
  0
LINE
  8
21
 10
46.6466
 20
43.5237
 30
0.0000
 11
46.4898
 21
43.3669
 31
0.0000
  0
LINE
  8
21
 10
46.4898
 20
43.3669
 30
0.0000
 11
46.4898
 21
42.7399
 31
0.0000
  0
LINE
  8
21
 10
46.4898
 20
42.7399
 30
0.0000
 11
46.6466
 21
42.5831
 31
0.0000
  0
LINE
  8
21
 10
46.6466
 20
42.5831
 30
0.0000
 11
46.9601
 21
42.5831
 31
0.0000
  0
LINE
  8
21
 10
46.9601
 20
42.5831
 30
0.0000
 11
47.1169
 21
42.7399
 31
0.0000
  0
LINE
  8
21
 10
50.8302
 20
33.3637
 30
0.0000
 11
50.2031
 21
33.3637
 31
0.0000
  0
LINE
  8
21
 10
50.2031
 20
33.3637
 30
0.0000
 11
50.2031
 21
32.4231
 31
0.0000
  0
LINE
  8
21
 10
50.2031
 20
32.4231
 30
0.0000
 11
50.8302
 21
32.4231
 31
0.0000
  0
LINE
  8
21
 10
50.2031
 20
32.8934
 30
0.0000
 11
50.5166
 21
32.8934
 31
0.0000
  0
LINE
  8
21
 10
58.6228
 20
32.4231
 30
0.0000
 11
58.6228
 21
33.0502
 31
0.0000
  0
LINE
  8
21
 10
58.6228
 20
33.0502
 30
0.0000
 11
58.9363
 21
33.3637
 31
0.0000
  0
LINE
  8
21
 10
58.9363
 20
33.3637
 30
0.0000
 11
59.2498
 21
33.0502
 31
0.0000
  0
LINE
  8
21
 10
59.2498
 20
33.0502
 30
0.0000
 11
59.2498
 21
32.4231
 31
0.0000
  0
LINE
  8
21
 10
58.6228
 20
32.8934
 30
0.0000
 11
59.2498
 21
32.8934
 31
0.0000
  0
LINE
  8
21
 10
50.2031
 20
34.9631
 30
0.0000
 11
50.2031
 21
35.9037
 31
0.0000
  0
LINE
  8
21
 10
50.2031
 20
35.9037
 30
0.0000
 11
50.8302
 21
35.9037
 31
0.0000
  0
LINE
  8
21
 10
50.2031
 20
35.4334
 30
0.0000
 11
50.5166
 21
35.4334
 31
0.0000
  0
LINE
  8
21
 10
58.6228
 20
34.9631
 30
0.0000
 11
58.6228
 21
35.9037
 31
0.0000
  0
LINE
  8
21
 10
58.6228
 20
35.9037
 30
0.0000
 11
59.0931
 21
35.9037
 31
0.0000
  0
LINE
  8
21
 10
59.0931
 20
35.9037
 30
0.0000
 11
59.2498
 21
35.7469
 31
0.0000
  0
LINE
  8
21
 10
59.2498
 20
35.7469
 30
0.0000
 11
59.2498
 21
35.5902
 31
0.0000
  0
LINE
  8
21
 10
59.2498
 20
35.5902
 30
0.0000
 11
59.0931
 21
35.4334
 31
0.0000
  0
LINE
  8
21
 10
59.0931
 20
35.4334
 30
0.0000
 11
59.2498
 21
35.2766
 31
0.0000
  0
LINE
  8
21
 10
59.2498
 20
35.2766
 30
0.0000
 11
59.2498
 21
35.1199
 31
0.0000
  0
LINE
  8
21
 10
59.2498
 20
35.1199
 30
0.0000
 11
59.0931
 21
34.9631
 31
0.0000
  0
LINE
  8
21
 10
59.0931
 20
34.9631
 30
0.0000
 11
58.6228
 21
34.9631
 31
0.0000
  0
LINE
  8
21
 10
58.6228
 20
35.4334
 30
0.0000
 11
59.0931
 21
35.4334
 31
0.0000
  0
LINE
  8
21
 10
50.8302
 20
38.2869
 30
0.0000
 11
50.6734
 21
38.4437
 31
0.0000
  0
LINE
  8
21
 10
50.6734
 20
38.4437
 30
0.0000
 11
50.3599
 21
38.4437
 31
0.0000
  0
LINE
  8
21
 10
50.3599
 20
38.4437
 30
0.0000
 11
50.2031
 21
38.2869
 31
0.0000
  0
LINE
  8
21
 10
50.2031
 20
38.2869
 30
0.0000
 11
50.2031
 21
37.6599
 31
0.0000
  0
LINE
  8
21
 10
50.2031
 20
37.6599
 30
0.0000
 11
50.3599
 21
37.5031
 31
0.0000
  0
LINE
  8
21
 10
50.3599
 20
37.5031
 30
0.0000
 11
50.6734
 21
37.5031
 31
0.0000
  0
LINE
  8
21
 10
50.6734
 20
37.5031
 30
0.0000
 11
50.8302
 21
37.6599
 31
0.0000
  0
LINE
  8
21
 10
50.8302
 20
37.6599
 30
0.0000
 11
50.8302
 21
37.9734
 31
0.0000
  0
LINE
  8
21
 10
50.8302
 20
37.9734
 30
0.0000
 11
50.5166
 21
37.9734
 31
0.0000
  0
LINE
  8
21
 10
59.2498
 20
38.2869
 30
0.0000
 11
59.0931
 21
38.4437
 31
0.0000
  0
LINE
  8
21
 10
59.0931
 20
38.4437
 30
0.0000
 11
58.7795
 21
38.4437
 31
0.0000
  0
LINE
  8
21
 10
58.7795
 20
38.4437
 30
0.0000
 11
58.6228
 21
38.2869
 31
0.0000
  0
LINE
  8
21
 10
58.6228
 20
38.2869
 30
0.0000
 11
58.6228
 21
37.6599
 31
0.0000
  0
LINE
  8
21
 10
58.6228
 20
37.6599
 30
0.0000
 11
58.7795
 21
37.5031
 31
0.0000
  0
LINE
  8
21
 10
58.7795
 20
37.5031
 30
0.0000
 11
59.0931
 21
37.5031
 31
0.0000
  0
LINE
  8
21
 10
59.0931
 20
37.5031
 30
0.0000
 11
59.2498
 21
37.6599
 31
0.0000
  0
LINE
  8
21
 10
50.2031
 20
40.0431
 30
0.0000
 11
50.2031
 21
40.9837
 31
0.0000
  0
LINE
  8
21
 10
50.2031
 20
40.5134
 30
0.0000
 11
50.8302
 21
40.5134
 31
0.0000
  0
LINE
  8
21
 10
50.8302
 20
40.9837
 30
0.0000
 11
50.8302
 21
40.0431
 31
0.0000
  0
LINE
  8
21
 10
58.6228
 20
40.9837
 30
0.0000
 11
58.6228
 21
40.0431
 31
0.0000
  0
LINE
  8
21
 10
58.6228
 20
40.0431
 30
0.0000
 11
59.0931
 21
40.0431
 31
0.0000
  0
LINE
  8
21
 10
59.0931
 20
40.0431
 30
0.0000
 11
59.2498
 21
40.1999
 31
0.0000
  0
LINE
  8
21
 10
59.2498
 20
40.1999
 30
0.0000
 11
59.2498
 21
40.8269
 31
0.0000
  0
LINE
  8
21
 10
59.2498
 20
40.8269
 30
0.0000
 11
59.0931
 21
40.9837
 31
0.0000
  0
LINE
  8
21
 10
59.0931
 20
40.9837
 30
0.0000
 11
58.6228
 21
40.9837
 31
0.0000
  0
LINE
  8
21
 10
48.9252
 20
43.3669
 30
0.0000
 11
48.7684
 21
43.5237
 31
0.0000
  0
LINE
  8
21
 10
48.7684
 20
43.5237
 30
0.0000
 11
48.4549
 21
43.5237
 31
0.0000
  0
LINE
  8
21
 10
48.4549
 20
43.5237
 30
0.0000
 11
48.2981
 21
43.3669
 31
0.0000
  0
LINE
  8
21
 10
48.2981
 20
43.3669
 30
0.0000
 11
48.2981
 21
42.7399
 31
0.0000
  0
LINE
  8
21
 10
48.2981
 20
42.7399
 30
0.0000
 11
48.4549
 21
42.5831
 31
0.0000
  0
LINE
  8
21
 10
48.4549
 20
42.5831
 30
0.0000
 11
48.7684
 21
42.5831
 31
0.0000
  0
LINE
  8
21
 10
48.7684
 20
42.5831
 30
0.0000
 11
48.9252
 21
42.7399
 31
0.0000
  0
LINE
  8
21
 10
48.9252
 20
42.7399
 30
0.0000
 11
48.9252
 21
43.0534
 31
0.0000
  0
LINE
  8
21
 10
48.9252
 20
43.0534
 30
0.0000
 11
48.6116
 21
43.0534
 31
0.0000
  0
LINE
  8
21
 10
49.2336
 20
42.5831
 30
0.0000
 11
49.2336
 21
43.5237
 31
0.0000
  0
LINE
  8
21
 10
49.2336
 20
43.5237
 30
0.0000
 11
49.8607
 21
42.5831
 31
0.0000
  0
LINE
  8
21
 10
49.8607
 20
42.5831
 30
0.0000
 11
49.8607
 21
43.5237
 31
0.0000
  0
LINE
  8
21
 10
50.1691
 20
43.5237
 30
0.0000
 11
50.1691
 21
42.5831
 31
0.0000
  0
LINE
  8
21
 10
50.1691
 20
42.5831
 30
0.0000
 11
50.6394
 21
42.5831
 31
0.0000
  0
LINE
  8
21
 10
50.6394
 20
42.5831
 30
0.0000
 11
50.7962
 21
42.7399
 31
0.0000
  0
LINE
  8
21
 10
50.7962
 20
42.7399
 30
0.0000
 11
50.7962
 21
43.3669
 31
0.0000
  0
LINE
  8
21
 10
50.7962
 20
43.3669
 30
0.0000
 11
50.6394
 21
43.5237
 31
0.0000
  0
LINE
  8
21
 10
50.6394
 20
43.5237
 30
0.0000
 11
50.1691
 21
43.5237
 31
0.0000
  0
LINE
  8
21
 10
58.5888
 20
43.5237
 30
0.0000
 11
58.5888
 21
42.8966
 31
0.0000
  0
LINE
  8
21
 10
58.5888
 20
42.8966
 30
0.0000
 11
58.9023
 21
42.5831
 31
0.0000
  0
LINE
  8
21
 10
58.9023
 20
42.5831
 30
0.0000
 11
59.2159
 21
42.8966
 31
0.0000
  0
LINE
  8
21
 10
59.2159
 20
42.8966
 30
0.0000
 11
59.2159
 21
43.5237
 31
0.0000
  0
LINE
  8
21
 10
60.1514
 20
43.3669
 30
0.0000
 11
59.9946
 21
43.5237
 31
0.0000
  0
LINE
  8
21
 10
59.9946
 20
43.5237
 30
0.0000
 11
59.6811
 21
43.5237
 31
0.0000
  0
LINE
  8
21
 10
59.6811
 20
43.5237
 30
0.0000
 11
59.5243
 21
43.3669
 31
0.0000
  0
LINE
  8
21
 10
59.5243
 20
43.3669
 30
0.0000
 11
59.5243
 21
42.7399
 31
0.0000
  0
LINE
  8
21
 10
59.5243
 20
42.7399
 30
0.0000
 11
59.6811
 21
42.5831
 31
0.0000
  0
LINE
  8
21
 10
59.6811
 20
42.5831
 30
0.0000
 11
59.9946
 21
42.5831
 31
0.0000
  0
LINE
  8
21
 10
59.9946
 20
42.5831
 30
0.0000
 11
60.1514
 21
42.7399
 31
0.0000
  0
LINE
  8
21
 10
61.0869
 20
43.3669
 30
0.0000
 11
60.9301
 21
43.5237
 31
0.0000
  0
LINE
  8
21
 10
60.9301
 20
43.5237
 30
0.0000
 11
60.6166
 21
43.5237
 31
0.0000
  0
LINE
  8
21
 10
60.6166
 20
43.5237
 30
0.0000
 11
60.4598
 21
43.3669
 31
0.0000
  0
LINE
  8
21
 10
60.4598
 20
43.3669
 30
0.0000
 11
60.4598
 21
42.7399
 31
0.0000
  0
LINE
  8
21
 10
60.4598
 20
42.7399
 30
0.0000
 11
60.6166
 21
42.5831
 31
0.0000
  0
LINE
  8
21
 10
60.6166
 20
42.5831
 30
0.0000
 11
60.9301
 21
42.5831
 31
0.0000
  0
LINE
  8
21
 10
60.9301
 20
42.5831
 30
0.0000
 11
61.0869
 21
42.7399
 31
0.0000
  0
LINE
  8
21
 10
64.8002
 20
33.3637
 30
0.0000
 11
64.1731
 21
33.3637
 31
0.0000
  0
LINE
  8
21
 10
64.1731
 20
33.3637
 30
0.0000
 11
64.1731
 21
32.4231
 31
0.0000
  0
LINE
  8
21
 10
64.1731
 20
32.4231
 30
0.0000
 11
64.8002
 21
32.4231
 31
0.0000
  0
LINE
  8
21
 10
64.1731
 20
32.8934
 30
0.0000
 11
64.4866
 21
32.8934
 31
0.0000
  0
LINE
  8
21
 10
72.5928
 20
32.4231
 30
0.0000
 11
72.5928
 21
33.0502
 31
0.0000
  0
LINE
  8
21
 10
72.5928
 20
33.0502
 30
0.0000
 11
72.9063
 21
33.3637
 31
0.0000
  0
LINE
  8
21
 10
72.9063
 20
33.3637
 30
0.0000
 11
73.2198
 21
33.0502
 31
0.0000
  0
LINE
  8
21
 10
73.2198
 20
33.0502
 30
0.0000
 11
73.2198
 21
32.4231
 31
0.0000
  0
LINE
  8
21
 10
72.5928
 20
32.8934
 30
0.0000
 11
73.2198
 21
32.8934
 31
0.0000
  0
LINE
  8
21
 10
64.1731
 20
34.9631
 30
0.0000
 11
64.1731
 21
35.9037
 31
0.0000
  0
LINE
  8
21
 10
64.1731
 20
35.9037
 30
0.0000
 11
64.8002
 21
35.9037
 31
0.0000
  0
LINE
  8
21
 10
64.1731
 20
35.4334
 30
0.0000
 11
64.4866
 21
35.4334
 31
0.0000
  0
LINE
  8
21
 10
72.5928
 20
34.9631
 30
0.0000
 11
72.5928
 21
35.9037
 31
0.0000
  0
LINE
  8
21
 10
72.5928
 20
35.9037
 30
0.0000
 11
73.0631
 21
35.9037
 31
0.0000
  0
LINE
  8
21
 10
73.0631
 20
35.9037
 30
0.0000
 11
73.2198
 21
35.7469
 31
0.0000
  0
LINE
  8
21
 10
73.2198
 20
35.7469
 30
0.0000
 11
73.2198
 21
35.5902
 31
0.0000
  0
LINE
  8
21
 10
73.2198
 20
35.5902
 30
0.0000
 11
73.0631
 21
35.4334
 31
0.0000
  0
LINE
  8
21
 10
73.0631
 20
35.4334
 30
0.0000
 11
73.2198
 21
35.2766
 31
0.0000
  0
LINE
  8
21
 10
73.2198
 20
35.2766
 30
0.0000
 11
73.2198
 21
35.1199
 31
0.0000
  0
LINE
  8
21
 10
73.2198
 20
35.1199
 30
0.0000
 11
73.0631
 21
34.9631
 31
0.0000
  0
LINE
  8
21
 10
73.0631
 20
34.9631
 30
0.0000
 11
72.5928
 21
34.9631
 31
0.0000
  0
LINE
  8
21
 10
72.5928
 20
35.4334
 30
0.0000
 11
73.0631
 21
35.4334
 31
0.0000
  0
LINE
  8
21
 10
64.8002
 20
38.2869
 30
0.0000
 11
64.6434
 21
38.4437
 31
0.0000
  0
LINE
  8
21
 10
64.6434
 20
38.4437
 30
0.0000
 11
64.3299
 21
38.4437
 31
0.0000
  0
LINE
  8
21
 10
64.3299
 20
38.4437
 30
0.0000
 11
64.1731
 21
38.2869
 31
0.0000
  0
LINE
  8
21
 10
64.1731
 20
38.2869
 30
0.0000
 11
64.1731
 21
37.6599
 31
0.0000
  0
LINE
  8
21
 10
64.1731
 20
37.6599
 30
0.0000
 11
64.3299
 21
37.5031
 31
0.0000
  0
LINE
  8
21
 10
64.3299
 20
37.5031
 30
0.0000
 11
64.6434
 21
37.5031
 31
0.0000
  0
LINE
  8
21
 10
64.6434
 20
37.5031
 30
0.0000
 11
64.8002
 21
37.6599
 31
0.0000
  0
LINE
  8
21
 10
64.8002
 20
37.6599
 30
0.0000
 11
64.8002
 21
37.9734
 31
0.0000
  0
LINE
  8
21
 10
64.8002
 20
37.9734
 30
0.0000
 11
64.4866
 21
37.9734
 31
0.0000
  0
LINE
  8
21
 10
73.2198
 20
38.2869
 30
0.0000
 11
73.0631
 21
38.4437
 31
0.0000
  0
LINE
  8
21
 10
73.0631
 20
38.4437
 30
0.0000
 11
72.7495
 21
38.4437
 31
0.0000
  0
LINE
  8
21
 10
72.7495
 20
38.4437
 30
0.0000
 11
72.5928
 21
38.2869
 31
0.0000
  0
LINE
  8
21
 10
72.5928
 20
38.2869
 30
0.0000
 11
72.5928
 21
37.6599
 31
0.0000
  0
LINE
  8
21
 10
72.5928
 20
37.6599
 30
0.0000
 11
72.7495
 21
37.5031
 31
0.0000
  0
LINE
  8
21
 10
72.7495
 20
37.5031
 30
0.0000
 11
73.0631
 21
37.5031
 31
0.0000
  0
LINE
  8
21
 10
73.0631
 20
37.5031
 30
0.0000
 11
73.2198
 21
37.6599
 31
0.0000
  0
LINE
  8
21
 10
64.1731
 20
40.0431
 30
0.0000
 11
64.1731
 21
40.9837
 31
0.0000
  0
LINE
  8
21
 10
64.1731
 20
40.5134
 30
0.0000
 11
64.8002
 21
40.5134
 31
0.0000
  0
LINE
  8
21
 10
64.8002
 20
40.9837
 30
0.0000
 11
64.8002
 21
40.0431
 31
0.0000
  0
LINE
  8
21
 10
72.5928
 20
40.9837
 30
0.0000
 11
72.5928
 21
40.0431
 31
0.0000
  0
LINE
  8
21
 10
72.5928
 20
40.0431
 30
0.0000
 11
73.0631
 21
40.0431
 31
0.0000
  0
LINE
  8
21
 10
73.0631
 20
40.0431
 30
0.0000
 11
73.2198
 21
40.1999
 31
0.0000
  0
LINE
  8
21
 10
73.2198
 20
40.1999
 30
0.0000
 11
73.2198
 21
40.8269
 31
0.0000
  0
LINE
  8
21
 10
73.2198
 20
40.8269
 30
0.0000
 11
73.0631
 21
40.9837
 31
0.0000
  0
LINE
  8
21
 10
73.0631
 20
40.9837
 30
0.0000
 11
72.5928
 21
40.9837
 31
0.0000
  0
LINE
  8
21
 10
62.8952
 20
43.3669
 30
0.0000
 11
62.7384
 21
43.5237
 31
0.0000
  0
LINE
  8
21
 10
62.7384
 20
43.5237
 30
0.0000
 11
62.4249
 21
43.5237
 31
0.0000
  0
LINE
  8
21
 10
62.4249
 20
43.5237
 30
0.0000
 11
62.2681
 21
43.3669
 31
0.0000
  0
LINE
  8
21
 10
62.2681
 20
43.3669
 30
0.0000
 11
62.2681
 21
42.7399
 31
0.0000
  0
LINE
  8
21
 10
62.2681
 20
42.7399
 30
0.0000
 11
62.4249
 21
42.5831
 31
0.0000
  0
LINE
  8
21
 10
62.4249
 20
42.5831
 30
0.0000
 11
62.7384
 21
42.5831
 31
0.0000
  0
LINE
  8
21
 10
62.7384
 20
42.5831
 30
0.0000
 11
62.8952
 21
42.7399
 31
0.0000
  0
LINE
  8
21
 10
62.8952
 20
42.7399
 30
0.0000
 11
62.8952
 21
43.0534
 31
0.0000
  0
LINE
  8
21
 10
62.8952
 20
43.0534
 30
0.0000
 11
62.5816
 21
43.0534
 31
0.0000
  0
LINE
  8
21
 10
63.2036
 20
42.5831
 30
0.0000
 11
63.2036
 21
43.5237
 31
0.0000
  0
LINE
  8
21
 10
63.2036
 20
43.5237
 30
0.0000
 11
63.8307
 21
42.5831
 31
0.0000
  0
LINE
  8
21
 10
63.8307
 20
42.5831
 30
0.0000
 11
63.8307
 21
43.5237
 31
0.0000
  0
LINE
  8
21
 10
64.1391
 20
43.5237
 30
0.0000
 11
64.1391
 21
42.5831
 31
0.0000
  0
LINE
  8
21
 10
64.1391
 20
42.5831
 30
0.0000
 11
64.6094
 21
42.5831
 31
0.0000
  0
LINE
  8
21
 10
64.6094
 20
42.5831
 30
0.0000
 11
64.7662
 21
42.7399
 31
0.0000
  0
LINE
  8
21
 10
64.7662
 20
42.7399
 30
0.0000
 11
64.7662
 21
43.3669
 31
0.0000
  0
LINE
  8
21
 10
64.7662
 20
43.3669
 30
0.0000
 11
64.6094
 21
43.5237
 31
0.0000
  0
LINE
  8
21
 10
64.6094
 20
43.5237
 30
0.0000
 11
64.1391
 21
43.5237
 31
0.0000
  0
LINE
  8
21
 10
72.5588
 20
43.5237
 30
0.0000
 11
72.5588
 21
42.8966
 31
0.0000
  0
LINE
  8
21
 10
72.5588
 20
42.8966
 30
0.0000
 11
72.8723
 21
42.5831
 31
0.0000
  0
LINE
  8
21
 10
72.8723
 20
42.5831
 30
0.0000
 11
73.1859
 21
42.8966
 31
0.0000
  0
LINE
  8
21
 10
73.1859
 20
42.8966
 30
0.0000
 11
73.1859
 21
43.5237
 31
0.0000
  0
LINE
  8
21
 10
74.1214
 20
43.3669
 30
0.0000
 11
73.9646
 21
43.5237
 31
0.0000
  0
LINE
  8
21
 10
73.9646
 20
43.5237
 30
0.0000
 11
73.6511
 21
43.5237
 31
0.0000
  0
LINE
  8
21
 10
73.6511
 20
43.5237
 30
0.0000
 11
73.4943
 21
43.3669
 31
0.0000
  0
LINE
  8
21
 10
73.4943
 20
43.3669
 30
0.0000
 11
73.4943
 21
42.7399
 31
0.0000
  0
LINE
  8
21
 10
73.4943
 20
42.7399
 30
0.0000
 11
73.6511
 21
42.5831
 31
0.0000
  0
LINE
  8
21
 10
73.6511
 20
42.5831
 30
0.0000
 11
73.9646
 21
42.5831
 31
0.0000
  0
LINE
  8
21
 10
73.9646
 20
42.5831
 30
0.0000
 11
74.1214
 21
42.7399
 31
0.0000
  0
LINE
  8
21
 10
75.0569
 20
43.3669
 30
0.0000
 11
74.9001
 21
43.5237
 31
0.0000
  0
LINE
  8
21
 10
74.9001
 20
43.5237
 30
0.0000
 11
74.5866
 21
43.5237
 31
0.0000
  0
LINE
  8
21
 10
74.5866
 20
43.5237
 30
0.0000
 11
74.4298
 21
43.3669
 31
0.0000
  0
LINE
  8
21
 10
74.4298
 20
43.3669
 30
0.0000
 11
74.4298
 21
42.7399
 31
0.0000
  0
LINE
  8
21
 10
74.4298
 20
42.7399
 30
0.0000
 11
74.5866
 21
42.5831
 31
0.0000
  0
LINE
  8
21
 10
74.5866
 20
42.5831
 30
0.0000
 11
74.9001
 21
42.5831
 31
0.0000
  0
LINE
  8
21
 10
74.9001
 20
42.5831
 30
0.0000
 11
75.0569
 21
42.7399
 31
0.0000
  0
LINE
  8
21
 10
78.7702
 20
33.3637
 30
0.0000
 11
78.1431
 21
33.3637
 31
0.0000
  0
LINE
  8
21
 10
78.1431
 20
33.3637
 30
0.0000
 11
78.1431
 21
32.4231
 31
0.0000
  0
LINE
  8
21
 10
78.1431
 20
32.4231
 30
0.0000
 11
78.7702
 21
32.4231
 31
0.0000
  0
LINE
  8
21
 10
78.1431
 20
32.8934
 30
0.0000
 11
78.4566
 21
32.8934
 31
0.0000
  0
LINE
  8
21
 10
86.5628
 20
32.4231
 30
0.0000
 11
86.5628
 21
33.0502
 31
0.0000
  0
LINE
  8
21
 10
86.5628
 20
33.0502
 30
0.0000
 11
86.8763
 21
33.3637
 31
0.0000
  0
LINE
  8
21
 10
86.8763
 20
33.3637
 30
0.0000
 11
87.1898
 21
33.0502
 31
0.0000
  0
LINE
  8
21
 10
87.1898
 20
33.0502
 30
0.0000
 11
87.1898
 21
32.4231
 31
0.0000
  0
LINE
  8
21
 10
86.5628
 20
32.8934
 30
0.0000
 11
87.1898
 21
32.8934
 31
0.0000
  0
LINE
  8
21
 10
78.1431
 20
34.9631
 30
0.0000
 11
78.1431
 21
35.9037
 31
0.0000
  0
LINE
  8
21
 10
78.1431
 20
35.9037
 30
0.0000
 11
78.7702
 21
35.9037
 31
0.0000
  0
LINE
  8
21
 10
78.1431
 20
35.4334
 30
0.0000
 11
78.4566
 21
35.4334
 31
0.0000
  0
LINE
  8
21
 10
86.5628
 20
34.9631
 30
0.0000
 11
86.5628
 21
35.9037
 31
0.0000
  0
LINE
  8
21
 10
86.5628
 20
35.9037
 30
0.0000
 11
87.0331
 21
35.9037
 31
0.0000
  0
LINE
  8
21
 10
87.0331
 20
35.9037
 30
0.0000
 11
87.1898
 21
35.7469
 31
0.0000
  0
LINE
  8
21
 10
87.1898
 20
35.7469
 30
0.0000
 11
87.1898
 21
35.5902
 31
0.0000
  0
LINE
  8
21
 10
87.1898
 20
35.5902
 30
0.0000
 11
87.0331
 21
35.4334
 31
0.0000
  0
LINE
  8
21
 10
87.0331
 20
35.4334
 30
0.0000
 11
87.1898
 21
35.2766
 31
0.0000
  0
LINE
  8
21
 10
87.1898
 20
35.2766
 30
0.0000
 11
87.1898
 21
35.1199
 31
0.0000
  0
LINE
  8
21
 10
87.1898
 20
35.1199
 30
0.0000
 11
87.0331
 21
34.9631
 31
0.0000
  0
LINE
  8
21
 10
87.0331
 20
34.9631
 30
0.0000
 11
86.5628
 21
34.9631
 31
0.0000
  0
LINE
  8
21
 10
86.5628
 20
35.4334
 30
0.0000
 11
87.0331
 21
35.4334
 31
0.0000
  0
LINE
  8
21
 10
78.7702
 20
38.2869
 30
0.0000
 11
78.6134
 21
38.4437
 31
0.0000
  0
LINE
  8
21
 10
78.6134
 20
38.4437
 30
0.0000
 11
78.2999
 21
38.4437
 31
0.0000
  0
LINE
  8
21
 10
78.2999
 20
38.4437
 30
0.0000
 11
78.1431
 21
38.2869
 31
0.0000
  0
LINE
  8
21
 10
78.1431
 20
38.2869
 30
0.0000
 11
78.1431
 21
37.6599
 31
0.0000
  0
LINE
  8
21
 10
78.1431
 20
37.6599
 30
0.0000
 11
78.2999
 21
37.5031
 31
0.0000
  0
LINE
  8
21
 10
78.2999
 20
37.5031
 30
0.0000
 11
78.6134
 21
37.5031
 31
0.0000
  0
LINE
  8
21
 10
78.6134
 20
37.5031
 30
0.0000
 11
78.7702
 21
37.6599
 31
0.0000
  0
LINE
  8
21
 10
78.7702
 20
37.6599
 30
0.0000
 11
78.7702
 21
37.9734
 31
0.0000
  0
LINE
  8
21
 10
78.7702
 20
37.9734
 30
0.0000
 11
78.4566
 21
37.9734
 31
0.0000
  0
LINE
  8
21
 10
87.1898
 20
38.2869
 30
0.0000
 11
87.0331
 21
38.4437
 31
0.0000
  0
LINE
  8
21
 10
87.0331
 20
38.4437
 30
0.0000
 11
86.7195
 21
38.4437
 31
0.0000
  0
LINE
  8
21
 10
86.7195
 20
38.4437
 30
0.0000
 11
86.5628
 21
38.2869
 31
0.0000
  0
LINE
  8
21
 10
86.5628
 20
38.2869
 30
0.0000
 11
86.5628
 21
37.6599
 31
0.0000
  0
LINE
  8
21
 10
86.5628
 20
37.6599
 30
0.0000
 11
86.7195
 21
37.5031
 31
0.0000
  0
LINE
  8
21
 10
86.7195
 20
37.5031
 30
0.0000
 11
87.0331
 21
37.5031
 31
0.0000
  0
LINE
  8
21
 10
87.0331
 20
37.5031
 30
0.0000
 11
87.1898
 21
37.6599
 31
0.0000
  0
LINE
  8
21
 10
78.1431
 20
40.0431
 30
0.0000
 11
78.1431
 21
40.9837
 31
0.0000
  0
LINE
  8
21
 10
78.1431
 20
40.5134
 30
0.0000
 11
78.7702
 21
40.5134
 31
0.0000
  0
LINE
  8
21
 10
78.7702
 20
40.9837
 30
0.0000
 11
78.7702
 21
40.0431
 31
0.0000
  0
LINE
  8
21
 10
86.5628
 20
40.9837
 30
0.0000
 11
86.5628
 21
40.0431
 31
0.0000
  0
LINE
  8
21
 10
86.5628
 20
40.0431
 30
0.0000
 11
87.0331
 21
40.0431
 31
0.0000
  0
LINE
  8
21
 10
87.0331
 20
40.0431
 30
0.0000
 11
87.1898
 21
40.1999
 31
0.0000
  0
LINE
  8
21
 10
87.1898
 20
40.1999
 30
0.0000
 11
87.1898
 21
40.8269
 31
0.0000
  0
LINE
  8
21
 10
87.1898
 20
40.8269
 30
0.0000
 11
87.0331
 21
40.9837
 31
0.0000
  0
LINE
  8
21
 10
87.0331
 20
40.9837
 30
0.0000
 11
86.5628
 21
40.9837
 31
0.0000
  0
LINE
  8
21
 10
76.8652
 20
43.3669
 30
0.0000
 11
76.7084
 21
43.5237
 31
0.0000
  0
LINE
  8
21
 10
76.7084
 20
43.5237
 30
0.0000
 11
76.3949
 21
43.5237
 31
0.0000
  0
LINE
  8
21
 10
76.3949
 20
43.5237
 30
0.0000
 11
76.2381
 21
43.3669
 31
0.0000
  0
LINE
  8
21
 10
76.2381
 20
43.3669
 30
0.0000
 11
76.2381
 21
42.7399
 31
0.0000
  0
LINE
  8
21
 10
76.2381
 20
42.7399
 30
0.0000
 11
76.3949
 21
42.5831
 31
0.0000
  0
LINE
  8
21
 10
76.3949
 20
42.5831
 30
0.0000
 11
76.7084
 21
42.5831
 31
0.0000
  0
LINE
  8
21
 10
76.7084
 20
42.5831
 30
0.0000
 11
76.8652
 21
42.7399
 31
0.0000
  0
LINE
  8
21
 10
76.8652
 20
42.7399
 30
0.0000
 11
76.8652
 21
43.0534
 31
0.0000
  0
LINE
  8
21
 10
76.8652
 20
43.0534
 30
0.0000
 11
76.5516
 21
43.0534
 31
0.0000
  0
LINE
  8
21
 10
77.1736
 20
42.5831
 30
0.0000
 11
77.1736
 21
43.5237
 31
0.0000
  0
LINE
  8
21
 10
77.1736
 20
43.5237
 30
0.0000
 11
77.8007
 21
42.5831
 31
0.0000
  0
LINE
  8
21
 10
77.8007
 20
42.5831
 30
0.0000
 11
77.8007
 21
43.5237
 31
0.0000
  0
LINE
  8
21
 10
78.1091
 20
43.5237
 30
0.0000
 11
78.1091
 21
42.5831
 31
0.0000
  0
LINE
  8
21
 10
78.1091
 20
42.5831
 30
0.0000
 11
78.5794
 21
42.5831
 31
0.0000
  0
LINE
  8
21
 10
78.5794
 20
42.5831
 30
0.0000
 11
78.7362
 21
42.7399
 31
0.0000
  0
LINE
  8
21
 10
78.7362
 20
42.7399
 30
0.0000
 11
78.7362
 21
43.3669
 31
0.0000
  0
LINE
  8
21
 10
78.7362
 20
43.3669
 30
0.0000
 11
78.5794
 21
43.5237
 31
0.0000
  0
LINE
  8
21
 10
78.5794
 20
43.5237
 30
0.0000
 11
78.1091
 21
43.5237
 31
0.0000
  0
LINE
  8
21
 10
86.5288
 20
43.5237
 30
0.0000
 11
86.5288
 21
42.8966
 31
0.0000
  0
LINE
  8
21
 10
86.5288
 20
42.8966
 30
0.0000
 11
86.8423
 21
42.5831
 31
0.0000
  0
LINE
  8
21
 10
86.8423
 20
42.5831
 30
0.0000
 11
87.1559
 21
42.8966
 31
0.0000
  0
LINE
  8
21
 10
87.1559
 20
42.8966
 30
0.0000
 11
87.1559
 21
43.5237
 31
0.0000
  0
LINE
  8
21
 10
88.0914
 20
43.3669
 30
0.0000
 11
87.9346
 21
43.5237
 31
0.0000
  0
LINE
  8
21
 10
87.9346
 20
43.5237
 30
0.0000
 11
87.6211
 21
43.5237
 31
0.0000
  0
LINE
  8
21
 10
87.6211
 20
43.5237
 30
0.0000
 11
87.4643
 21
43.3669
 31
0.0000
  0
LINE
  8
21
 10
87.4643
 20
43.3669
 30
0.0000
 11
87.4643
 21
42.7399
 31
0.0000
  0
LINE
  8
21
 10
87.4643
 20
42.7399
 30
0.0000
 11
87.6211
 21
42.5831
 31
0.0000
  0
LINE
  8
21
 10
87.6211
 20
42.5831
 30
0.0000
 11
87.9346
 21
42.5831
 31
0.0000
  0
LINE
  8
21
 10
87.9346
 20
42.5831
 30
0.0000
 11
88.0914
 21
42.7399
 31
0.0000
  0
LINE
  8
21
 10
89.0269
 20
43.3669
 30
0.0000
 11
88.8701
 21
43.5237
 31
0.0000
  0
LINE
  8
21
 10
88.8701
 20
43.5237
 30
0.0000
 11
88.5566
 21
43.5237
 31
0.0000
  0
LINE
  8
21
 10
88.5566
 20
43.5237
 30
0.0000
 11
88.3998
 21
43.3669
 31
0.0000
  0
LINE
  8
21
 10
88.3998
 20
43.3669
 30
0.0000
 11
88.3998
 21
42.7399
 31
0.0000
  0
LINE
  8
21
 10
88.3998
 20
42.7399
 30
0.0000
 11
88.5566
 21
42.5831
 31
0.0000
  0
LINE
  8
21
 10
88.5566
 20
42.5831
 30
0.0000
 11
88.8701
 21
42.5831
 31
0.0000
  0
LINE
  8
21
 10
88.8701
 20
42.5831
 30
0.0000
 11
89.0269
 21
42.7399
 31
0.0000
  0
LINE
  8
21
 10
92.7402
 20
33.3637
 30
0.0000
 11
92.1131
 21
33.3637
 31
0.0000
  0
LINE
  8
21
 10
92.1131
 20
33.3637
 30
0.0000
 11
92.1131
 21
32.4231
 31
0.0000
  0
LINE
  8
21
 10
92.1131
 20
32.4231
 30
0.0000
 11
92.7402
 21
32.4231
 31
0.0000
  0
LINE
  8
21
 10
92.1131
 20
32.8934
 30
0.0000
 11
92.4266
 21
32.8934
 31
0.0000
  0
LINE
  8
21
 10
100.5328
 20
32.4231
 30
0.0000
 11
100.5328
 21
33.0502
 31
0.0000
  0
LINE
  8
21
 10
100.5328
 20
33.0502
 30
0.0000
 11
100.8463
 21
33.3637
 31
0.0000
  0
LINE
  8
21
 10
100.8463
 20
33.3637
 30
0.0000
 11
101.1598
 21
33.0502
 31
0.0000
  0
LINE
  8
21
 10
101.1598
 20
33.0502
 30
0.0000
 11
101.1598
 21
32.4231
 31
0.0000
  0
LINE
  8
21
 10
100.5328
 20
32.8934
 30
0.0000
 11
101.1598
 21
32.8934
 31
0.0000
  0
LINE
  8
21
 10
92.1131
 20
34.9631
 30
0.0000
 11
92.1131
 21
35.9037
 31
0.0000
  0
LINE
  8
21
 10
92.1131
 20
35.9037
 30
0.0000
 11
92.7402
 21
35.9037
 31
0.0000
  0
LINE
  8
21
 10
92.1131
 20
35.4334
 30
0.0000
 11
92.4266
 21
35.4334
 31
0.0000
  0
LINE
  8
21
 10
100.5328
 20
34.9631
 30
0.0000
 11
100.5328
 21
35.9037
 31
0.0000
  0
LINE
  8
21
 10
100.5328
 20
35.9037
 30
0.0000
 11
101.0031
 21
35.9037
 31
0.0000
  0
LINE
  8
21
 10
101.0031
 20
35.9037
 30
0.0000
 11
101.1598
 21
35.7469
 31
0.0000
  0
LINE
  8
21
 10
101.1598
 20
35.7469
 30
0.0000
 11
101.1598
 21
35.5902
 31
0.0000
  0
LINE
  8
21
 10
101.1598
 20
35.5902
 30
0.0000
 11
101.0031
 21
35.4334
 31
0.0000
  0
LINE
  8
21
 10
101.0031
 20
35.4334
 30
0.0000
 11
101.1598
 21
35.2766
 31
0.0000
  0
LINE
  8
21
 10
101.1598
 20
35.2766
 30
0.0000
 11
101.1598
 21
35.1199
 31
0.0000
  0
LINE
  8
21
 10
101.1598
 20
35.1199
 30
0.0000
 11
101.0031
 21
34.9631
 31
0.0000
  0
LINE
  8
21
 10
101.0031
 20
34.9631
 30
0.0000
 11
100.5328
 21
34.9631
 31
0.0000
  0
LINE
  8
21
 10
100.5328
 20
35.4334
 30
0.0000
 11
101.0031
 21
35.4334
 31
0.0000
  0
LINE
  8
21
 10
92.7402
 20
38.2869
 30
0.0000
 11
92.5834
 21
38.4437
 31
0.0000
  0
LINE
  8
21
 10
92.5834
 20
38.4437
 30
0.0000
 11
92.2699
 21
38.4437
 31
0.0000
  0
LINE
  8
21
 10
92.2699
 20
38.4437
 30
0.0000
 11
92.1131
 21
38.2869
 31
0.0000
  0
LINE
  8
21
 10
92.1131
 20
38.2869
 30
0.0000
 11
92.1131
 21
37.6599
 31
0.0000
  0
LINE
  8
21
 10
92.1131
 20
37.6599
 30
0.0000
 11
92.2699
 21
37.5031
 31
0.0000
  0
LINE
  8
21
 10
92.2699
 20
37.5031
 30
0.0000
 11
92.5834
 21
37.5031
 31
0.0000
  0
LINE
  8
21
 10
92.5834
 20
37.5031
 30
0.0000
 11
92.7402
 21
37.6599
 31
0.0000
  0
LINE
  8
21
 10
92.7402
 20
37.6599
 30
0.0000
 11
92.7402
 21
37.9734
 31
0.0000
  0
LINE
  8
21
 10
92.7402
 20
37.9734
 30
0.0000
 11
92.4266
 21
37.9734
 31
0.0000
  0
LINE
  8
21
 10
101.1598
 20
38.2869
 30
0.0000
 11
101.0031
 21
38.4437
 31
0.0000
  0
LINE
  8
21
 10
101.0031
 20
38.4437
 30
0.0000
 11
100.6895
 21
38.4437
 31
0.0000
  0
LINE
  8
21
 10
100.6895
 20
38.4437
 30
0.0000
 11
100.5328
 21
38.2869
 31
0.0000
  0
LINE
  8
21
 10
100.5328
 20
38.2869
 30
0.0000
 11
100.5328
 21
37.6599
 31
0.0000
  0
LINE
  8
21
 10
100.5328
 20
37.6599
 30
0.0000
 11
100.6895
 21
37.5031
 31
0.0000
  0
LINE
  8
21
 10
100.6895
 20
37.5031
 30
0.0000
 11
101.0031
 21
37.5031
 31
0.0000
  0
LINE
  8
21
 10
101.0031
 20
37.5031
 30
0.0000
 11
101.1598
 21
37.6599
 31
0.0000
  0
LINE
  8
21
 10
92.1131
 20
40.0431
 30
0.0000
 11
92.1131
 21
40.9837
 31
0.0000
  0
LINE
  8
21
 10
92.1131
 20
40.5134
 30
0.0000
 11
92.7402
 21
40.5134
 31
0.0000
  0
LINE
  8
21
 10
92.7402
 20
40.9837
 30
0.0000
 11
92.7402
 21
40.0431
 31
0.0000
  0
LINE
  8
21
 10
100.5328
 20
40.9837
 30
0.0000
 11
100.5328
 21
40.0431
 31
0.0000
  0
LINE
  8
21
 10
100.5328
 20
40.0431
 30
0.0000
 11
101.0031
 21
40.0431
 31
0.0000
  0
LINE
  8
21
 10
101.0031
 20
40.0431
 30
0.0000
 11
101.1598
 21
40.1999
 31
0.0000
  0
LINE
  8
21
 10
101.1598
 20
40.1999
 30
0.0000
 11
101.1598
 21
40.8269
 31
0.0000
  0
LINE
  8
21
 10
101.1598
 20
40.8269
 30
0.0000
 11
101.0031
 21
40.9837
 31
0.0000
  0
LINE
  8
21
 10
101.0031
 20
40.9837
 30
0.0000
 11
100.5328
 21
40.9837
 31
0.0000
  0
LINE
  8
21
 10
90.8352
 20
43.3669
 30
0.0000
 11
90.6784
 21
43.5237
 31
0.0000
  0
LINE
  8
21
 10
90.6784
 20
43.5237
 30
0.0000
 11
90.3649
 21
43.5237
 31
0.0000
  0
LINE
  8
21
 10
90.3649
 20
43.5237
 30
0.0000
 11
90.2081
 21
43.3669
 31
0.0000
  0
LINE
  8
21
 10
90.2081
 20
43.3669
 30
0.0000
 11
90.2081
 21
42.7399
 31
0.0000
  0
LINE
  8
21
 10
90.2081
 20
42.7399
 30
0.0000
 11
90.3649
 21
42.5831
 31
0.0000
  0
LINE
  8
21
 10
90.3649
 20
42.5831
 30
0.0000
 11
90.6784
 21
42.5831
 31
0.0000
  0
LINE
  8
21
 10
90.6784
 20
42.5831
 30
0.0000
 11
90.8352
 21
42.7399
 31
0.0000
  0
LINE
  8
21
 10
90.8352
 20
42.7399
 30
0.0000
 11
90.8352
 21
43.0534
 31
0.0000
  0
LINE
  8
21
 10
90.8352
 20
43.0534
 30
0.0000
 11
90.5216
 21
43.0534
 31
0.0000
  0
LINE
  8
21
 10
91.1436
 20
42.5831
 30
0.0000
 11
91.1436
 21
43.5237
 31
0.0000
  0
LINE
  8
21
 10
91.1436
 20
43.5237
 30
0.0000
 11
91.7707
 21
42.5831
 31
0.0000
  0
LINE
  8
21
 10
91.7707
 20
42.5831
 30
0.0000
 11
91.7707
 21
43.5237
 31
0.0000
  0
LINE
  8
21
 10
92.0791
 20
43.5237
 30
0.0000
 11
92.0791
 21
42.5831
 31
0.0000
  0
LINE
  8
21
 10
92.0791
 20
42.5831
 30
0.0000
 11
92.5494
 21
42.5831
 31
0.0000
  0
LINE
  8
21
 10
92.5494
 20
42.5831
 30
0.0000
 11
92.7062
 21
42.7399
 31
0.0000
  0
LINE
  8
21
 10
92.7062
 20
42.7399
 30
0.0000
 11
92.7062
 21
43.3669
 31
0.0000
  0
LINE
  8
21
 10
92.7062
 20
43.3669
 30
0.0000
 11
92.5494
 21
43.5237
 31
0.0000
  0
LINE
  8
21
 10
92.5494
 20
43.5237
 30
0.0000
 11
92.0791
 21
43.5237
 31
0.0000
  0
LINE
  8
21
 10
100.4988
 20
43.5237
 30
0.0000
 11
100.4988
 21
42.8966
 31
0.0000
  0
LINE
  8
21
 10
100.4988
 20
42.8966
 30
0.0000
 11
100.8123
 21
42.5831
 31
0.0000
  0
LINE
  8
21
 10
100.8123
 20
42.5831
 30
0.0000
 11
101.1259
 21
42.8966
 31
0.0000
  0
LINE
  8
21
 10
101.1259
 20
42.8966
 30
0.0000
 11
101.1259
 21
43.5237
 31
0.0000
  0
LINE
  8
21
 10
102.0614
 20
43.3669
 30
0.0000
 11
101.9046
 21
43.5237
 31
0.0000
  0
LINE
  8
21
 10
101.9046
 20
43.5237
 30
0.0000
 11
101.5911
 21
43.5237
 31
0.0000
  0
LINE
  8
21
 10
101.5911
 20
43.5237
 30
0.0000
 11
101.4343
 21
43.3669
 31
0.0000
  0
LINE
  8
21
 10
101.4343
 20
43.3669
 30
0.0000
 11
101.4343
 21
42.7399
 31
0.0000
  0
LINE
  8
21
 10
101.4343
 20
42.7399
 30
0.0000
 11
101.5911
 21
42.5831
 31
0.0000
  0
LINE
  8
21
 10
101.5911
 20
42.5831
 30
0.0000
 11
101.9046
 21
42.5831
 31
0.0000
  0
LINE
  8
21
 10
101.9046
 20
42.5831
 30
0.0000
 11
102.0614
 21
42.7399
 31
0.0000
  0
LINE
  8
21
 10
102.9969
 20
43.3669
 30
0.0000
 11
102.8401
 21
43.5237
 31
0.0000
  0
LINE
  8
21
 10
102.8401
 20
43.5237
 30
0.0000
 11
102.5266
 21
43.5237
 31
0.0000
  0
LINE
  8
21
 10
102.5266
 20
43.5237
 30
0.0000
 11
102.3698
 21
43.3669
 31
0.0000
  0
LINE
  8
21
 10
102.3698
 20
43.3669
 30
0.0000
 11
102.3698
 21
42.7399
 31
0.0000
  0
LINE
  8
21
 10
102.3698
 20
42.7399
 30
0.0000
 11
102.5266
 21
42.5831
 31
0.0000
  0
LINE
  8
21
 10
102.5266
 20
42.5831
 30
0.0000
 11
102.8401
 21
42.5831
 31
0.0000
  0
LINE
  8
21
 10
102.8401
 20
42.5831
 30
0.0000
 11
102.9969
 21
42.7399
 31
0.0000
  0
LINE
  8
21
 10
106.7102
 20
33.3637
 30
0.0000
 11
106.0831
 21
33.3637
 31
0.0000
  0
LINE
  8
21
 10
106.0831
 20
33.3637
 30
0.0000
 11
106.0831
 21
32.4231
 31
0.0000
  0
LINE
  8
21
 10
106.0831
 20
32.4231
 30
0.0000
 11
106.7102
 21
32.4231
 31
0.0000
  0
LINE
  8
21
 10
106.0831
 20
32.8934
 30
0.0000
 11
106.3966
 21
32.8934
 31
0.0000
  0
LINE
  8
21
 10
114.5028
 20
32.4231
 30
0.0000
 11
114.5028
 21
33.0502
 31
0.0000
  0
LINE
  8
21
 10
114.5028
 20
33.0502
 30
0.0000
 11
114.8163
 21
33.3637
 31
0.0000
  0
LINE
  8
21
 10
114.8163
 20
33.3637
 30
0.0000
 11
115.1298
 21
33.0502
 31
0.0000
  0
LINE
  8
21
 10
115.1298
 20
33.0502
 30
0.0000
 11
115.1298
 21
32.4231
 31
0.0000
  0
LINE
  8
21
 10
114.5028
 20
32.8934
 30
0.0000
 11
115.1298
 21
32.8934
 31
0.0000
  0
LINE
  8
21
 10
106.0831
 20
34.9631
 30
0.0000
 11
106.0831
 21
35.9037
 31
0.0000
  0
LINE
  8
21
 10
106.0831
 20
35.9037
 30
0.0000
 11
106.7102
 21
35.9037
 31
0.0000
  0
LINE
  8
21
 10
106.0831
 20
35.4334
 30
0.0000
 11
106.3966
 21
35.4334
 31
0.0000
  0
LINE
  8
21
 10
114.5028
 20
34.9631
 30
0.0000
 11
114.5028
 21
35.9037
 31
0.0000
  0
LINE
  8
21
 10
114.5028
 20
35.9037
 30
0.0000
 11
114.9731
 21
35.9037
 31
0.0000
  0
LINE
  8
21
 10
114.9731
 20
35.9037
 30
0.0000
 11
115.1298
 21
35.7469
 31
0.0000
  0
LINE
  8
21
 10
115.1298
 20
35.7469
 30
0.0000
 11
115.1298
 21
35.5902
 31
0.0000
  0
LINE
  8
21
 10
115.1298
 20
35.5902
 30
0.0000
 11
114.9731
 21
35.4334
 31
0.0000
  0
LINE
  8
21
 10
114.9731
 20
35.4334
 30
0.0000
 11
115.1298
 21
35.2766
 31
0.0000
  0
LINE
  8
21
 10
115.1298
 20
35.2766
 30
0.0000
 11
115.1298
 21
35.1199
 31
0.0000
  0
LINE
  8
21
 10
115.1298
 20
35.1199
 30
0.0000
 11
114.9731
 21
34.9631
 31
0.0000
  0
LINE
  8
21
 10
114.9731
 20
34.9631
 30
0.0000
 11
114.5028
 21
34.9631
 31
0.0000
  0
LINE
  8
21
 10
114.5028
 20
35.4334
 30
0.0000
 11
114.9731
 21
35.4334
 31
0.0000
  0
LINE
  8
21
 10
106.7102
 20
38.2869
 30
0.0000
 11
106.5534
 21
38.4437
 31
0.0000
  0
LINE
  8
21
 10
106.5534
 20
38.4437
 30
0.0000
 11
106.2399
 21
38.4437
 31
0.0000
  0
LINE
  8
21
 10
106.2399
 20
38.4437
 30
0.0000
 11
106.0831
 21
38.2869
 31
0.0000
  0
LINE
  8
21
 10
106.0831
 20
38.2869
 30
0.0000
 11
106.0831
 21
37.6599
 31
0.0000
  0
LINE
  8
21
 10
106.0831
 20
37.6599
 30
0.0000
 11
106.2399
 21
37.5031
 31
0.0000
  0
LINE
  8
21
 10
106.2399
 20
37.5031
 30
0.0000
 11
106.5534
 21
37.5031
 31
0.0000
  0
LINE
  8
21
 10
106.5534
 20
37.5031
 30
0.0000
 11
106.7102
 21
37.6599
 31
0.0000
  0
LINE
  8
21
 10
106.7102
 20
37.6599
 30
0.0000
 11
106.7102
 21
37.9734
 31
0.0000
  0
LINE
  8
21
 10
106.7102
 20
37.9734
 30
0.0000
 11
106.3966
 21
37.9734
 31
0.0000
  0
LINE
  8
21
 10
115.1298
 20
38.2869
 30
0.0000
 11
114.9731
 21
38.4437
 31
0.0000
  0
LINE
  8
21
 10
114.9731
 20
38.4437
 30
0.0000
 11
114.6595
 21
38.4437
 31
0.0000
  0
LINE
  8
21
 10
114.6595
 20
38.4437
 30
0.0000
 11
114.5028
 21
38.2869
 31
0.0000
  0
LINE
  8
21
 10
114.5028
 20
38.2869
 30
0.0000
 11
114.5028
 21
37.6599
 31
0.0000
  0
LINE
  8
21
 10
114.5028
 20
37.6599
 30
0.0000
 11
114.6595
 21
37.5031
 31
0.0000
  0
LINE
  8
21
 10
114.6595
 20
37.5031
 30
0.0000
 11
114.9731
 21
37.5031
 31
0.0000
  0
LINE
  8
21
 10
114.9731
 20
37.5031
 30
0.0000
 11
115.1298
 21
37.6599
 31
0.0000
  0
LINE
  8
21
 10
106.0831
 20
40.0431
 30
0.0000
 11
106.0831
 21
40.9837
 31
0.0000
  0
LINE
  8
21
 10
106.0831
 20
40.5134
 30
0.0000
 11
106.7102
 21
40.5134
 31
0.0000
  0
LINE
  8
21
 10
106.7102
 20
40.9837
 30
0.0000
 11
106.7102
 21
40.0431
 31
0.0000
  0
LINE
  8
21
 10
114.5028
 20
40.9837
 30
0.0000
 11
114.5028
 21
40.0431
 31
0.0000
  0
LINE
  8
21
 10
114.5028
 20
40.0431
 30
0.0000
 11
114.9731
 21
40.0431
 31
0.0000
  0
LINE
  8
21
 10
114.9731
 20
40.0431
 30
0.0000
 11
115.1298
 21
40.1999
 31
0.0000
  0
LINE
  8
21
 10
115.1298
 20
40.1999
 30
0.0000
 11
115.1298
 21
40.8269
 31
0.0000
  0
LINE
  8
21
 10
115.1298
 20
40.8269
 30
0.0000
 11
114.9731
 21
40.9837
 31
0.0000
  0
LINE
  8
21
 10
114.9731
 20
40.9837
 30
0.0000
 11
114.5028
 21
40.9837
 31
0.0000
  0
LINE
  8
21
 10
104.8052
 20
43.3669
 30
0.0000
 11
104.6484
 21
43.5237
 31
0.0000
  0
LINE
  8
21
 10
104.6484
 20
43.5237
 30
0.0000
 11
104.3349
 21
43.5237
 31
0.0000
  0
LINE
  8
21
 10
104.3349
 20
43.5237
 30
0.0000
 11
104.1781
 21
43.3669
 31
0.0000
  0
LINE
  8
21
 10
104.1781
 20
43.3669
 30
0.0000
 11
104.1781
 21
42.7399
 31
0.0000
  0
LINE
  8
21
 10
104.1781
 20
42.7399
 30
0.0000
 11
104.3349
 21
42.5831
 31
0.0000
  0
LINE
  8
21
 10
104.3349
 20
42.5831
 30
0.0000
 11
104.6484
 21
42.5831
 31
0.0000
  0
LINE
  8
21
 10
104.6484
 20
42.5831
 30
0.0000
 11
104.8052
 21
42.7399
 31
0.0000
  0
LINE
  8
21
 10
104.8052
 20
42.7399
 30
0.0000
 11
104.8052
 21
43.0534
 31
0.0000
  0
LINE
  8
21
 10
104.8052
 20
43.0534
 30
0.0000
 11
104.4916
 21
43.0534
 31
0.0000
  0
LINE
  8
21
 10
105.1136
 20
42.5831
 30
0.0000
 11
105.1136
 21
43.5237
 31
0.0000
  0
LINE
  8
21
 10
105.1136
 20
43.5237
 30
0.0000
 11
105.7407
 21
42.5831
 31
0.0000
  0
LINE
  8
21
 10
105.7407
 20
42.5831
 30
0.0000
 11
105.7407
 21
43.5237
 31
0.0000
  0
LINE
  8
21
 10
106.0491
 20
43.5237
 30
0.0000
 11
106.0491
 21
42.5831
 31
0.0000
  0
LINE
  8
21
 10
106.0491
 20
42.5831
 30
0.0000
 11
106.5194
 21
42.5831
 31
0.0000
  0
LINE
  8
21
 10
106.5194
 20
42.5831
 30
0.0000
 11
106.6762
 21
42.7399
 31
0.0000
  0
LINE
  8
21
 10
106.6762
 20
42.7399
 30
0.0000
 11
106.6762
 21
43.3669
 31
0.0000
  0
LINE
  8
21
 10
106.6762
 20
43.3669
 30
0.0000
 11
106.5194
 21
43.5237
 31
0.0000
  0
LINE
  8
21
 10
106.5194
 20
43.5237
 30
0.0000
 11
106.0491
 21
43.5237
 31
0.0000
  0
LINE
  8
21
 10
114.4688
 20
43.5237
 30
0.0000
 11
114.4688
 21
42.8966
 31
0.0000
  0
LINE
  8
21
 10
114.4688
 20
42.8966
 30
0.0000
 11
114.7823
 21
42.5831
 31
0.0000
  0
LINE
  8
21
 10
114.7823
 20
42.5831
 30
0.0000
 11
115.0959
 21
42.8966
 31
0.0000
  0
LINE
  8
21
 10
115.0959
 20
42.8966
 30
0.0000
 11
115.0959
 21
43.5237
 31
0.0000
  0
LINE
  8
21
 10
116.0314
 20
43.3669
 30
0.0000
 11
115.8746
 21
43.5237
 31
0.0000
  0
LINE
  8
21
 10
115.8746
 20
43.5237
 30
0.0000
 11
115.5611
 21
43.5237
 31
0.0000
  0
LINE
  8
21
 10
115.5611
 20
43.5237
 30
0.0000
 11
115.4043
 21
43.3669
 31
0.0000
  0
LINE
  8
21
 10
115.4043
 20
43.3669
 30
0.0000
 11
115.4043
 21
42.7399
 31
0.0000
  0
LINE
  8
21
 10
115.4043
 20
42.7399
 30
0.0000
 11
115.5611
 21
42.5831
 31
0.0000
  0
LINE
  8
21
 10
115.5611
 20
42.5831
 30
0.0000
 11
115.8746
 21
42.5831
 31
0.0000
  0
LINE
  8
21
 10
115.8746
 20
42.5831
 30
0.0000
 11
116.0314
 21
42.7399
 31
0.0000
  0
LINE
  8
21
 10
116.9669
 20
43.3669
 30
0.0000
 11
116.8101
 21
43.5237
 31
0.0000
  0
LINE
  8
21
 10
116.8101
 20
43.5237
 30
0.0000
 11
116.4966
 21
43.5237
 31
0.0000
  0
LINE
  8
21
 10
116.4966
 20
43.5237
 30
0.0000
 11
116.3398
 21
43.3669
 31
0.0000
  0
LINE
  8
21
 10
116.3398
 20
43.3669
 30
0.0000
 11
116.3398
 21
42.7399
 31
0.0000
  0
LINE
  8
21
 10
116.3398
 20
42.7399
 30
0.0000
 11
116.4966
 21
42.5831
 31
0.0000
  0
LINE
  8
21
 10
116.4966
 20
42.5831
 30
0.0000
 11
116.8101
 21
42.5831
 31
0.0000
  0
LINE
  8
21
 10
116.8101
 20
42.5831
 30
0.0000
 11
116.9669
 21
42.7399
 31
0.0000
  0
LINE
  8
21
 10
1.9352
 20
30.0319
 30
0.0000
 11
1.7784
 21
30.1887
 31
0.0000
  0
LINE
  8
21
 10
1.7784
 20
30.1887
 30
0.0000
 11
1.4649
 21
30.1887
 31
0.0000
  0
LINE
  8
21
 10
1.4649
 20
30.1887
 30
0.0000
 11
1.3081
 21
30.0319
 31
0.0000
  0
LINE
  8
21
 10
1.3081
 20
30.0319
 30
0.0000
 11
1.3081
 21
29.4049
 31
0.0000
  0
LINE
  8
21
 10
1.3081
 20
29.4049
 30
0.0000
 11
1.4649
 21
29.2481
 31
0.0000
  0
LINE
  8
21
 10
1.4649
 20
29.2481
 30
0.0000
 11
1.7784
 21
29.2481
 31
0.0000
  0
LINE
  8
21
 10
1.7784
 20
29.2481
 30
0.0000
 11
1.9352
 21
29.4049
 31
0.0000
  0
LINE
  8
21
 10
2.2436
 20
30.1887
 30
0.0000
 11
2.2436
 21
29.2481
 31
0.0000
  0
LINE
  8
21
 10
2.2436
 20
29.7184
 30
0.0000
 11
2.4004
 21
29.8752
 31
0.0000
  0
LINE
  8
21
 10
2.4004
 20
29.8752
 30
0.0000
 11
2.7139
 21
29.8752
 31
0.0000
  0
LINE
  8
21
 10
2.7139
 20
29.8752
 30
0.0000
 11
2.8707
 21
29.7184
 31
0.0000
  0
LINE
  8
21
 10
2.8707
 20
29.7184
 30
0.0000
 11
2.8707
 21
29.2481
 31
0.0000
  0
LINE
  8
21
 10
3.3359
 20
29.8752
 30
0.0000
 11
3.6494
 21
29.8752
 31
0.0000
  0
LINE
  8
21
 10
3.6494
 20
29.8752
 30
0.0000
 11
3.8062
 21
29.7184
 31
0.0000
  0
LINE
  8
21
 10
3.8062
 20
29.7184
 30
0.0000
 11
3.8062
 21
29.2481
 31
0.0000
  0
LINE
  8
21
 10
3.8062
 20
29.2481
 30
0.0000
 11
3.3359
 21
29.2481
 31
0.0000
  0
LINE
  8
21
 10
3.3359
 20
29.2481
 30
0.0000
 11
3.1791
 21
29.4049
 31
0.0000
  0
LINE
  8
21
 10
3.1791
 20
29.4049
 30
0.0000
 11
3.3359
 21
29.5616
 31
0.0000
  0
LINE
  8
21
 10
3.3359
 20
29.5616
 30
0.0000
 11
3.8062
 21
29.5616
 31
0.0000
  0
LINE
  8
21
 10
4.1147
 20
29.2481
 30
0.0000
 11
4.1147
 21
29.8752
 31
0.0000
  0
LINE
  8
21
 10
4.1147
 20
29.8752
 30
0.0000
 11
4.5850
 21
29.8752
 31
0.0000
  0
LINE
  8
21
 10
4.5850
 20
29.8752
 30
0.0000
 11
4.7417
 21
29.7184
 31
0.0000
  0
LINE
  8
21
 10
4.7417
 20
29.7184
 30
0.0000
 11
4.7417
 21
29.2481
 31
0.0000
  0
LINE
  8
21
 10
5.0502
 20
29.2481
 30
0.0000
 11
5.0502
 21
29.8752
 31
0.0000
  0
LINE
  8
21
 10
5.0502
 20
29.8752
 30
0.0000
 11
5.5205
 21
29.8752
 31
0.0000
  0
LINE
  8
21
 10
5.5205
 20
29.8752
 30
0.0000
 11
5.6772
 21
29.7184
 31
0.0000
  0
LINE
  8
21
 10
5.6772
 20
29.7184
 30
0.0000
 11
5.6772
 21
29.2481
 31
0.0000
  0
LINE
  8
21
 10
6.4560
 20
29.2481
 30
0.0000
 11
6.1425
 21
29.2481
 31
0.0000
  0
LINE
  8
21
 10
6.1425
 20
29.2481
 30
0.0000
 11
5.9857
 21
29.4049
 31
0.0000
  0
LINE
  8
21
 10
5.9857
 20
29.4049
 30
0.0000
 11
5.9857
 21
29.7184
 31
0.0000
  0
LINE
  8
21
 10
5.9857
 20
29.7184
 30
0.0000
 11
6.1425
 21
29.8752
 31
0.0000
  0
LINE
  8
21
 10
6.1425
 20
29.8752
 30
0.0000
 11
6.4560
 21
29.8752
 31
0.0000
  0
LINE
  8
21
 10
6.4560
 20
29.8752
 30
0.0000
 11
6.6128
 21
29.7184
 31
0.0000
  0
LINE
  8
21
 10
6.6128
 20
29.7184
 30
0.0000
 11
6.6128
 21
29.5616
 31
0.0000
  0
LINE
  8
21
 10
6.6128
 20
29.5616
 30
0.0000
 11
5.9857
 21
29.5616
 31
0.0000
  0
LINE
  8
21
 10
6.9212
 20
30.1887
 30
0.0000
 11
7.0780
 21
30.1887
 31
0.0000
  0
LINE
  8
21
 10
7.0780
 20
30.1887
 30
0.0000
 11
7.0780
 21
29.2481
 31
0.0000
  0
LINE
  8
21
 10
6.9212
 20
29.2481
 30
0.0000
 11
7.2347
 21
29.2481
 31
0.0000
  0
LINE
  8
21
 10
7.5449
 20
29.2481
 30
0.0000
 11
8.0152
 21
29.2481
 31
0.0000
  0
LINE
  8
21
 10
8.0152
 20
29.2481
 30
0.0000
 11
8.1720
 21
29.4049
 31
0.0000
  0
LINE
  8
21
 10
8.1720
 20
29.4049
 30
0.0000
 11
8.0152
 21
29.5616
 31
0.0000
  0
LINE
  8
21
 10
8.0152
 20
29.5616
 30
0.0000
 11
7.7017
 21
29.5616
 31
0.0000
  0
LINE
  8
21
 10
7.7017
 20
29.5616
 30
0.0000
 11
7.5449
 21
29.7184
 31
0.0000
  0
LINE
  8
21
 10
7.5449
 20
29.7184
 30
0.0000
 11
7.7017
 21
29.8752
 31
0.0000
  0
LINE
  8
21
 10
7.7017
 20
29.8752
 30
0.0000
 11
8.1720
 21
29.8752
 31
0.0000
  0
LINE
  8
21
 10
8.4804
 20
29.8752
 30
0.0000
 11
8.6372
 21
29.8752
 31
0.0000
  0
LINE
  8
21
 10
8.6372
 20
29.8752
 30
0.0000
 11
8.6372
 21
29.7184
 31
0.0000
  0
LINE
  8
21
 10
8.6372
 20
29.7184
 30
0.0000
 11
8.4804
 21
29.7184
 31
0.0000
  0
LINE
  8
21
 10
8.4804
 20
29.7184
 30
0.0000
 11
8.4804
 21
29.8752
 31
0.0000
  0
LINE
  8
21
 10
8.4804
 20
29.4049
 30
0.0000
 11
8.6372
 21
29.4049
 31
0.0000
  0
LINE
  8
21
 10
8.6372
 20
29.4049
 30
0.0000
 11
8.6372
 21
29.2481
 31
0.0000
  0
LINE
  8
21
 10
8.6372
 20
29.2481
 30
0.0000
 11
8.4804
 21
29.2481
 31
0.0000
  0
LINE
  8
21
 10
8.4804
 20
29.2481
 30
0.0000
 11
8.4804
 21
29.4049
 31
0.0000
  0
LINE
  8
21
 10
9.8837
 20
29.2481
 30
0.0000
 11
9.8837
 21
30.1887
 31
0.0000
  0
LINE
  8
21
 10
9.8837
 20
30.1887
 30
0.0000
 11
10.3540
 21
30.1887
 31
0.0000
  0
LINE
  8
21
 10
10.3540
 20
30.1887
 30
0.0000
 11
10.5108
 21
30.0319
 31
0.0000
  0
LINE
  8
21
 10
10.5108
 20
30.0319
 30
0.0000
 11
10.5108
 21
29.8752
 31
0.0000
  0
LINE
  8
21
 10
10.5108
 20
29.8752
 30
0.0000
 11
10.3540
 21
29.7184
 31
0.0000
  0
LINE
  8
21
 10
10.3540
 20
29.7184
 30
0.0000
 11
10.5108
 21
29.5616
 31
0.0000
  0
LINE
  8
21
 10
10.5108
 20
29.5616
 30
0.0000
 11
10.5108
 21
29.4049
 31
0.0000
  0
LINE
  8
21
 10
10.5108
 20
29.4049
 30
0.0000
 11
10.3540
 21
29.2481
 31
0.0000
  0
LINE
  8
21
 10
10.3540
 20
29.2481
 30
0.0000
 11
9.8837
 21
29.2481
 31
0.0000
  0
LINE
  8
21
 10
9.8837
 20
29.7184
 30
0.0000
 11
10.3540
 21
29.7184
 31
0.0000
  0
LINE
  8
21
 10
12.6902
 20
30.1887
 30
0.0000
 11
12.6902
 21
29.2481
 31
0.0000
  0
LINE
  8
21
 10
14.8731
 20
29.2481
 30
0.0000
 11
14.8731
 21
29.8752
 31
0.0000
  0
LINE
  8
21
 10
14.8731
 20
29.8752
 30
0.0000
 11
15.1867
 21
30.1887
 31
0.0000
  0
LINE
  8
21
 10
15.1867
 20
30.1887
 30
0.0000
 11
15.5002
 21
29.8752
 31
0.0000
  0
LINE
  8
21
 10
15.5002
 20
29.8752
 30
0.0000
 11
15.5002
 21
29.2481
 31
0.0000
  0
LINE
  8
21
 10
14.8731
 20
29.7184
 30
0.0000
 11
15.5002
 21
29.7184
 31
0.0000
  0
LINE
  8
21
 10
23.8506
 20
29.2481
 30
0.0000
 11
23.8506
 21
30.1887
 31
0.0000
  0
LINE
  8
21
 10
23.8506
 20
30.1887
 30
0.0000
 11
24.3209
 21
30.1887
 31
0.0000
  0
LINE
  8
21
 10
24.3209
 20
30.1887
 30
0.0000
 11
24.4777
 21
30.0319
 31
0.0000
  0
LINE
  8
21
 10
24.4777
 20
30.0319
 30
0.0000
 11
24.4777
 21
29.8752
 31
0.0000
  0
LINE
  8
21
 10
24.4777
 20
29.8752
 30
0.0000
 11
24.3209
 21
29.7184
 31
0.0000
  0
LINE
  8
21
 10
24.3209
 20
29.7184
 30
0.0000
 11
24.4777
 21
29.5616
 31
0.0000
  0
LINE
  8
21
 10
24.4777
 20
29.5616
 30
0.0000
 11
24.4777
 21
29.4049
 31
0.0000
  0
LINE
  8
21
 10
24.4777
 20
29.4049
 30
0.0000
 11
24.3209
 21
29.2481
 31
0.0000
  0
LINE
  8
21
 10
24.3209
 20
29.2481
 30
0.0000
 11
23.8506
 21
29.2481
 31
0.0000
  0
LINE
  8
21
 10
23.8506
 20
29.7184
 30
0.0000
 11
24.3209
 21
29.7184
 31
0.0000
  0
LINE
  8
21
 10
26.6572
 20
30.1887
 30
0.0000
 11
26.6572
 21
29.2481
 31
0.0000
  0
LINE
  8
21
 10
28.8400
 20
29.2481
 30
0.0000
 11
28.8400
 21
29.8752
 31
0.0000
  0
LINE
  8
21
 10
28.8400
 20
29.8752
 30
0.0000
 11
29.1536
 21
30.1887
 31
0.0000
  0
LINE
  8
21
 10
29.1536
 20
30.1887
 30
0.0000
 11
29.4671
 21
29.8752
 31
0.0000
  0
LINE
  8
21
 10
29.4671
 20
29.8752
 30
0.0000
 11
29.4671
 21
29.2481
 31
0.0000
  0
LINE
  8
21
 10
28.8400
 20
29.7184
 30
0.0000
 11
29.4671
 21
29.7184
 31
0.0000
  0
LINE
  8
21
 10
9.8806
 20
15.2781
 30
0.0000
 11
9.8806
 21
16.2187
 31
0.0000
  0
LINE
  8
21
 10
9.8806
 20
16.2187
 30
0.0000
 11
10.3509
 21
16.2187
 31
0.0000
  0
LINE
  8
21
 10
10.3509
 20
16.2187
 30
0.0000
 11
10.5077
 21
16.0619
 31
0.0000
  0
LINE
  8
21
 10
10.5077
 20
16.0619
 30
0.0000
 11
10.5077
 21
15.9052
 31
0.0000
  0
LINE
  8
21
 10
10.5077
 20
15.9052
 30
0.0000
 11
10.3509
 21
15.7484
 31
0.0000
  0
LINE
  8
21
 10
10.3509
 20
15.7484
 30
0.0000
 11
10.5077
 21
15.5916
 31
0.0000
  0
LINE
  8
21
 10
10.5077
 20
15.5916
 30
0.0000
 11
10.5077
 21
15.4349
 31
0.0000
  0
LINE
  8
21
 10
10.5077
 20
15.4349
 30
0.0000
 11
10.3509
 21
15.2781
 31
0.0000
  0
LINE
  8
21
 10
10.3509
 20
15.2781
 30
0.0000
 11
9.8806
 21
15.2781
 31
0.0000
  0
LINE
  8
21
 10
9.8806
 20
15.7484
 30
0.0000
 11
10.3509
 21
15.7484
 31
0.0000
  0
LINE
  8
21
 10
12.6872
 20
16.2187
 30
0.0000
 11
12.6872
 21
15.2781
 31
0.0000
  0
LINE
  8
21
 10
14.8700
 20
15.2781
 30
0.0000
 11
14.8700
 21
15.9052
 31
0.0000
  0
LINE
  8
21
 10
14.8700
 20
15.9052
 30
0.0000
 11
15.1836
 21
16.2187
 31
0.0000
  0
LINE
  8
21
 10
15.1836
 20
16.2187
 30
0.0000
 11
15.4971
 21
15.9052
 31
0.0000
  0
LINE
  8
21
 10
15.4971
 20
15.9052
 30
0.0000
 11
15.4971
 21
15.2781
 31
0.0000
  0
LINE
  8
21
 10
14.8700
 20
15.7484
 30
0.0000
 11
15.4971
 21
15.7484
 31
0.0000
  0
LINE
  8
25
 10
1.8669
 20
20.0406
 30
0.0000
 11
0.9263
 21
20.0406
 31
0.0000
  0
LINE
  8
25
 10
0.9263
 20
20.0406
 30
0.0000
 11
0.9263
 21
20.5109
 31
0.0000
  0
LINE
  8
25
 10
0.9263
 20
20.5109
 30
0.0000
 11
1.0831
 21
20.6677
 31
0.0000
  0
LINE
  8
25
 10
1.0831
 20
20.6677
 30
0.0000
 11
1.3966
 21
20.6677
 31
0.0000
  0
LINE
  8
25
 10
1.3966
 20
20.6677
 30
0.0000
 11
1.5534
 21
20.5109
 31
0.0000
  0
LINE
  8
25
 10
1.5534
 20
20.5109
 30
0.0000
 11
1.5534
 21
20.0406
 31
0.0000
  0
LINE
  8
25
 10
2.0237
 20
20.9761
 30
0.0000
 11
2.0237
 21
21.6032
 31
0.0000
  0
LINE
  8
25
 10
1.7101
 20
21.9116
 30
0.0000
 11
1.8669
 21
22.0684
 31
0.0000
  0
LINE
  8
25
 10
1.8669
 20
22.0684
 30
0.0000
 11
1.8669
 21
22.2252
 31
0.0000
  0
LINE
  8
25
 10
1.8669
 20
22.2252
 30
0.0000
 11
1.7101
 21
22.3819
 31
0.0000
  0
LINE
  8
25
 10
1.7101
 20
22.3819
 30
0.0000
 11
0.9263
 21
22.3819
 31
0.0000
  0
LINE
  8
25
 10
0.9263
 20
22.2252
 30
0.0000
 11
0.9263
 21
22.5387
 31
0.0000
  0
LINE
  8
25
 10
1.8669
 20
22.8472
 30
0.0000
 11
0.9263
 21
22.8472
 31
0.0000
  0
LINE
  8
25
 10
0.9263
 20
22.8472
 30
0.0000
 11
1.2398
 21
23.1607
 31
0.0000
  0
LINE
  8
25
 10
1.2398
 20
23.1607
 30
0.0000
 11
0.9263
 21
23.4742
 31
0.0000
  0
LINE
  8
25
 10
0.9263
 20
23.4742
 30
0.0000
 11
1.8669
 21
23.4742
 31
0.0000
  0
LINE
  8
25
 10
1.8669
 20
23.7827
 30
0.0000
 11
0.9263
 21
23.7827
 31
0.0000
  0
LINE
  8
25
 10
0.9263
 20
23.7827
 30
0.0000
 11
0.9263
 21
24.2530
 31
0.0000
  0
LINE
  8
25
 10
0.9263
 20
24.2530
 30
0.0000
 11
1.0831
 21
24.4097
 31
0.0000
  0
LINE
  8
25
 10
1.0831
 20
24.4097
 30
0.0000
 11
1.3966
 21
24.4097
 31
0.0000
  0
LINE
  8
25
 10
1.3966
 20
24.4097
 30
0.0000
 11
1.5534
 21
24.2530
 31
0.0000
  0
LINE
  8
25
 10
1.5534
 20
24.2530
 30
0.0000
 11
1.5534
 21
23.7827
 31
0.0000
  0
LINE
  8
21
 10
0.9263
 20
6.6977
 30
0.0000
 11
0.9263
 21
6.0706
 31
0.0000
  0
LINE
  8
21
 10
0.9263
 20
6.0706
 30
0.0000
 11
1.3966
 21
6.0706
 31
0.0000
  0
LINE
  8
21
 10
1.3966
 20
6.0706
 30
0.0000
 11
1.2398
 21
6.3841
 31
0.0000
  0
LINE
  8
21
 10
1.2398
 20
6.3841
 30
0.0000
 11
1.2398
 21
6.5409
 31
0.0000
  0
LINE
  8
21
 10
1.2398
 20
6.5409
 30
0.0000
 11
1.3966
 21
6.6977
 31
0.0000
  0
LINE
  8
21
 10
1.3966
 20
6.6977
 30
0.0000
 11
1.7101
 21
6.6977
 31
0.0000
  0
LINE
  8
21
 10
1.7101
 20
6.6977
 30
0.0000
 11
1.8669
 21
6.5409
 31
0.0000
  0
LINE
  8
21
 10
1.8669
 20
6.5409
 30
0.0000
 11
1.8669
 21
6.2274
 31
0.0000
  0
LINE
  8
21
 10
1.8669
 20
6.2274
 30
0.0000
 11
1.7101
 21
6.0706
 31
0.0000
  0
LINE
  8
21
 10
0.9263
 20
7.0061
 30
0.0000
 11
1.5534
 21
7.0061
 31
0.0000
  0
LINE
  8
21
 10
1.5534
 20
7.0061
 30
0.0000
 11
1.8669
 21
7.3197
 31
0.0000
  0
LINE
  8
21
 10
1.8669
 20
7.3197
 30
0.0000
 11
1.5534
 21
7.6332
 31
0.0000
  0
LINE
  8
21
 10
1.5534
 20
7.6332
 30
0.0000
 11
0.9263
 21
7.6332
 31
0.0000
  0
LINE
  8
21
 10
1.0831
 20
10.4397
 30
0.0000
 11
0.9263
 21
10.2830
 31
0.0000
  0
LINE
  8
21
 10
0.9263
 20
10.2830
 30
0.0000
 11
0.9263
 21
9.9694
 31
0.0000
  0
LINE
  8
21
 10
0.9263
 20
9.9694
 30
0.0000
 11
1.0831
 21
9.8127
 31
0.0000
  0
LINE
  8
21
 10
1.0831
 20
9.8127
 30
0.0000
 11
1.7101
 21
9.8127
 31
0.0000
  0
LINE
  8
21
 10
1.7101
 20
9.8127
 30
0.0000
 11
1.8669
 21
9.9694
 31
0.0000
  0
LINE
  8
21
 10
1.8669
 20
9.9694
 30
0.0000
 11
1.8669
 21
10.2830
 31
0.0000
  0
LINE
  8
21
 10
1.8669
 20
10.2830
 30
0.0000
 11
1.7101
 21
10.4397
 31
0.0000
  0
LINE
  8
21
 10
1.7101
 20
10.4397
 30
0.0000
 11
1.3966
 21
10.4397
 31
0.0000
  0
LINE
  8
21
 10
1.3966
 20
10.4397
 30
0.0000
 11
1.3966
 21
10.1262
 31
0.0000
  0
LINE
  8
21
 10
1.8669
 20
10.7482
 30
0.0000
 11
0.9263
 21
10.7482
 31
0.0000
  0
LINE
  8
21
 10
0.9263
 20
10.7482
 30
0.0000
 11
1.8669
 21
11.3753
 31
0.0000
  0
LINE
  8
21
 10
1.8669
 20
11.3753
 30
0.0000
 11
0.9263
 21
11.3753
 31
0.0000
  0
LINE
  8
21
 10
0.9263
 20
11.6837
 30
0.0000
 11
1.8669
 21
11.6837
 31
0.0000
  0
LINE
  8
21
 10
1.8669
 20
11.6837
 30
0.0000
 11
1.8669
 21
12.1540
 31
0.0000
  0
LINE
  8
21
 10
1.8669
 20
12.1540
 30
0.0000
 11
1.7101
 21
12.3108
 31
0.0000
  0
LINE
  8
21
 10
1.7101
 20
12.3108
 30
0.0000
 11
1.0831
 21
12.3108
 31
0.0000
  0
LINE
  8
21
 10
1.0831
 20
12.3108
 30
0.0000
 11
0.9263
 21
12.1540
 31
0.0000
  0
LINE
  8
21
 10
0.9263
 20
12.1540
 30
0.0000
 11
0.9263
 21
11.6837
 31
0.0000
  0
LINE
  8
21
 10
37.8206
 20
29.2481
 30
0.0000
 11
37.8206
 21
30.1887
 31
0.0000
  0
LINE
  8
21
 10
37.8206
 20
30.1887
 30
0.0000
 11
38.2909
 21
30.1887
 31
0.0000
  0
LINE
  8
21
 10
38.2909
 20
30.1887
 30
0.0000
 11
38.4477
 21
30.0319
 31
0.0000
  0
LINE
  8
21
 10
38.4477
 20
30.0319
 30
0.0000
 11
38.4477
 21
29.8752
 31
0.0000
  0
LINE
  8
21
 10
38.4477
 20
29.8752
 30
0.0000
 11
38.2909
 21
29.7184
 31
0.0000
  0
LINE
  8
21
 10
38.2909
 20
29.7184
 30
0.0000
 11
38.4477
 21
29.5616
 31
0.0000
  0
LINE
  8
21
 10
38.4477
 20
29.5616
 30
0.0000
 11
38.4477
 21
29.4049
 31
0.0000
  0
LINE
  8
21
 10
38.4477
 20
29.4049
 30
0.0000
 11
38.2909
 21
29.2481
 31
0.0000
  0
LINE
  8
21
 10
38.2909
 20
29.2481
 30
0.0000
 11
37.8206
 21
29.2481
 31
0.0000
  0
LINE
  8
21
 10
37.8206
 20
29.7184
 30
0.0000
 11
38.2909
 21
29.7184
 31
0.0000
  0
LINE
  8
21
 10
40.6272
 20
30.1887
 30
0.0000
 11
40.6272
 21
29.2481
 31
0.0000
  0
LINE
  8
21
 10
42.8100
 20
29.2481
 30
0.0000
 11
42.8100
 21
29.8752
 31
0.0000
  0
LINE
  8
21
 10
42.8100
 20
29.8752
 30
0.0000
 11
43.1236
 21
30.1887
 31
0.0000
  0
LINE
  8
21
 10
43.1236
 20
30.1887
 30
0.0000
 11
43.4371
 21
29.8752
 31
0.0000
  0
LINE
  8
21
 10
43.4371
 20
29.8752
 30
0.0000
 11
43.4371
 21
29.2481
 31
0.0000
  0
LINE
  8
21
 10
42.8100
 20
29.7184
 30
0.0000
 11
43.4371
 21
29.7184
 31
0.0000
  0
LINE
  8
21
 10
51.7906
 20
29.2481
 30
0.0000
 11
51.7906
 21
30.1887
 31
0.0000
  0
LINE
  8
21
 10
51.7906
 20
30.1887
 30
0.0000
 11
52.2609
 21
30.1887
 31
0.0000
  0
LINE
  8
21
 10
52.2609
 20
30.1887
 30
0.0000
 11
52.4177
 21
30.0319
 31
0.0000
  0
LINE
  8
21
 10
52.4177
 20
30.0319
 30
0.0000
 11
52.4177
 21
29.8752
 31
0.0000
  0
LINE
  8
21
 10
52.4177
 20
29.8752
 30
0.0000
 11
52.2609
 21
29.7184
 31
0.0000
  0
LINE
  8
21
 10
52.2609
 20
29.7184
 30
0.0000
 11
52.4177
 21
29.5616
 31
0.0000
  0
LINE
  8
21
 10
52.4177
 20
29.5616
 30
0.0000
 11
52.4177
 21
29.4049
 31
0.0000
  0
LINE
  8
21
 10
52.4177
 20
29.4049
 30
0.0000
 11
52.2609
 21
29.2481
 31
0.0000
  0
LINE
  8
21
 10
52.2609
 20
29.2481
 30
0.0000
 11
51.7906
 21
29.2481
 31
0.0000
  0
LINE
  8
21
 10
51.7906
 20
29.7184
 30
0.0000
 11
52.2609
 21
29.7184
 31
0.0000
  0
LINE
  8
21
 10
54.5972
 20
30.1887
 30
0.0000
 11
54.5972
 21
29.2481
 31
0.0000
  0
LINE
  8
21
 10
56.7800
 20
29.2481
 30
0.0000
 11
56.7800
 21
29.8752
 31
0.0000
  0
LINE
  8
21
 10
56.7800
 20
29.8752
 30
0.0000
 11
57.0936
 21
30.1887
 31
0.0000
  0
LINE
  8
21
 10
57.0936
 20
30.1887
 30
0.0000
 11
57.4071
 21
29.8752
 31
0.0000
  0
LINE
  8
21
 10
57.4071
 20
29.8752
 30
0.0000
 11
57.4071
 21
29.2481
 31
0.0000
  0
LINE
  8
21
 10
56.7800
 20
29.7184
 30
0.0000
 11
57.4071
 21
29.7184
 31
0.0000
  0
LINE
  8
21
 10
65.7606
 20
29.2481
 30
0.0000
 11
65.7606
 21
30.1887
 31
0.0000
  0
LINE
  8
21
 10
65.7606
 20
30.1887
 30
0.0000
 11
66.2309
 21
30.1887
 31
0.0000
  0
LINE
  8
21
 10
66.2309
 20
30.1887
 30
0.0000
 11
66.3877
 21
30.0319
 31
0.0000
  0
LINE
  8
21
 10
66.3877
 20
30.0319
 30
0.0000
 11
66.3877
 21
29.8752
 31
0.0000
  0
LINE
  8
21
 10
66.3877
 20
29.8752
 30
0.0000
 11
66.2309
 21
29.7184
 31
0.0000
  0
LINE
  8
21
 10
66.2309
 20
29.7184
 30
0.0000
 11
66.3877
 21
29.5616
 31
0.0000
  0
LINE
  8
21
 10
66.3877
 20
29.5616
 30
0.0000
 11
66.3877
 21
29.4049
 31
0.0000
  0
LINE
  8
21
 10
66.3877
 20
29.4049
 30
0.0000
 11
66.2309
 21
29.2481
 31
0.0000
  0
LINE
  8
21
 10
66.2309
 20
29.2481
 30
0.0000
 11
65.7606
 21
29.2481
 31
0.0000
  0
LINE
  8
21
 10
65.7606
 20
29.7184
 30
0.0000
 11
66.2309
 21
29.7184
 31
0.0000
  0
LINE
  8
21
 10
68.5672
 20
30.1887
 30
0.0000
 11
68.5672
 21
29.2481
 31
0.0000
  0
LINE
  8
21
 10
70.7500
 20
29.2481
 30
0.0000
 11
70.7500
 21
29.8752
 31
0.0000
  0
LINE
  8
21
 10
70.7500
 20
29.8752
 30
0.0000
 11
71.0636
 21
30.1887
 31
0.0000
  0
LINE
  8
21
 10
71.0636
 20
30.1887
 30
0.0000
 11
71.3771
 21
29.8752
 31
0.0000
  0
LINE
  8
21
 10
71.3771
 20
29.8752
 30
0.0000
 11
71.3771
 21
29.2481
 31
0.0000
  0
LINE
  8
21
 10
70.7500
 20
29.7184
 30
0.0000
 11
71.3771
 21
29.7184
 31
0.0000
  0
LINE
  8
21
 10
79.7306
 20
29.2481
 30
0.0000
 11
79.7306
 21
30.1887
 31
0.0000
  0
LINE
  8
21
 10
79.7306
 20
30.1887
 30
0.0000
 11
80.2009
 21
30.1887
 31
0.0000
  0
LINE
  8
21
 10
80.2009
 20
30.1887
 30
0.0000
 11
80.3577
 21
30.0319
 31
0.0000
  0
LINE
  8
21
 10
80.3577
 20
30.0319
 30
0.0000
 11
80.3577
 21
29.8752
 31
0.0000
  0
LINE
  8
21
 10
80.3577
 20
29.8752
 30
0.0000
 11
80.2009
 21
29.7184
 31
0.0000
  0
LINE
  8
21
 10
80.2009
 20
29.7184
 30
0.0000
 11
80.3577
 21
29.5616
 31
0.0000
  0
LINE
  8
21
 10
80.3577
 20
29.5616
 30
0.0000
 11
80.3577
 21
29.4049
 31
0.0000
  0
LINE
  8
21
 10
80.3577
 20
29.4049
 30
0.0000
 11
80.2009
 21
29.2481
 31
0.0000
  0
LINE
  8
21
 10
80.2009
 20
29.2481
 30
0.0000
 11
79.7306
 21
29.2481
 31
0.0000
  0
LINE
  8
21
 10
79.7306
 20
29.7184
 30
0.0000
 11
80.2009
 21
29.7184
 31
0.0000
  0
LINE
  8
21
 10
82.5372
 20
30.1887
 30
0.0000
 11
82.5372
 21
29.2481
 31
0.0000
  0
LINE
  8
21
 10
84.7200
 20
29.2481
 30
0.0000
 11
84.7200
 21
29.8752
 31
0.0000
  0
LINE
  8
21
 10
84.7200
 20
29.8752
 30
0.0000
 11
85.0336
 21
30.1887
 31
0.0000
  0
LINE
  8
21
 10
85.0336
 20
30.1887
 30
0.0000
 11
85.3471
 21
29.8752
 31
0.0000
  0
LINE
  8
21
 10
85.3471
 20
29.8752
 30
0.0000
 11
85.3471
 21
29.2481
 31
0.0000
  0
LINE
  8
21
 10
84.7200
 20
29.7184
 30
0.0000
 11
85.3471
 21
29.7184
 31
0.0000
  0
LINE
  8
21
 10
93.7006
 20
29.2481
 30
0.0000
 11
93.7006
 21
30.1887
 31
0.0000
  0
LINE
  8
21
 10
93.7006
 20
30.1887
 30
0.0000
 11
94.1709
 21
30.1887
 31
0.0000
  0
LINE
  8
21
 10
94.1709
 20
30.1887
 30
0.0000
 11
94.3277
 21
30.0319
 31
0.0000
  0
LINE
  8
21
 10
94.3277
 20
30.0319
 30
0.0000
 11
94.3277
 21
29.8752
 31
0.0000
  0
LINE
  8
21
 10
94.3277
 20
29.8752
 30
0.0000
 11
94.1709
 21
29.7184
 31
0.0000
  0
LINE
  8
21
 10
94.1709
 20
29.7184
 30
0.0000
 11
94.3277
 21
29.5616
 31
0.0000
  0
LINE
  8
21
 10
94.3277
 20
29.5616
 30
0.0000
 11
94.3277
 21
29.4049
 31
0.0000
  0
LINE
  8
21
 10
94.3277
 20
29.4049
 30
0.0000
 11
94.1709
 21
29.2481
 31
0.0000
  0
LINE
  8
21
 10
94.1709
 20
29.2481
 30
0.0000
 11
93.7006
 21
29.2481
 31
0.0000
  0
LINE
  8
21
 10
93.7006
 20
29.7184
 30
0.0000
 11
94.1709
 21
29.7184
 31
0.0000
  0
LINE
  8
21
 10
96.5072
 20
30.1887
 30
0.0000
 11
96.5072
 21
29.2481
 31
0.0000
  0
LINE
  8
21
 10
98.6900
 20
29.2481
 30
0.0000
 11
98.6900
 21
29.8752
 31
0.0000
  0
LINE
  8
21
 10
98.6900
 20
29.8752
 30
0.0000
 11
99.0036
 21
30.1887
 31
0.0000
  0
LINE
  8
21
 10
99.0036
 20
30.1887
 30
0.0000
 11
99.3171
 21
29.8752
 31
0.0000
  0
LINE
  8
21
 10
99.3171
 20
29.8752
 30
0.0000
 11
99.3171
 21
29.2481
 31
0.0000
  0
LINE
  8
21
 10
98.6900
 20
29.7184
 30
0.0000
 11
99.3171
 21
29.7184
 31
0.0000
  0
LINE
  8
21
 10
107.6706
 20
29.2481
 30
0.0000
 11
107.6706
 21
30.1887
 31
0.0000
  0
LINE
  8
21
 10
107.6706
 20
30.1887
 30
0.0000
 11
108.1409
 21
30.1887
 31
0.0000
  0
LINE
  8
21
 10
108.1409
 20
30.1887
 30
0.0000
 11
108.2977
 21
30.0319
 31
0.0000
  0
LINE
  8
21
 10
108.2977
 20
30.0319
 30
0.0000
 11
108.2977
 21
29.8752
 31
0.0000
  0
LINE
  8
21
 10
108.2977
 20
29.8752
 30
0.0000
 11
108.1409
 21
29.7184
 31
0.0000
  0
LINE
  8
21
 10
108.1409
 20
29.7184
 30
0.0000
 11
108.2977
 21
29.5616
 31
0.0000
  0
LINE
  8
21
 10
108.2977
 20
29.5616
 30
0.0000
 11
108.2977
 21
29.4049
 31
0.0000
  0
LINE
  8
21
 10
108.2977
 20
29.4049
 30
0.0000
 11
108.1409
 21
29.2481
 31
0.0000
  0
LINE
  8
21
 10
108.1409
 20
29.2481
 30
0.0000
 11
107.6706
 21
29.2481
 31
0.0000
  0
LINE
  8
21
 10
107.6706
 20
29.7184
 30
0.0000
 11
108.1409
 21
29.7184
 31
0.0000
  0
LINE
  8
21
 10
110.4772
 20
30.1887
 30
0.0000
 11
110.4772
 21
29.2481
 31
0.0000
  0
LINE
  8
21
 10
112.6600
 20
29.2481
 30
0.0000
 11
112.6600
 21
29.8752
 31
0.0000
  0
LINE
  8
21
 10
112.6600
 20
29.8752
 30
0.0000
 11
112.9736
 21
30.1887
 31
0.0000
  0
LINE
  8
21
 10
112.9736
 20
30.1887
 30
0.0000
 11
113.2871
 21
29.8752
 31
0.0000
  0
LINE
  8
21
 10
113.2871
 20
29.8752
 30
0.0000
 11
113.2871
 21
29.2481
 31
0.0000
  0
LINE
  8
21
 10
112.6600
 20
29.7184
 30
0.0000
 11
113.2871
 21
29.7184
 31
0.0000
  0
LINE
  8
25
 10
38.5481
 20
6.6977
 30
0.0000
 11
38.3913
 21
6.5409
 31
0.0000
  0
LINE
  8
25
 10
38.3913
 20
6.5409
 30
0.0000
 11
38.3913
 21
6.2274
 31
0.0000
  0
LINE
  8
25
 10
38.3913
 20
6.2274
 30
0.0000
 11
38.5481
 21
6.0706
 31
0.0000
  0
LINE
  8
25
 10
38.5481
 20
6.0706
 30
0.0000
 11
39.1751
 21
6.0706
 31
0.0000
  0
LINE
  8
25
 10
39.1751
 20
6.0706
 30
0.0000
 11
39.3319
 21
6.2274
 31
0.0000
  0
LINE
  8
25
 10
39.3319
 20
6.2274
 30
0.0000
 11
39.3319
 21
6.5409
 31
0.0000
  0
LINE
  8
25
 10
39.3319
 20
6.5409
 30
0.0000
 11
39.1751
 21
6.6977
 31
0.0000
  0
LINE
  8
25
 10
39.1751
 20
6.6977
 30
0.0000
 11
38.8616
 21
6.6977
 31
0.0000
  0
LINE
  8
25
 10
38.8616
 20
6.6977
 30
0.0000
 11
38.8616
 21
6.3841
 31
0.0000
  0
LINE
  8
25
 10
39.3319
 20
7.0061
 30
0.0000
 11
38.3913
 21
7.0061
 31
0.0000
  0
LINE
  8
25
 10
38.3913
 20
7.0061
 30
0.0000
 11
39.3319
 21
7.6332
 31
0.0000
  0
LINE
  8
25
 10
39.3319
 20
7.6332
 30
0.0000
 11
38.3913
 21
7.6332
 31
0.0000
  0
LINE
  8
25
 10
38.3913
 20
7.9416
 30
0.0000
 11
39.3319
 21
7.9416
 31
0.0000
  0
LINE
  8
25
 10
39.3319
 20
7.9416
 30
0.0000
 11
39.3319
 21
8.4119
 31
0.0000
  0
LINE
  8
25
 10
39.3319
 20
8.4119
 30
0.0000
 11
39.1751
 21
8.5687
 31
0.0000
  0
LINE
  8
25
 10
39.1751
 20
8.5687
 30
0.0000
 11
38.5481
 21
8.5687
 31
0.0000
  0
LINE
  8
25
 10
38.5481
 20
8.5687
 30
0.0000
 11
38.3913
 21
8.4119
 31
0.0000
  0
LINE
  8
25
 10
38.3913
 20
8.4119
 30
0.0000
 11
38.3913
 21
7.9416
 31
0.0000
  0
LINE
  8
25
 10
41.0881
 20
6.6977
 30
0.0000
 11
40.9313
 21
6.5409
 31
0.0000
  0
LINE
  8
25
 10
40.9313
 20
6.5409
 30
0.0000
 11
40.9313
 21
6.2274
 31
0.0000
  0
LINE
  8
25
 10
40.9313
 20
6.2274
 30
0.0000
 11
41.0881
 21
6.0706
 31
0.0000
  0
LINE
  8
25
 10
41.0881
 20
6.0706
 30
0.0000
 11
41.2448
 21
6.0706
 31
0.0000
  0
LINE
  8
25
 10
41.2448
 20
6.0706
 30
0.0000
 11
41.4016
 21
6.2274
 31
0.0000
  0
LINE
  8
25
 10
41.4016
 20
6.2274
 30
0.0000
 11
41.4016
 21
6.5409
 31
0.0000
  0
LINE
  8
25
 10
41.4016
 20
6.5409
 30
0.0000
 11
41.5584
 21
6.6977
 31
0.0000
  0
LINE
  8
25
 10
41.5584
 20
6.6977
 30
0.0000
 11
41.7151
 21
6.6977
 31
0.0000
  0
LINE
  8
25
 10
41.7151
 20
6.6977
 30
0.0000
 11
41.8719
 21
6.5409
 31
0.0000
  0
LINE
  8
25
 10
41.8719
 20
6.5409
 30
0.0000
 11
41.8719
 21
6.2274
 31
0.0000
  0
LINE
  8
25
 10
41.8719
 20
6.2274
 30
0.0000
 11
41.7151
 21
6.0706
 31
0.0000
  0
LINE
  8
25
 10
41.0881
 20
7.6332
 30
0.0000
 11
40.9313
 21
7.4764
 31
0.0000
  0
LINE
  8
25
 10
40.9313
 20
7.4764
 30
0.0000
 11
40.9313
 21
7.1629
 31
0.0000
  0
LINE
  8
25
 10
40.9313
 20
7.1629
 30
0.0000
 11
41.0881
 21
7.0061
 31
0.0000
  0
LINE
  8
25
 10
41.0881
 20
7.0061
 30
0.0000
 11
41.7151
 21
7.0061
 31
0.0000
  0
LINE
  8
25
 10
41.7151
 20
7.0061
 30
0.0000
 11
41.8719
 21
7.1629
 31
0.0000
  0
LINE
  8
25
 10
41.8719
 20
7.1629
 30
0.0000
 11
41.8719
 21
7.4764
 31
0.0000
  0
LINE
  8
25
 10
41.8719
 20
7.4764
 30
0.0000
 11
41.7151
 21
7.6332
 31
0.0000
  0
LINE
  8
25
 10
40.9313
 20
7.9416
 30
0.0000
 11
41.8719
 21
7.9416
 31
0.0000
  0
LINE
  8
25
 10
41.8719
 20
7.9416
 30
0.0000
 11
41.8719
 21
8.5687
 31
0.0000
  0
LINE
  8
25
 10
43.6281
 20
6.6977
 30
0.0000
 11
43.4713
 21
6.5409
 31
0.0000
  0
LINE
  8
25
 10
43.4713
 20
6.5409
 30
0.0000
 11
43.4713
 21
6.2274
 31
0.0000
  0
LINE
  8
25
 10
43.4713
 20
6.2274
 30
0.0000
 11
43.6281
 21
6.0706
 31
0.0000
  0
LINE
  8
25
 10
43.6281
 20
6.0706
 30
0.0000
 11
43.7848
 21
6.0706
 31
0.0000
  0
LINE
  8
25
 10
43.7848
 20
6.0706
 30
0.0000
 11
43.9416
 21
6.2274
 31
0.0000
  0
LINE
  8
25
 10
43.9416
 20
6.2274
 30
0.0000
 11
43.9416
 21
6.5409
 31
0.0000
  0
LINE
  8
25
 10
43.9416
 20
6.5409
 30
0.0000
 11
44.0984
 21
6.6977
 31
0.0000
  0
LINE
  8
25
 10
44.0984
 20
6.6977
 30
0.0000
 11
44.2551
 21
6.6977
 31
0.0000
  0
LINE
  8
25
 10
44.2551
 20
6.6977
 30
0.0000
 11
44.4119
 21
6.5409
 31
0.0000
  0
LINE
  8
25
 10
44.4119
 20
6.5409
 30
0.0000
 11
44.4119
 21
6.2274
 31
0.0000
  0
LINE
  8
25
 10
44.4119
 20
6.2274
 30
0.0000
 11
44.2551
 21
6.0706
 31
0.0000
  0
LINE
  8
25
 10
43.4713
 20
7.0061
 30
0.0000
 11
44.4119
 21
7.0061
 31
0.0000
  0
LINE
  8
25
 10
44.4119
 20
7.0061
 30
0.0000
 11
44.4119
 21
7.4764
 31
0.0000
  0
LINE
  8
25
 10
44.4119
 20
7.4764
 30
0.0000
 11
44.2551
 21
7.6332
 31
0.0000
  0
LINE
  8
25
 10
44.2551
 20
7.6332
 30
0.0000
 11
43.6281
 21
7.6332
 31
0.0000
  0
LINE
  8
25
 10
43.6281
 20
7.6332
 30
0.0000
 11
43.4713
 21
7.4764
 31
0.0000
  0
LINE
  8
25
 10
43.4713
 20
7.4764
 30
0.0000
 11
43.4713
 21
7.0061
 31
0.0000
  0
LINE
  8
25
 10
44.4119
 20
7.9416
 30
0.0000
 11
43.7848
 21
7.9416
 31
0.0000
  0
LINE
  8
25
 10
43.7848
 20
7.9416
 30
0.0000
 11
43.4713
 21
8.2552
 31
0.0000
  0
LINE
  8
25
 10
43.4713
 20
8.2552
 30
0.0000
 11
43.7848
 21
8.5687
 31
0.0000
  0
LINE
  8
25
 10
43.7848
 20
8.5687
 30
0.0000
 11
44.4119
 21
8.5687
 31
0.0000
  0
LINE
  8
25
 10
43.9416
 20
7.9416
 30
0.0000
 11
43.9416
 21
8.5687
 31
0.0000
  0
INSERT
  8
51
  2
RECT
 10
13.9700
 20
1.9050
 30
0.0000
 41
0.5080
 42
0.5080
 43
1.0000
 50
180.0000
  0
INSERT
  8
51
  2
RECT
 10
11.4300
 20
1.9050
 30
0.0000
 41
0.5080
 42
0.5080
 43
1.0000
 50
180.0000
  0
INSERT
  8
51
  2
RECT
 10
11.4300
 20
4.4450
 30
0.0000
 41
0.5080
 42
0.5080
 43
1.0000
 50
180.0000
  0
INSERT
  8
51
  2
RECT
 10
13.9700
 20
4.4450
 30
0.0000
 41
0.5080
 42
0.5080
 43
1.0000
 50
180.0000
  0
INSERT
  8
51
  2
RECT
 10
11.4300
 20
6.9850
 30
0.0000
 41
0.5080
 42
0.5080
 43
1.0000
 50
180.0000
  0
INSERT
  8
51
  2
RECT
 10
13.9700
 20
6.9850
 30
0.0000
 41
0.5080
 42
0.5080
 43
1.0000
 50
180.0000
  0
INSERT
  8
51
  2
RECT
 10
11.4300
 20
12.0650
 30
0.0000
 41
0.5080
 42
0.5080
 43
1.0000
 50
180.0000
  0
INSERT
  8
51
  2
RECT
 10
13.9700
 20
12.0650
 30
0.0000
 41
0.5080
 42
0.5080
 43
1.0000
 50
180.0000
  0
INSERT
  8
51
  2
RECT
 10
13.9700
 20
9.5250
 30
0.0000
 41
0.5080
 42
0.5080
 43
1.0000
 50
180.0000
  0
INSERT
  8
51
  2
RECT
 10
11.4300
 20
9.5250
 30
0.0000
 41
0.5080
 42
0.5080
 43
1.0000
 50
180.0000
  0
INSERT
  8
51
  2
RECT
 10
13.9700
 20
33.0200
 30
0.0000
 41
0.5080
 42
0.5080
 43
1.0000
 50
180.0000
  0
INSERT
  8
51
  2
RECT
 10
11.4300
 20
33.0200
 30
0.0000
 41
0.5080
 42
0.5080
 43
1.0000
 50
180.0000
  0
INSERT
  8
51
  2
RECT
 10
11.4300
 20
35.5600
 30
0.0000
 41
0.5080
 42
0.5080
 43
1.0000
 50
180.0000
  0
INSERT
  8
51
  2
RECT
 10
13.9700
 20
35.5600
 30
0.0000
 41
0.5080
 42
0.5080
 43
1.0000
 50
180.0000
  0
INSERT
  8
51
  2
RECT
 10
11.4300
 20
38.1000
 30
0.0000
 41
0.5080
 42
0.5080
 43
1.0000
 50
180.0000
  0
INSERT
  8
51
  2
RECT
 10
13.9700
 20
38.1000
 30
0.0000
 41
0.5080
 42
0.5080
 43
1.0000
 50
180.0000
  0
INSERT
  8
51
  2
RECT
 10
11.4300
 20
43.1800
 30
0.0000
 41
0.5080
 42
0.5080
 43
1.0000
 50
180.0000
  0
INSERT
  8
51
  2
RECT
 10
13.9700
 20
43.1800
 30
0.0000
 41
0.5080
 42
0.5080
 43
1.0000
 50
180.0000
  0
INSERT
  8
51
  2
RECT
 10
13.9700
 20
40.6400
 30
0.0000
 41
0.5080
 42
0.5080
 43
1.0000
 50
180.0000
  0
INSERT
  8
51
  2
RECT
 10
11.4300
 20
40.6400
 30
0.0000
 41
0.5080
 42
0.5080
 43
1.0000
 50
180.0000
  0
INSERT
  8
51
  2
RECT
 10
27.9400
 20
33.0200
 30
0.0000
 41
0.5080
 42
0.5080
 43
1.0000
 50
180.0000
  0
INSERT
  8
51
  2
RECT
 10
25.4000
 20
33.0200
 30
0.0000
 41
0.5080
 42
0.5080
 43
1.0000
 50
180.0000
  0
INSERT
  8
51
  2
RECT
 10
25.4000
 20
35.5600
 30
0.0000
 41
0.5080
 42
0.5080
 43
1.0000
 50
180.0000
  0
INSERT
  8
51
  2
RECT
 10
27.9400
 20
35.5600
 30
0.0000
 41
0.5080
 42
0.5080
 43
1.0000
 50
180.0000
  0
INSERT
  8
51
  2
RECT
 10
25.4000
 20
38.1000
 30
0.0000
 41
0.5080
 42
0.5080
 43
1.0000
 50
180.0000
  0
INSERT
  8
51
  2
RECT
 10
27.9400
 20
38.1000
 30
0.0000
 41
0.5080
 42
0.5080
 43
1.0000
 50
180.0000
  0
INSERT
  8
51
  2
RECT
 10
25.4000
 20
43.1800
 30
0.0000
 41
0.5080
 42
0.5080
 43
1.0000
 50
180.0000
  0
INSERT
  8
51
  2
RECT
 10
27.9400
 20
43.1800
 30
0.0000
 41
0.5080
 42
0.5080
 43
1.0000
 50
180.0000
  0
INSERT
  8
51
  2
RECT
 10
27.9400
 20
40.6400
 30
0.0000
 41
0.5080
 42
0.5080
 43
1.0000
 50
180.0000
  0
INSERT
  8
51
  2
RECT
 10
25.4000
 20
40.6400
 30
0.0000
 41
0.5080
 42
0.5080
 43
1.0000
 50
180.0000
  0
INSERT
  8
51
  2
RECT
 10
41.9100
 20
33.0200
 30
0.0000
 41
0.5080
 42
0.5080
 43
1.0000
 50
180.0000
  0
INSERT
  8
51
  2
RECT
 10
39.3700
 20
33.0200
 30
0.0000
 41
0.5080
 42
0.5080
 43
1.0000
 50
180.0000
  0
INSERT
  8
51
  2
RECT
 10
39.3700
 20
35.5600
 30
0.0000
 41
0.5080
 42
0.5080
 43
1.0000
 50
180.0000
  0
INSERT
  8
51
  2
RECT
 10
41.9100
 20
35.5600
 30
0.0000
 41
0.5080
 42
0.5080
 43
1.0000
 50
180.0000
  0
INSERT
  8
51
  2
RECT
 10
39.3700
 20
38.1000
 30
0.0000
 41
0.5080
 42
0.5080
 43
1.0000
 50
180.0000
  0
INSERT
  8
51
  2
RECT
 10
41.9100
 20
38.1000
 30
0.0000
 41
0.5080
 42
0.5080
 43
1.0000
 50
180.0000
  0
INSERT
  8
51
  2
RECT
 10
39.3700
 20
43.1800
 30
0.0000
 41
0.5080
 42
0.5080
 43
1.0000
 50
180.0000
  0
INSERT
  8
51
  2
RECT
 10
41.9100
 20
43.1800
 30
0.0000
 41
0.5080
 42
0.5080
 43
1.0000
 50
180.0000
  0
INSERT
  8
51
  2
RECT
 10
41.9100
 20
40.6400
 30
0.0000
 41
0.5080
 42
0.5080
 43
1.0000
 50
180.0000
  0
INSERT
  8
51
  2
RECT
 10
39.3700
 20
40.6400
 30
0.0000
 41
0.5080
 42
0.5080
 43
1.0000
 50
180.0000
  0
INSERT
  8
51
  2
RECT
 10
55.8800
 20
33.0200
 30
0.0000
 41
0.5080
 42
0.5080
 43
1.0000
 50
180.0000
  0
INSERT
  8
51
  2
RECT
 10
53.3400
 20
33.0200
 30
0.0000
 41
0.5080
 42
0.5080
 43
1.0000
 50
180.0000
  0
INSERT
  8
51
  2
RECT
 10
53.3400
 20
35.5600
 30
0.0000
 41
0.5080
 42
0.5080
 43
1.0000
 50
180.0000
  0
INSERT
  8
51
  2
RECT
 10
55.8800
 20
35.5600
 30
0.0000
 41
0.5080
 42
0.5080
 43
1.0000
 50
180.0000
  0
INSERT
  8
51
  2
RECT
 10
53.3400
 20
38.1000
 30
0.0000
 41
0.5080
 42
0.5080
 43
1.0000
 50
180.0000
  0
INSERT
  8
51
  2
RECT
 10
55.8800
 20
38.1000
 30
0.0000
 41
0.5080
 42
0.5080
 43
1.0000
 50
180.0000
  0
INSERT
  8
51
  2
RECT
 10
53.3400
 20
43.1800
 30
0.0000
 41
0.5080
 42
0.5080
 43
1.0000
 50
180.0000
  0
INSERT
  8
51
  2
RECT
 10
55.8800
 20
43.1800
 30
0.0000
 41
0.5080
 42
0.5080
 43
1.0000
 50
180.0000
  0
INSERT
  8
51
  2
RECT
 10
55.8800
 20
40.6400
 30
0.0000
 41
0.5080
 42
0.5080
 43
1.0000
 50
180.0000
  0
INSERT
  8
51
  2
RECT
 10
53.3400
 20
40.6400
 30
0.0000
 41
0.5080
 42
0.5080
 43
1.0000
 50
180.0000
  0
INSERT
  8
51
  2
RECT
 10
69.8500
 20
33.0200
 30
0.0000
 41
0.5080
 42
0.5080
 43
1.0000
 50
180.0000
  0
INSERT
  8
51
  2
RECT
 10
67.3100
 20
33.0200
 30
0.0000
 41
0.5080
 42
0.5080
 43
1.0000
 50
180.0000
  0
INSERT
  8
51
  2
RECT
 10
67.3100
 20
35.5600
 30
0.0000
 41
0.5080
 42
0.5080
 43
1.0000
 50
180.0000
  0
INSERT
  8
51
  2
RECT
 10
69.8500
 20
35.5600
 30
0.0000
 41
0.5080
 42
0.5080
 43
1.0000
 50
180.0000
  0
INSERT
  8
51
  2
RECT
 10
67.3100
 20
38.1000
 30
0.0000
 41
0.5080
 42
0.5080
 43
1.0000
 50
180.0000
  0
INSERT
  8
51
  2
RECT
 10
69.8500
 20
38.1000
 30
0.0000
 41
0.5080
 42
0.5080
 43
1.0000
 50
180.0000
  0
INSERT
  8
51
  2
RECT
 10
67.3100
 20
43.1800
 30
0.0000
 41
0.5080
 42
0.5080
 43
1.0000
 50
180.0000
  0
INSERT
  8
51
  2
RECT
 10
69.8500
 20
43.1800
 30
0.0000
 41
0.5080
 42
0.5080
 43
1.0000
 50
180.0000
  0
INSERT
  8
51
  2
RECT
 10
69.8500
 20
40.6400
 30
0.0000
 41
0.5080
 42
0.5080
 43
1.0000
 50
180.0000
  0
INSERT
  8
51
  2
RECT
 10
67.3100
 20
40.6400
 30
0.0000
 41
0.5080
 42
0.5080
 43
1.0000
 50
180.0000
  0
INSERT
  8
51
  2
RECT
 10
83.8200
 20
33.0200
 30
0.0000
 41
0.5080
 42
0.5080
 43
1.0000
 50
180.0000
  0
INSERT
  8
51
  2
RECT
 10
81.2800
 20
33.0200
 30
0.0000
 41
0.5080
 42
0.5080
 43
1.0000
 50
180.0000
  0
INSERT
  8
51
  2
RECT
 10
81.2800
 20
35.5600
 30
0.0000
 41
0.5080
 42
0.5080
 43
1.0000
 50
180.0000
  0
INSERT
  8
51
  2
RECT
 10
83.8200
 20
35.5600
 30
0.0000
 41
0.5080
 42
0.5080
 43
1.0000
 50
180.0000
  0
INSERT
  8
51
  2
RECT
 10
81.2800
 20
38.1000
 30
0.0000
 41
0.5080
 42
0.5080
 43
1.0000
 50
180.0000
  0
INSERT
  8
51
  2
RECT
 10
83.8200
 20
38.1000
 30
0.0000
 41
0.5080
 42
0.5080
 43
1.0000
 50
180.0000
  0
INSERT
  8
51
  2
RECT
 10
81.2800
 20
43.1800
 30
0.0000
 41
0.5080
 42
0.5080
 43
1.0000
 50
180.0000
  0
INSERT
  8
51
  2
RECT
 10
83.8200
 20
43.1800
 30
0.0000
 41
0.5080
 42
0.5080
 43
1.0000
 50
180.0000
  0
INSERT
  8
51
  2
RECT
 10
83.8200
 20
40.6400
 30
0.0000
 41
0.5080
 42
0.5080
 43
1.0000
 50
180.0000
  0
INSERT
  8
51
  2
RECT
 10
81.2800
 20
40.6400
 30
0.0000
 41
0.5080
 42
0.5080
 43
1.0000
 50
180.0000
  0
INSERT
  8
51
  2
RECT
 10
97.7900
 20
33.0200
 30
0.0000
 41
0.5080
 42
0.5080
 43
1.0000
 50
180.0000
  0
INSERT
  8
51
  2
RECT
 10
95.2500
 20
33.0200
 30
0.0000
 41
0.5080
 42
0.5080
 43
1.0000
 50
180.0000
  0
INSERT
  8
51
  2
RECT
 10
95.2500
 20
35.5600
 30
0.0000
 41
0.5080
 42
0.5080
 43
1.0000
 50
180.0000
  0
INSERT
  8
51
  2
RECT
 10
97.7900
 20
35.5600
 30
0.0000
 41
0.5080
 42
0.5080
 43
1.0000
 50
180.0000
  0
INSERT
  8
51
  2
RECT
 10
95.2500
 20
38.1000
 30
0.0000
 41
0.5080
 42
0.5080
 43
1.0000
 50
180.0000
  0
INSERT
  8
51
  2
RECT
 10
97.7900
 20
38.1000
 30
0.0000
 41
0.5080
 42
0.5080
 43
1.0000
 50
180.0000
  0
INSERT
  8
51
  2
RECT
 10
95.2500
 20
43.1800
 30
0.0000
 41
0.5080
 42
0.5080
 43
1.0000
 50
180.0000
  0
INSERT
  8
51
  2
RECT
 10
97.7900
 20
43.1800
 30
0.0000
 41
0.5080
 42
0.5080
 43
1.0000
 50
180.0000
  0
INSERT
  8
51
  2
RECT
 10
97.7900
 20
40.6400
 30
0.0000
 41
0.5080
 42
0.5080
 43
1.0000
 50
180.0000
  0
INSERT
  8
51
  2
RECT
 10
95.2500
 20
40.6400
 30
0.0000
 41
0.5080
 42
0.5080
 43
1.0000
 50
180.0000
  0
INSERT
  8
51
  2
RECT
 10
111.7600
 20
33.0200
 30
0.0000
 41
0.5080
 42
0.5080
 43
1.0000
 50
180.0000
  0
INSERT
  8
51
  2
RECT
 10
109.2200
 20
33.0200
 30
0.0000
 41
0.5080
 42
0.5080
 43
1.0000
 50
180.0000
  0
INSERT
  8
51
  2
RECT
 10
109.2200
 20
35.5600
 30
0.0000
 41
0.5080
 42
0.5080
 43
1.0000
 50
180.0000
  0
INSERT
  8
51
  2
RECT
 10
111.7600
 20
35.5600
 30
0.0000
 41
0.5080
 42
0.5080
 43
1.0000
 50
180.0000
  0
INSERT
  8
51
  2
RECT
 10
109.2200
 20
38.1000
 30
0.0000
 41
0.5080
 42
0.5080
 43
1.0000
 50
180.0000
  0
INSERT
  8
51
  2
RECT
 10
111.7600
 20
38.1000
 30
0.0000
 41
0.5080
 42
0.5080
 43
1.0000
 50
180.0000
  0
INSERT
  8
51
  2
RECT
 10
109.2200
 20
43.1800
 30
0.0000
 41
0.5080
 42
0.5080
 43
1.0000
 50
180.0000
  0
INSERT
  8
51
  2
RECT
 10
111.7600
 20
43.1800
 30
0.0000
 41
0.5080
 42
0.5080
 43
1.0000
 50
180.0000
  0
INSERT
  8
51
  2
RECT
 10
111.7600
 20
40.6400
 30
0.0000
 41
0.5080
 42
0.5080
 43
1.0000
 50
180.0000
  0
INSERT
  8
51
  2
RECT
 10
109.2200
 20
40.6400
 30
0.0000
 41
0.5080
 42
0.5080
 43
1.0000
 50
180.0000
  0
INSERT
  8
51
  2
RECT
 10
3.8100
 20
23.4950
 30
0.0000
 41
0.5080
 42
0.5080
 43
1.0000
 50
90.0000
  0
INSERT
  8
51
  2
RECT
 10
3.8100
 20
20.9550
 30
0.0000
 41
0.5080
 42
0.5080
 43
1.0000
 50
90.0000
  0
INSERT
  8
51
  2
RECT
 10
3.8100
 20
12.0650
 30
0.0000
 41
0.5080
 42
0.5080
 43
1.0000
 50
90.0000
  0
INSERT
  8
51
  2
RECT
 10
3.8100
 20
9.5250
 30
0.0000
 41
0.5080
 42
0.5080
 43
1.0000
 50
90.0000
  0
INSERT
  8
51
  2
RECT
 10
3.8100
 20
6.9850
 30
0.0000
 41
0.5080
 42
0.5080
 43
1.0000
 50
90.0000
  0
INSERT
  8
51
  2
RECT
 10
38.7350
 20
3.8100
 30
0.0000
 41
0.5080
 42
0.5080
 43
1.0000
 50
180.0000
  0
INSERT
  8
51
  2
RECT
 10
41.2750
 20
3.8100
 30
0.0000
 41
0.5080
 42
0.5080
 43
1.0000
 50
180.0000
  0
INSERT
  8
51
  2
RECT
 10
43.8150
 20
3.8100
 30
0.0000
 41
0.5080
 42
0.5080
 43
1.0000
 50
180.0000
  0
INSERT
  8
17
  2
ROUNDP
 10
3.8100
 20
6.9850
 30
0.0000
 41
1.8796
 42
1.8796
 43
1.0000
 50
180.0000
  0
INSERT
  8
17
  2
ROUNDP
 10
3.8100
 20
6.9850
 30
0.0000
 41
1.8796
 42
1.8796
 43
1.0000
 50
180.0000
  0
INSERT
  8
17
  2
ROUNDP
 10
3.8100
 20
9.5250
 30
0.0000
 41
1.8796
 42
1.8796
 43
1.0000
 50
180.0000
  0
INSERT
  8
17
  2
ROUNDP
 10
3.8100
 20
9.5250
 30
0.0000
 41
1.8796
 42
1.8796
 43
1.0000
 50
180.0000
  0
INSERT
  8
17
  2
ROUNDP
 10
3.8100
 20
12.0650
 30
0.0000
 41
1.8796
 42
1.8796
 43
1.0000
 50
180.0000
  0
INSERT
  8
17
  2
ROUNDP
 10
3.8100
 20
12.0650
 30
0.0000
 41
1.8796
 42
1.8796
 43
1.0000
 50
180.0000
  0
INSERT
  8
17
  2
ROUNDP
 10
38.7350
 20
3.8100
 30
0.0000
 41
1.8796
 42
1.8796
 43
1.0000
 50
270.0000
  0
INSERT
  8
17
  2
ROUNDP
 10
38.7350
 20
3.8100
 30
0.0000
 41
1.8796
 42
1.8796
 43
1.0000
 50
270.0000
  0
INSERT
  8
17
  2
ROUNDP
 10
13.9700
 20
33.0200
 30
0.0000
 41
1.8796
 42
1.8796
 43
1.0000
 50
90.0000
  0
INSERT
  8
17
  2
ROUNDP
 10
13.9700
 20
33.0200
 30
0.0000
 41
1.8796
 42
1.8796
 43
1.0000
 50
90.0000
  0
INSERT
  8
17
  2
ROUNDP
 10
13.9700
 20
35.5600
 30
0.0000
 41
1.8796
 42
1.8796
 43
1.0000
 50
90.0000
  0
INSERT
  8
17
  2
ROUNDP
 10
13.9700
 20
35.5600
 30
0.0000
 41
1.8796
 42
1.8796
 43
1.0000
 50
90.0000
  0
INSERT
  8
17
  2
ROUNDP
 10
13.9700
 20
38.1000
 30
0.0000
 41
1.8796
 42
1.8796
 43
1.0000
 50
90.0000
  0
INSERT
  8
17
  2
ROUNDP
 10
13.9700
 20
38.1000
 30
0.0000
 41
1.8796
 42
1.8796
 43
1.0000
 50
90.0000
  0
INSERT
  8
17
  2
ROUNDP
 10
13.9700
 20
40.6400
 30
0.0000
 41
1.8796
 42
1.8796
 43
1.0000
 50
90.0000
  0
INSERT
  8
17
  2
ROUNDP
 10
13.9700
 20
40.6400
 30
0.0000
 41
1.8796
 42
1.8796
 43
1.0000
 50
90.0000
  0
INSERT
  8
17
  2
ROUNDP
 10
11.4300
 20
33.0200
 30
0.0000
 41
1.8796
 42
1.8796
 43
1.0000
 50
90.0000
  0
INSERT
  8
17
  2
ROUNDP
 10
11.4300
 20
33.0200
 30
0.0000
 41
1.8796
 42
1.8796
 43
1.0000
 50
90.0000
  0
INSERT
  8
17
  2
ROUNDP
 10
11.4300
 20
35.5600
 30
0.0000
 41
1.8796
 42
1.8796
 43
1.0000
 50
90.0000
  0
INSERT
  8
17
  2
ROUNDP
 10
11.4300
 20
35.5600
 30
0.0000
 41
1.8796
 42
1.8796
 43
1.0000
 50
90.0000
  0
INSERT
  8
17
  2
ROUNDP
 10
11.4300
 20
38.1000
 30
0.0000
 41
1.8796
 42
1.8796
 43
1.0000
 50
90.0000
  0
INSERT
  8
17
  2
ROUNDP
 10
11.4300
 20
38.1000
 30
0.0000
 41
1.8796
 42
1.8796
 43
1.0000
 50
90.0000
  0
INSERT
  8
17
  2
ROUNDP
 10
11.4300
 20
43.1800
 30
0.0000
 41
1.8796
 42
1.8796
 43
1.0000
 50
90.0000
  0
INSERT
  8
17
  2
ROUNDP
 10
11.4300
 20
43.1800
 30
0.0000
 41
1.8796
 42
1.8796
 43
1.0000
 50
90.0000
  0
INSERT
  8
17
  2
ROUNDP
 10
11.4300
 20
40.6400
 30
0.0000
 41
1.8796
 42
1.8796
 43
1.0000
 50
90.0000
  0
INSERT
  8
17
  2
ROUNDP
 10
11.4300
 20
40.6400
 30
0.0000
 41
1.8796
 42
1.8796
 43
1.0000
 50
90.0000
  0
INSERT
  8
17
  2
ROUNDP
 10
13.9700
 20
43.1800
 30
0.0000
 41
1.8796
 42
1.8796
 43
1.0000
 50
90.0000
  0
INSERT
  8
17
  2
ROUNDP
 10
13.9700
 20
43.1800
 30
0.0000
 41
1.8796
 42
1.8796
 43
1.0000
 50
90.0000
  0
INSERT
  8
17
  2
ROUNDP
 10
27.9400
 20
33.0200
 30
0.0000
 41
1.8796
 42
1.8796
 43
1.0000
 50
90.0000
  0
INSERT
  8
17
  2
ROUNDP
 10
27.9400
 20
33.0200
 30
0.0000
 41
1.8796
 42
1.8796
 43
1.0000
 50
90.0000
  0
INSERT
  8
17
  2
ROUNDP
 10
27.9400
 20
35.5600
 30
0.0000
 41
1.8796
 42
1.8796
 43
1.0000
 50
90.0000
  0
INSERT
  8
17
  2
ROUNDP
 10
27.9400
 20
35.5600
 30
0.0000
 41
1.8796
 42
1.8796
 43
1.0000
 50
90.0000
  0
INSERT
  8
17
  2
ROUNDP
 10
27.9400
 20
38.1000
 30
0.0000
 41
1.8796
 42
1.8796
 43
1.0000
 50
90.0000
  0
INSERT
  8
17
  2
ROUNDP
 10
27.9400
 20
38.1000
 30
0.0000
 41
1.8796
 42
1.8796
 43
1.0000
 50
90.0000
  0
INSERT
  8
17
  2
ROUNDP
 10
27.9400
 20
40.6400
 30
0.0000
 41
1.8796
 42
1.8796
 43
1.0000
 50
90.0000
  0
INSERT
  8
17
  2
ROUNDP
 10
27.9400
 20
40.6400
 30
0.0000
 41
1.8796
 42
1.8796
 43
1.0000
 50
90.0000
  0
INSERT
  8
17
  2
ROUNDP
 10
25.4000
 20
33.0200
 30
0.0000
 41
1.8796
 42
1.8796
 43
1.0000
 50
90.0000
  0
INSERT
  8
17
  2
ROUNDP
 10
25.4000
 20
33.0200
 30
0.0000
 41
1.8796
 42
1.8796
 43
1.0000
 50
90.0000
  0
INSERT
  8
17
  2
ROUNDP
 10
25.4000
 20
35.5600
 30
0.0000
 41
1.8796
 42
1.8796
 43
1.0000
 50
90.0000
  0
INSERT
  8
17
  2
ROUNDP
 10
25.4000
 20
35.5600
 30
0.0000
 41
1.8796
 42
1.8796
 43
1.0000
 50
90.0000
  0
INSERT
  8
17
  2
ROUNDP
 10
25.4000
 20
38.1000
 30
0.0000
 41
1.8796
 42
1.8796
 43
1.0000
 50
90.0000
  0
INSERT
  8
17
  2
ROUNDP
 10
25.4000
 20
38.1000
 30
0.0000
 41
1.8796
 42
1.8796
 43
1.0000
 50
90.0000
  0
INSERT
  8
17
  2
ROUNDP
 10
25.4000
 20
43.1800
 30
0.0000
 41
1.8796
 42
1.8796
 43
1.0000
 50
90.0000
  0
INSERT
  8
17
  2
ROUNDP
 10
25.4000
 20
43.1800
 30
0.0000
 41
1.8796
 42
1.8796
 43
1.0000
 50
90.0000
  0
INSERT
  8
17
  2
ROUNDP
 10
25.4000
 20
40.6400
 30
0.0000
 41
1.8796
 42
1.8796
 43
1.0000
 50
90.0000
  0
INSERT
  8
17
  2
ROUNDP
 10
25.4000
 20
40.6400
 30
0.0000
 41
1.8796
 42
1.8796
 43
1.0000
 50
90.0000
  0
INSERT
  8
17
  2
ROUNDP
 10
27.9400
 20
43.1800
 30
0.0000
 41
1.8796
 42
1.8796
 43
1.0000
 50
90.0000
  0
INSERT
  8
17
  2
ROUNDP
 10
27.9400
 20
43.1800
 30
0.0000
 41
1.8796
 42
1.8796
 43
1.0000
 50
90.0000
  0
INSERT
  8
17
  2
ROUNDP
 10
41.9100
 20
33.0200
 30
0.0000
 41
1.8796
 42
1.8796
 43
1.0000
 50
90.0000
  0
INSERT
  8
17
  2
ROUNDP
 10
41.9100
 20
33.0200
 30
0.0000
 41
1.8796
 42
1.8796
 43
1.0000
 50
90.0000
  0
INSERT
  8
17
  2
ROUNDP
 10
41.9100
 20
35.5600
 30
0.0000
 41
1.8796
 42
1.8796
 43
1.0000
 50
90.0000
  0
INSERT
  8
17
  2
ROUNDP
 10
41.9100
 20
35.5600
 30
0.0000
 41
1.8796
 42
1.8796
 43
1.0000
 50
90.0000
  0
INSERT
  8
17
  2
ROUNDP
 10
41.9100
 20
38.1000
 30
0.0000
 41
1.8796
 42
1.8796
 43
1.0000
 50
90.0000
  0
INSERT
  8
17
  2
ROUNDP
 10
41.9100
 20
38.1000
 30
0.0000
 41
1.8796
 42
1.8796
 43
1.0000
 50
90.0000
  0
INSERT
  8
17
  2
ROUNDP
 10
41.9100
 20
40.6400
 30
0.0000
 41
1.8796
 42
1.8796
 43
1.0000
 50
90.0000
  0
INSERT
  8
17
  2
ROUNDP
 10
41.9100
 20
40.6400
 30
0.0000
 41
1.8796
 42
1.8796
 43
1.0000
 50
90.0000
  0
INSERT
  8
17
  2
ROUNDP
 10
39.3700
 20
33.0200
 30
0.0000
 41
1.8796
 42
1.8796
 43
1.0000
 50
90.0000
  0
INSERT
  8
17
  2
ROUNDP
 10
39.3700
 20
33.0200
 30
0.0000
 41
1.8796
 42
1.8796
 43
1.0000
 50
90.0000
  0
INSERT
  8
17
  2
ROUNDP
 10
39.3700
 20
35.5600
 30
0.0000
 41
1.8796
 42
1.8796
 43
1.0000
 50
90.0000
  0
INSERT
  8
17
  2
ROUNDP
 10
39.3700
 20
35.5600
 30
0.0000
 41
1.8796
 42
1.8796
 43
1.0000
 50
90.0000
  0
INSERT
  8
17
  2
ROUNDP
 10
39.3700
 20
38.1000
 30
0.0000
 41
1.8796
 42
1.8796
 43
1.0000
 50
90.0000
  0
INSERT
  8
17
  2
ROUNDP
 10
39.3700
 20
38.1000
 30
0.0000
 41
1.8796
 42
1.8796
 43
1.0000
 50
90.0000
  0
INSERT
  8
17
  2
ROUNDP
 10
39.3700
 20
43.1800
 30
0.0000
 41
1.8796
 42
1.8796
 43
1.0000
 50
90.0000
  0
INSERT
  8
17
  2
ROUNDP
 10
39.3700
 20
43.1800
 30
0.0000
 41
1.8796
 42
1.8796
 43
1.0000
 50
90.0000
  0
INSERT
  8
17
  2
ROUNDP
 10
39.3700
 20
40.6400
 30
0.0000
 41
1.8796
 42
1.8796
 43
1.0000
 50
90.0000
  0
INSERT
  8
17
  2
ROUNDP
 10
39.3700
 20
40.6400
 30
0.0000
 41
1.8796
 42
1.8796
 43
1.0000
 50
90.0000
  0
INSERT
  8
17
  2
ROUNDP
 10
41.9100
 20
43.1800
 30
0.0000
 41
1.8796
 42
1.8796
 43
1.0000
 50
90.0000
  0
INSERT
  8
17
  2
ROUNDP
 10
41.9100
 20
43.1800
 30
0.0000
 41
1.8796
 42
1.8796
 43
1.0000
 50
90.0000
  0
INSERT
  8
17
  2
ROUNDP
 10
55.8800
 20
33.0200
 30
0.0000
 41
1.8796
 42
1.8796
 43
1.0000
 50
90.0000
  0
INSERT
  8
17
  2
ROUNDP
 10
55.8800
 20
33.0200
 30
0.0000
 41
1.8796
 42
1.8796
 43
1.0000
 50
90.0000
  0
INSERT
  8
17
  2
ROUNDP
 10
55.8800
 20
35.5600
 30
0.0000
 41
1.8796
 42
1.8796
 43
1.0000
 50
90.0000
  0
INSERT
  8
17
  2
ROUNDP
 10
55.8800
 20
35.5600
 30
0.0000
 41
1.8796
 42
1.8796
 43
1.0000
 50
90.0000
  0
INSERT
  8
17
  2
ROUNDP
 10
55.8800
 20
38.1000
 30
0.0000
 41
1.8796
 42
1.8796
 43
1.0000
 50
90.0000
  0
INSERT
  8
17
  2
ROUNDP
 10
55.8800
 20
38.1000
 30
0.0000
 41
1.8796
 42
1.8796
 43
1.0000
 50
90.0000
  0
INSERT
  8
17
  2
ROUNDP
 10
55.8800
 20
40.6400
 30
0.0000
 41
1.8796
 42
1.8796
 43
1.0000
 50
90.0000
  0
INSERT
  8
17
  2
ROUNDP
 10
55.8800
 20
40.6400
 30
0.0000
 41
1.8796
 42
1.8796
 43
1.0000
 50
90.0000
  0
INSERT
  8
17
  2
ROUNDP
 10
53.3400
 20
33.0200
 30
0.0000
 41
1.8796
 42
1.8796
 43
1.0000
 50
90.0000
  0
INSERT
  8
17
  2
ROUNDP
 10
53.3400
 20
33.0200
 30
0.0000
 41
1.8796
 42
1.8796
 43
1.0000
 50
90.0000
  0
INSERT
  8
17
  2
ROUNDP
 10
53.3400
 20
35.5600
 30
0.0000
 41
1.8796
 42
1.8796
 43
1.0000
 50
90.0000
  0
INSERT
  8
17
  2
ROUNDP
 10
53.3400
 20
35.5600
 30
0.0000
 41
1.8796
 42
1.8796
 43
1.0000
 50
90.0000
  0
INSERT
  8
17
  2
ROUNDP
 10
53.3400
 20
38.1000
 30
0.0000
 41
1.8796
 42
1.8796
 43
1.0000
 50
90.0000
  0
INSERT
  8
17
  2
ROUNDP
 10
53.3400
 20
38.1000
 30
0.0000
 41
1.8796
 42
1.8796
 43
1.0000
 50
90.0000
  0
INSERT
  8
17
  2
ROUNDP
 10
53.3400
 20
43.1800
 30
0.0000
 41
1.8796
 42
1.8796
 43
1.0000
 50
90.0000
  0
INSERT
  8
17
  2
ROUNDP
 10
53.3400
 20
43.1800
 30
0.0000
 41
1.8796
 42
1.8796
 43
1.0000
 50
90.0000
  0
INSERT
  8
17
  2
ROUNDP
 10
53.3400
 20
40.6400
 30
0.0000
 41
1.8796
 42
1.8796
 43
1.0000
 50
90.0000
  0
INSERT
  8
17
  2
ROUNDP
 10
53.3400
 20
40.6400
 30
0.0000
 41
1.8796
 42
1.8796
 43
1.0000
 50
90.0000
  0
INSERT
  8
17
  2
ROUNDP
 10
55.8800
 20
43.1800
 30
0.0000
 41
1.8796
 42
1.8796
 43
1.0000
 50
90.0000
  0
INSERT
  8
17
  2
ROUNDP
 10
55.8800
 20
43.1800
 30
0.0000
 41
1.8796
 42
1.8796
 43
1.0000
 50
90.0000
  0
INSERT
  8
17
  2
ROUNDP
 10
69.8500
 20
33.0200
 30
0.0000
 41
1.8796
 42
1.8796
 43
1.0000
 50
90.0000
  0
INSERT
  8
17
  2
ROUNDP
 10
69.8500
 20
33.0200
 30
0.0000
 41
1.8796
 42
1.8796
 43
1.0000
 50
90.0000
  0
INSERT
  8
17
  2
ROUNDP
 10
69.8500
 20
35.5600
 30
0.0000
 41
1.8796
 42
1.8796
 43
1.0000
 50
90.0000
  0
INSERT
  8
17
  2
ROUNDP
 10
69.8500
 20
35.5600
 30
0.0000
 41
1.8796
 42
1.8796
 43
1.0000
 50
90.0000
  0
INSERT
  8
17
  2
ROUNDP
 10
69.8500
 20
38.1000
 30
0.0000
 41
1.8796
 42
1.8796
 43
1.0000
 50
90.0000
  0
INSERT
  8
17
  2
ROUNDP
 10
69.8500
 20
38.1000
 30
0.0000
 41
1.8796
 42
1.8796
 43
1.0000
 50
90.0000
  0
INSERT
  8
17
  2
ROUNDP
 10
69.8500
 20
40.6400
 30
0.0000
 41
1.8796
 42
1.8796
 43
1.0000
 50
90.0000
  0
INSERT
  8
17
  2
ROUNDP
 10
69.8500
 20
40.6400
 30
0.0000
 41
1.8796
 42
1.8796
 43
1.0000
 50
90.0000
  0
INSERT
  8
17
  2
ROUNDP
 10
67.3100
 20
33.0200
 30
0.0000
 41
1.8796
 42
1.8796
 43
1.0000
 50
90.0000
  0
INSERT
  8
17
  2
ROUNDP
 10
67.3100
 20
33.0200
 30
0.0000
 41
1.8796
 42
1.8796
 43
1.0000
 50
90.0000
  0
INSERT
  8
17
  2
ROUNDP
 10
67.3100
 20
35.5600
 30
0.0000
 41
1.8796
 42
1.8796
 43
1.0000
 50
90.0000
  0
INSERT
  8
17
  2
ROUNDP
 10
67.3100
 20
35.5600
 30
0.0000
 41
1.8796
 42
1.8796
 43
1.0000
 50
90.0000
  0
INSERT
  8
17
  2
ROUNDP
 10
67.3100
 20
38.1000
 30
0.0000
 41
1.8796
 42
1.8796
 43
1.0000
 50
90.0000
  0
INSERT
  8
17
  2
ROUNDP
 10
67.3100
 20
38.1000
 30
0.0000
 41
1.8796
 42
1.8796
 43
1.0000
 50
90.0000
  0
INSERT
  8
17
  2
ROUNDP
 10
67.3100
 20
43.1800
 30
0.0000
 41
1.8796
 42
1.8796
 43
1.0000
 50
90.0000
  0
INSERT
  8
17
  2
ROUNDP
 10
67.3100
 20
43.1800
 30
0.0000
 41
1.8796
 42
1.8796
 43
1.0000
 50
90.0000
  0
INSERT
  8
17
  2
ROUNDP
 10
67.3100
 20
40.6400
 30
0.0000
 41
1.8796
 42
1.8796
 43
1.0000
 50
90.0000
  0
INSERT
  8
17
  2
ROUNDP
 10
67.3100
 20
40.6400
 30
0.0000
 41
1.8796
 42
1.8796
 43
1.0000
 50
90.0000
  0
INSERT
  8
17
  2
ROUNDP
 10
69.8500
 20
43.1800
 30
0.0000
 41
1.8796
 42
1.8796
 43
1.0000
 50
90.0000
  0
INSERT
  8
17
  2
ROUNDP
 10
69.8500
 20
43.1800
 30
0.0000
 41
1.8796
 42
1.8796
 43
1.0000
 50
90.0000
  0
INSERT
  8
17
  2
ROUNDP
 10
83.8200
 20
33.0200
 30
0.0000
 41
1.8796
 42
1.8796
 43
1.0000
 50
90.0000
  0
INSERT
  8
17
  2
ROUNDP
 10
83.8200
 20
33.0200
 30
0.0000
 41
1.8796
 42
1.8796
 43
1.0000
 50
90.0000
  0
INSERT
  8
17
  2
ROUNDP
 10
83.8200
 20
35.5600
 30
0.0000
 41
1.8796
 42
1.8796
 43
1.0000
 50
90.0000
  0
INSERT
  8
17
  2
ROUNDP
 10
83.8200
 20
35.5600
 30
0.0000
 41
1.8796
 42
1.8796
 43
1.0000
 50
90.0000
  0
INSERT
  8
17
  2
ROUNDP
 10
83.8200
 20
38.1000
 30
0.0000
 41
1.8796
 42
1.8796
 43
1.0000
 50
90.0000
  0
INSERT
  8
17
  2
ROUNDP
 10
83.8200
 20
38.1000
 30
0.0000
 41
1.8796
 42
1.8796
 43
1.0000
 50
90.0000
  0
INSERT
  8
17
  2
ROUNDP
 10
83.8200
 20
40.6400
 30
0.0000
 41
1.8796
 42
1.8796
 43
1.0000
 50
90.0000
  0
INSERT
  8
17
  2
ROUNDP
 10
83.8200
 20
40.6400
 30
0.0000
 41
1.8796
 42
1.8796
 43
1.0000
 50
90.0000
  0
INSERT
  8
17
  2
ROUNDP
 10
81.2800
 20
33.0200
 30
0.0000
 41
1.8796
 42
1.8796
 43
1.0000
 50
90.0000
  0
INSERT
  8
17
  2
ROUNDP
 10
81.2800
 20
33.0200
 30
0.0000
 41
1.8796
 42
1.8796
 43
1.0000
 50
90.0000
  0
INSERT
  8
17
  2
ROUNDP
 10
81.2800
 20
35.5600
 30
0.0000
 41
1.8796
 42
1.8796
 43
1.0000
 50
90.0000
  0
INSERT
  8
17
  2
ROUNDP
 10
81.2800
 20
35.5600
 30
0.0000
 41
1.8796
 42
1.8796
 43
1.0000
 50
90.0000
  0
INSERT
  8
17
  2
ROUNDP
 10
81.2800
 20
38.1000
 30
0.0000
 41
1.8796
 42
1.8796
 43
1.0000
 50
90.0000
  0
INSERT
  8
17
  2
ROUNDP
 10
81.2800
 20
38.1000
 30
0.0000
 41
1.8796
 42
1.8796
 43
1.0000
 50
90.0000
  0
INSERT
  8
17
  2
ROUNDP
 10
81.2800
 20
43.1800
 30
0.0000
 41
1.8796
 42
1.8796
 43
1.0000
 50
90.0000
  0
INSERT
  8
17
  2
ROUNDP
 10
81.2800
 20
43.1800
 30
0.0000
 41
1.8796
 42
1.8796
 43
1.0000
 50
90.0000
  0
INSERT
  8
17
  2
ROUNDP
 10
81.2800
 20
40.6400
 30
0.0000
 41
1.8796
 42
1.8796
 43
1.0000
 50
90.0000
  0
INSERT
  8
17
  2
ROUNDP
 10
81.2800
 20
40.6400
 30
0.0000
 41
1.8796
 42
1.8796
 43
1.0000
 50
90.0000
  0
INSERT
  8
17
  2
ROUNDP
 10
83.8200
 20
43.1800
 30
0.0000
 41
1.8796
 42
1.8796
 43
1.0000
 50
90.0000
  0
INSERT
  8
17
  2
ROUNDP
 10
83.8200
 20
43.1800
 30
0.0000
 41
1.8796
 42
1.8796
 43
1.0000
 50
90.0000
  0
INSERT
  8
17
  2
ROUNDP
 10
97.7900
 20
33.0200
 30
0.0000
 41
1.8796
 42
1.8796
 43
1.0000
 50
90.0000
  0
INSERT
  8
17
  2
ROUNDP
 10
97.7900
 20
33.0200
 30
0.0000
 41
1.8796
 42
1.8796
 43
1.0000
 50
90.0000
  0
INSERT
  8
17
  2
ROUNDP
 10
97.7900
 20
35.5600
 30
0.0000
 41
1.8796
 42
1.8796
 43
1.0000
 50
90.0000
  0
INSERT
  8
17
  2
ROUNDP
 10
97.7900
 20
35.5600
 30
0.0000
 41
1.8796
 42
1.8796
 43
1.0000
 50
90.0000
  0
INSERT
  8
17
  2
ROUNDP
 10
97.7900
 20
38.1000
 30
0.0000
 41
1.8796
 42
1.8796
 43
1.0000
 50
90.0000
  0
INSERT
  8
17
  2
ROUNDP
 10
97.7900
 20
38.1000
 30
0.0000
 41
1.8796
 42
1.8796
 43
1.0000
 50
90.0000
  0
INSERT
  8
17
  2
ROUNDP
 10
97.7900
 20
40.6400
 30
0.0000
 41
1.8796
 42
1.8796
 43
1.0000
 50
90.0000
  0
INSERT
  8
17
  2
ROUNDP
 10
97.7900
 20
40.6400
 30
0.0000
 41
1.8796
 42
1.8796
 43
1.0000
 50
90.0000
  0
INSERT
  8
17
  2
ROUNDP
 10
95.2500
 20
33.0200
 30
0.0000
 41
1.8796
 42
1.8796
 43
1.0000
 50
90.0000
  0
INSERT
  8
17
  2
ROUNDP
 10
95.2500
 20
33.0200
 30
0.0000
 41
1.8796
 42
1.8796
 43
1.0000
 50
90.0000
  0
INSERT
  8
17
  2
ROUNDP
 10
95.2500
 20
35.5600
 30
0.0000
 41
1.8796
 42
1.8796
 43
1.0000
 50
90.0000
  0
INSERT
  8
17
  2
ROUNDP
 10
95.2500
 20
35.5600
 30
0.0000
 41
1.8796
 42
1.8796
 43
1.0000
 50
90.0000
  0
INSERT
  8
17
  2
ROUNDP
 10
95.2500
 20
38.1000
 30
0.0000
 41
1.8796
 42
1.8796
 43
1.0000
 50
90.0000
  0
INSERT
  8
17
  2
ROUNDP
 10
95.2500
 20
38.1000
 30
0.0000
 41
1.8796
 42
1.8796
 43
1.0000
 50
90.0000
  0
INSERT
  8
17
  2
ROUNDP
 10
95.2500
 20
43.1800
 30
0.0000
 41
1.8796
 42
1.8796
 43
1.0000
 50
90.0000
  0
INSERT
  8
17
  2
ROUNDP
 10
95.2500
 20
43.1800
 30
0.0000
 41
1.8796
 42
1.8796
 43
1.0000
 50
90.0000
  0
INSERT
  8
17
  2
ROUNDP
 10
95.2500
 20
40.6400
 30
0.0000
 41
1.8796
 42
1.8796
 43
1.0000
 50
90.0000
  0
INSERT
  8
17
  2
ROUNDP
 10
95.2500
 20
40.6400
 30
0.0000
 41
1.8796
 42
1.8796
 43
1.0000
 50
90.0000
  0
INSERT
  8
17
  2
ROUNDP
 10
97.7900
 20
43.1800
 30
0.0000
 41
1.8796
 42
1.8796
 43
1.0000
 50
90.0000
  0
INSERT
  8
17
  2
ROUNDP
 10
97.7900
 20
43.1800
 30
0.0000
 41
1.8796
 42
1.8796
 43
1.0000
 50
90.0000
  0
INSERT
  8
17
  2
ROUNDP
 10
111.7600
 20
33.0200
 30
0.0000
 41
1.8796
 42
1.8796
 43
1.0000
 50
90.0000
  0
INSERT
  8
17
  2
ROUNDP
 10
111.7600
 20
33.0200
 30
0.0000
 41
1.8796
 42
1.8796
 43
1.0000
 50
90.0000
  0
INSERT
  8
17
  2
ROUNDP
 10
111.7600
 20
35.5600
 30
0.0000
 41
1.8796
 42
1.8796
 43
1.0000
 50
90.0000
  0
INSERT
  8
17
  2
ROUNDP
 10
111.7600
 20
35.5600
 30
0.0000
 41
1.8796
 42
1.8796
 43
1.0000
 50
90.0000
  0
INSERT
  8
17
  2
ROUNDP
 10
111.7600
 20
38.1000
 30
0.0000
 41
1.8796
 42
1.8796
 43
1.0000
 50
90.0000
  0
INSERT
  8
17
  2
ROUNDP
 10
111.7600
 20
38.1000
 30
0.0000
 41
1.8796
 42
1.8796
 43
1.0000
 50
90.0000
  0
INSERT
  8
17
  2
ROUNDP
 10
111.7600
 20
40.6400
 30
0.0000
 41
1.8796
 42
1.8796
 43
1.0000
 50
90.0000
  0
INSERT
  8
17
  2
ROUNDP
 10
111.7600
 20
40.6400
 30
0.0000
 41
1.8796
 42
1.8796
 43
1.0000
 50
90.0000
  0
INSERT
  8
17
  2
ROUNDP
 10
109.2200
 20
33.0200
 30
0.0000
 41
1.8796
 42
1.8796
 43
1.0000
 50
90.0000
  0
INSERT
  8
17
  2
ROUNDP
 10
109.2200
 20
33.0200
 30
0.0000
 41
1.8796
 42
1.8796
 43
1.0000
 50
90.0000
  0
INSERT
  8
17
  2
ROUNDP
 10
109.2200
 20
35.5600
 30
0.0000
 41
1.8796
 42
1.8796
 43
1.0000
 50
90.0000
  0
INSERT
  8
17
  2
ROUNDP
 10
109.2200
 20
35.5600
 30
0.0000
 41
1.8796
 42
1.8796
 43
1.0000
 50
90.0000
  0
INSERT
  8
17
  2
ROUNDP
 10
109.2200
 20
38.1000
 30
0.0000
 41
1.8796
 42
1.8796
 43
1.0000
 50
90.0000
  0
INSERT
  8
17
  2
ROUNDP
 10
109.2200
 20
38.1000
 30
0.0000
 41
1.8796
 42
1.8796
 43
1.0000
 50
90.0000
  0
INSERT
  8
17
  2
ROUNDP
 10
109.2200
 20
43.1800
 30
0.0000
 41
1.8796
 42
1.8796
 43
1.0000
 50
90.0000
  0
INSERT
  8
17
  2
ROUNDP
 10
109.2200
 20
43.1800
 30
0.0000
 41
1.8796
 42
1.8796
 43
1.0000
 50
90.0000
  0
INSERT
  8
17
  2
ROUNDP
 10
109.2200
 20
40.6400
 30
0.0000
 41
1.8796
 42
1.8796
 43
1.0000
 50
90.0000
  0
INSERT
  8
17
  2
ROUNDP
 10
109.2200
 20
40.6400
 30
0.0000
 41
1.8796
 42
1.8796
 43
1.0000
 50
90.0000
  0
INSERT
  8
17
  2
ROUNDP
 10
111.7600
 20
43.1800
 30
0.0000
 41
1.8796
 42
1.8796
 43
1.0000
 50
90.0000
  0
INSERT
  8
17
  2
ROUNDP
 10
111.7600
 20
43.1800
 30
0.0000
 41
1.8796
 42
1.8796
 43
1.0000
 50
90.0000
  0
INSERT
  8
17
  2
ROUNDP
 10
13.9700
 20
1.9050
 30
0.0000
 41
1.8796
 42
1.8796
 43
1.0000
 50
90.0000
  0
INSERT
  8
17
  2
ROUNDP
 10
13.9700
 20
1.9050
 30
0.0000
 41
1.8796
 42
1.8796
 43
1.0000
 50
90.0000
  0
INSERT
  8
17
  2
ROUNDP
 10
13.9700
 20
4.4450
 30
0.0000
 41
1.8796
 42
1.8796
 43
1.0000
 50
90.0000
  0
INSERT
  8
17
  2
ROUNDP
 10
13.9700
 20
4.4450
 30
0.0000
 41
1.8796
 42
1.8796
 43
1.0000
 50
90.0000
  0
INSERT
  8
17
  2
ROUNDP
 10
13.9700
 20
6.9850
 30
0.0000
 41
1.8796
 42
1.8796
 43
1.0000
 50
90.0000
  0
INSERT
  8
17
  2
ROUNDP
 10
13.9700
 20
6.9850
 30
0.0000
 41
1.8796
 42
1.8796
 43
1.0000
 50
90.0000
  0
INSERT
  8
17
  2
ROUNDP
 10
13.9700
 20
9.5250
 30
0.0000
 41
1.8796
 42
1.8796
 43
1.0000
 50
90.0000
  0
INSERT
  8
17
  2
ROUNDP
 10
13.9700
 20
9.5250
 30
0.0000
 41
1.8796
 42
1.8796
 43
1.0000
 50
90.0000
  0
INSERT
  8
17
  2
ROUNDP
 10
11.4300
 20
1.9050
 30
0.0000
 41
1.8796
 42
1.8796
 43
1.0000
 50
90.0000
  0
INSERT
  8
17
  2
ROUNDP
 10
11.4300
 20
1.9050
 30
0.0000
 41
1.8796
 42
1.8796
 43
1.0000
 50
90.0000
  0
INSERT
  8
17
  2
ROUNDP
 10
11.4300
 20
4.4450
 30
0.0000
 41
1.8796
 42
1.8796
 43
1.0000
 50
90.0000
  0
INSERT
  8
17
  2
ROUNDP
 10
11.4300
 20
4.4450
 30
0.0000
 41
1.8796
 42
1.8796
 43
1.0000
 50
90.0000
  0
INSERT
  8
17
  2
ROUNDP
 10
11.4300
 20
6.9850
 30
0.0000
 41
1.8796
 42
1.8796
 43
1.0000
 50
90.0000
  0
INSERT
  8
17
  2
ROUNDP
 10
11.4300
 20
6.9850
 30
0.0000
 41
1.8796
 42
1.8796
 43
1.0000
 50
90.0000
  0
INSERT
  8
17
  2
ROUNDP
 10
11.4300
 20
12.0650
 30
0.0000
 41
1.8796
 42
1.8796
 43
1.0000
 50
90.0000
  0
INSERT
  8
17
  2
ROUNDP
 10
11.4300
 20
12.0650
 30
0.0000
 41
1.8796
 42
1.8796
 43
1.0000
 50
90.0000
  0
INSERT
  8
17
  2
ROUNDP
 10
11.4300
 20
9.5250
 30
0.0000
 41
1.8796
 42
1.8796
 43
1.0000
 50
90.0000
  0
INSERT
  8
17
  2
ROUNDP
 10
11.4300
 20
9.5250
 30
0.0000
 41
1.8796
 42
1.8796
 43
1.0000
 50
90.0000
  0
INSERT
  8
17
  2
ROUNDP
 10
13.9700
 20
12.0650
 30
0.0000
 41
1.8796
 42
1.8796
 43
1.0000
 50
90.0000
  0
INSERT
  8
17
  2
ROUNDP
 10
13.9700
 20
12.0650
 30
0.0000
 41
1.8796
 42
1.8796
 43
1.0000
 50
90.0000
  0
INSERT
  8
17
  2
ROUNDP
 10
3.8100
 20
23.4950
 30
0.0000
 41
1.8796
 42
1.8796
 43
1.0000
 50
180.0000
  0
INSERT
  8
17
  2
ROUNDP
 10
3.8100
 20
23.4950
 30
0.0000
 41
1.8796
 42
1.8796
 43
1.0000
 50
180.0000
  0
INSERT
  8
17
  2
ROUNDP
 10
3.8100
 20
20.9550
 30
0.0000
 41
1.8796
 42
1.8796
 43
1.0000
 50
180.0000
  0
INSERT
  8
17
  2
ROUNDP
 10
3.8100
 20
20.9550
 30
0.0000
 41
1.8796
 42
1.8796
 43
1.0000
 50
180.0000
  0
INSERT
  8
17
  2
ROUNDP
 10
41.2750
 20
3.8100
 30
0.0000
 41
1.8796
 42
1.8796
 43
1.0000
 50
270.0000
  0
INSERT
  8
17
  2
ROUNDP
 10
41.2750
 20
3.8100
 30
0.0000
 41
1.8796
 42
1.8796
 43
1.0000
 50
270.0000
  0
INSERT
  8
17
  2
ROUNDP
 10
43.8150
 20
3.8100
 30
0.0000
 41
1.8796
 42
1.8796
 43
1.0000
 50
270.0000
  0
INSERT
  8
17
  2
ROUNDP
 10
43.8150
 20
3.8100
 30
0.0000
 41
1.8796
 42
1.8796
 43
1.0000
 50
270.0000
  0
ENDSEC
  0
EOF
